<svg width="18" height="18" viewBox="0 0 18 18" fill="none" xmlns="http://www.w3.org/2000/svg">
<path d="M11.9476 8.59275L5.67796 2.619C5.57335 2.51927 5.43436 2.46364 5.28983 2.46364C5.1453 2.46364 5.00632 2.51927 4.90171 2.619L4.89496 2.62575C4.84407 2.67409 4.80355 2.73228 4.77586 2.79678C4.74817 2.86128 4.73389 2.93074 4.73389 3.00093C4.73389 3.07113 4.74817 3.14058 4.77586 3.20508C4.80355 3.26958 4.84407 3.32778 4.89496 3.37612L10.799 9.00112L4.89496 14.6239C4.84407 14.6722 4.80355 14.7304 4.77586 14.7949C4.74817 14.8594 4.73389 14.9289 4.73389 14.9991C4.73389 15.0693 4.74817 15.1387 4.77586 15.2032C4.80355 15.2677 4.84407 15.3259 4.89496 15.3742L4.90171 15.381C5.00632 15.4807 5.1453 15.5364 5.28983 15.5364C5.43436 15.5364 5.57335 15.4807 5.67796 15.381L11.9476 9.40725C12.0027 9.35471 12.0466 9.29153 12.0766 9.22152C12.1066 9.15152 12.1221 9.07615 12.1221 9C12.1221 8.92384 12.1066 8.84847 12.0766 8.77847C12.0466 8.70846 12.0027 8.64528 11.9476 8.59275Z" fill="white"/>
</svg>
