<svg width="20" height="20" viewBox="0 0 20 20" fill="none" xmlns="http://www.w3.org/2000/svg">
<g clip-path="url(#clip0_601_1109)">
<path d="M15.3125 0H4.6875C2.09867 0 0 2.09867 0 4.6875V15.3125C0 17.9013 2.09867 20 4.6875 20H15.3125C17.9013 20 20 17.9013 20 15.3125V4.6875C20 2.09867 17.9013 0 15.3125 0Z" fill="#5865F2"/>
<mask id="mask0_601_1109" style="mask-type:luminance" maskUnits="userSpaceOnUse" x="2" y="3" width="16" height="14">
<path d="M2.1875 3.98438H17.8125V16.0883H2.1875V3.98438Z" fill="white"/>
</mask>
<g mask="url(#mask0_601_1109)">
<path d="M15.4146 5.06226C14.4016 4.59725 13.3326 4.26565 12.2342 4.07578C12.2243 4.07393 12.214 4.07528 12.2048 4.07963C12.1956 4.08398 12.188 4.0911 12.1832 4.1C12.0458 4.34422 11.8936 4.66297 11.7871 4.91344C10.5861 4.73359 9.39136 4.73359 8.21503 4.91344C8.10847 4.65734 7.95081 4.34422 7.81284 4.1C7.80774 4.09129 7.80012 4.08431 7.79099 4.07999C7.78187 4.07567 7.77165 4.0742 7.76167 4.07578C6.66324 4.26527 5.59414 4.59688 4.58128 5.06226C4.57261 5.06594 4.5653 5.07222 4.56034 5.08023C2.53472 8.10648 1.97987 11.0584 2.25206 13.9737C2.25282 13.9808 2.25501 13.9877 2.2585 13.994C2.26199 14.0003 2.26671 14.0058 2.27237 14.0102C3.60878 14.9917 4.90339 15.5876 6.17394 15.9825C6.18382 15.9854 6.19437 15.9853 6.20417 15.9821C6.21397 15.9789 6.22256 15.9728 6.22878 15.9645C6.52933 15.5541 6.79722 15.1213 7.02698 14.6662C7.03015 14.66 7.03195 14.6532 7.03228 14.6462C7.03261 14.6392 7.03146 14.6322 7.0289 14.6257C7.02634 14.6192 7.02243 14.6134 7.01742 14.6085C7.01242 14.6036 7.00644 14.5998 6.99987 14.5974C6.57487 14.4362 6.17026 14.2397 5.78105 14.0165C5.77396 14.0123 5.768 14.0065 5.76371 13.9994C5.75942 13.9924 5.75692 13.9844 5.75643 13.9762C5.75595 13.968 5.75749 13.9598 5.76092 13.9523C5.76436 13.9449 5.76958 13.9383 5.77612 13.9334C5.85823 13.872 5.93893 13.8087 6.01816 13.7437C6.02509 13.7379 6.03349 13.7343 6.04241 13.733C6.05133 13.7318 6.06041 13.7331 6.06862 13.7368C8.62581 14.9043 11.3942 14.9043 13.9211 13.7368C13.9294 13.7329 13.9386 13.7314 13.9476 13.7325C13.9567 13.7336 13.9652 13.7373 13.9723 13.743C14.0516 13.8085 14.1325 13.8719 14.215 13.9334C14.2215 13.9383 14.2268 13.9448 14.2303 13.9522C14.2338 13.9597 14.2354 13.9679 14.2349 13.9761C14.2345 13.9843 14.2321 13.9923 14.2278 13.9993C14.2236 14.0064 14.2177 14.0123 14.2107 14.0165C13.8212 14.2439 13.4133 14.438 12.9912 14.5968C12.9846 14.5993 12.9787 14.6032 12.9737 14.6081C12.9688 14.6131 12.9649 14.619 12.9624 14.6256C12.9599 14.6322 12.9588 14.6392 12.9592 14.6462C12.9596 14.6532 12.9615 14.66 12.9647 14.6662C13.1985 15.1177 13.465 15.5514 13.7622 15.9639C13.7683 15.9723 13.7768 15.9787 13.7867 15.982C13.7965 15.9854 13.8071 15.9855 13.8171 15.9825C15.0938 15.5876 16.3884 14.9917 17.7249 14.0102C17.7306 14.006 17.7354 14.0006 17.7389 13.9944C17.7424 13.9882 17.7445 13.9814 17.7452 13.9743C18.071 10.6039 17.1995 7.67617 15.435 5.08086C15.4306 5.07243 15.4234 5.06583 15.4146 5.06226ZM7.40886 12.1986C6.63894 12.1986 6.00456 11.4918 6.00456 10.6237C6.00456 9.7557 6.62667 9.0489 7.40886 9.0489C8.19714 9.0489 8.82534 9.76195 8.813 10.6237C8.813 11.4918 8.19105 12.1986 7.40886 12.1986ZM12.6007 12.1986C11.8308 12.1986 11.1965 11.4918 11.1965 10.6237C11.1965 9.7557 11.8185 9.0489 12.6007 9.0489C13.389 9.0489 14.0172 9.76195 14.005 10.6237C14.005 11.4918 13.389 12.1986 12.6007 12.1986Z" fill="white"/>
</g>
</g>
<defs>
<clipPath id="clip0_601_1109">
<rect width="20" height="20" fill="white"/>
</clipPath>
</defs>
</svg>
