<?xml version="1.0" standalone="no"?>
  <!DOCTYPE svg PUBLIC "-//W3C//DTD SVG 1.1//EN" "http://www.w3.org/Graphics/SVG/1.1/DTD/svg11.dtd" >
  <svg>
  <metadata>
  Created by font-carrier
  </metadata>
  <defs>
  <font id="AnimeAcev02Bold" horiz-adv-x="1389" vert-adv-y="1389" >
    <font-face
      
      font-family="Anime Ace v02"
      
      font-weight="400"
      
      font-stretch="normal"
      
      units-per-em="1024"
      
      ascent="969"
      
      descent="-160"
      
    />
      <missing-glyph />

      

      
      <glyph glyph-name="unid9" unicode="&#xd9;" d="M966-8Q966-30 934.50-56.50Q903-83 866-83Q814-83 778-13Q757 26 746 60L560 55Q533 11 468 11Q409 11 394 49L335 52Q274 54 256 54L226 54Q210 54 179 54Q148 53 132 53Q79 53 56 68Q26 86 28 136Q29 167 29 183Q29 204 29 244Q28 285 28 306Q28 361 30 432Q32 483 37 595Q38 626 42 680Q47 712 54 738Q60 761 107.50 794Q155 827 191 827Q232 827 232 777Q232 748 225 701Q215 635 215 626Q200 489 200 329Q200 248 204 182Q281 175 345 175Q352 175 365 175Q378 176 385 176Q382 315 382 438Q382 642 392 753Q396 793 437 850Q469 866 495 866Q559 866 559 774L560 402Q560 294 563 180Q664 182 735 195Q734 275 727 446Q720 609 720 696Q720 750 723 765Q730 799 759 823Q792 851 838 851Q862 851 881 842Q906 830 906 809Q906 787 900 716L895 665Q894 652 892 634Q885 561 885 388L885 357Q885 272 891 194Q921 182 915 139Q913 134 913 128Q913 110 936 62Q966-4 966-8Z"  horiz-adv-x="990" vert-adv-y="1024"  />

      
      <glyph glyph-name="unida" unicode="&#xda;" d="M560 787Q553 663 547 601Q697 640 827 640Q872 640 909 636Q1148 610 1148 427Q1148 308 1047 183Q976 96 879 45Q777-9 669-9Q552-9 449 56Q366 108 366 153Q366 186 384 220L389 583Q391 717 393 756Q174 721 123 722Q89 722 62 749Q35 776 35 810Q35 847 73 854Q64 854 183 860Q185 860 277 866Q288 867 295 867Q306 867 412 895Q453 908 522 923Q552 920 572.50 889.50Q593 859 593 828Q593 795 566 788L560 787M524 923M971 406Q971 474 915 512Q883 534 828 534Q729 534 538 463Q533 395 533 301Q533 236 537 166Q602 127 662 127Q773 127 895 250Q971 327 971 406M524 923L522 923Q521 923 520 923Q519 924 518 924L524 923Z"  horiz-adv-x="1176" vert-adv-y="1024"  />

      
      <glyph glyph-name="unid0" unicode="&#xd0;" d="M550 332Q411 261 199 228Q199 221 203 196L220 89Q224 63 224 56Q224 34 186.50 16Q149-2 116-2Q71-2 64 18Q51 58 42 537Q25 563 25 593Q25 611 35 634Q114 753 240 823Q350 884 454 884Q585 884 672 811Q772 727 772 614Q772 445 550 332M601 583Q601 658 533.50 699.50Q466 741 398 741Q300 741 188 631Q185 563 185 501Q185 410 188 354Q461 366 546 457Q601 516 601 583Z"  horiz-adv-x="798" vert-adv-y="1024"  />

      
      <glyph glyph-name="unid2" unicode="&#xd2;" d="M708 782Q708 746 618 736Q554 733 425 726Q417 614 417 511Q417 314 442 154Q443 140 450 112Q457 78 457 58Q457 40 417 21Q381 4 350 4Q303 4 296 26Q294 30 289 125Q276 366 272 705Q269 696 195 669Q125 643 108 643Q66 643 43 675Q25 706 25 735Q25 791 81 815Q252 887 458 887Q561 887 587 880Q665 859 697 815Q708 800 708 782Z"  horiz-adv-x="733" vert-adv-y="1024"  />

      
      <glyph glyph-name="unid3" unicode="&#xd3;" d="M277 3Q225 3 188 37Q177 47 177 58Q177 66 332 344Q287 406 194 527Q162 563 102 637Q25 736 25 778Q25 801 50 835.50Q75 870 105 870Q132 870 156 838Q162 829 193 778Q287 621 405 470Q457 562 562 737Q585 776 638 856Q662 888 715 888Q749 888 785 868Q821 848 821 823Q821 809 779 755L742 708Q736 700 711 666Q523 407 397 147Q385 117 360 59Q349 36 325.50 19.50Q302 3 277 3Z"  horiz-adv-x="847" vert-adv-y="1024"  />

      
      <glyph glyph-name="unid4" unicode="&#xd4;" d="M1094 296Q1007 273 897 273Q838 273 750 282Q750 270 750 247Q749 225 749 213Q749 190 750 144Q751 98 751 75Q751 70 751 60Q750 50 750 45Q750 18 675 7Q595 18 595 46Q595 70 596.50 118Q598 166 598 190Q598 232 596 280Q519 269 439 269Q336 269 248 292Q27 350 27 518Q27 626 123 731Q210 827 333 855Q372 864 418 864Q516 864 607 820Q640 804 667 784Q719 823 798 849Q856 868 924 868Q1033 868 1126 811Q1181 776 1219 735Q1315 630 1315 522Q1315 354 1094 296M1146 523Q1146 596 1077 655Q1002 718 944 732Q918 738 896 738Q825 738 742 679Q743 659 742 642Q741 625 741 608L741 556Q741 482 745 404Q873 378 953 378Q1034 378 1085 409Q1146 447 1146 523M196 519Q196 443 257 405Q307 374 388 374Q470 374 596 400Q600 478 600 552L600 613Q600 640 602 678Q518 734 446 734Q389 734 334 703Q301 684 264 652Q196 593 196 519Z"  horiz-adv-x="1342" vert-adv-y="1024"  />

      
      <glyph glyph-name="unidb" unicode="&#xdb;" d="M236 886Q236 855 228 805Q222 765 216 725L204 638Q198 599 198 594Q340 640 493 640Q535 640 571 636Q810 610 810 427Q810 308 708 183Q614 68 485 19Q414-8 330-8Q251-8 186 18Q99 52 53 103Q29 128 29 153Q29 186 45 220Q47 387 50 554Q56 831 69 876Q74 893 117 911Q156 922 179 922Q236 922 236 886M633 406Q633 475 580 512Q548 534 492 534Q391 534 200 463Q196 381 196 301Q196 233 199 166Q264 127 324 127Q439 127 558 249Q633 326 633 406M1068 76Q1068 44 1032 22Q996 0 951 0Q902 0 895 77Q893 98 893 120Q893 130 894 150Q894 169 894 179Q894 286 887 473Q878 682 877 766Q877 793 879 829Q883 887 954 917Q974 925 997 925Q1067 925 1067 879Q1067 858 1061 785L1056 733Q1055 720 1053 700Q1045 612 1045 450Q1045 341 1054 221Q1055 216 1057 197L1062 154Q1068 92 1068 76Z"  horiz-adv-x="1096" vert-adv-y="1024"  />

      
      <glyph glyph-name="unidd" unicode="&#xdd;" d="M30 83Q33 136 73 154Q82 158 117 158Q141 158 173 157L236 154Q266 152 291 152Q317 151 329 152Q476 164 583 249Q613 273 657 321Q710 378 721 435L674 434Q655 433 647 431Q624 429 597 424L541 412Q507 403 440 384L346 359Q292 352 292 412Q292 440 308 467Q324 494 350 502Q397 518 535 537Q630 550 726 563Q719 644 618 697Q566 724 500 724Q424 724 297 683Q228 652 198 652Q155 652 145 698L147 732Q150 781 228 820Q389 900 532 900Q628 900 691 870Q787 824 836 748Q881 676 879 579L880 579Q927 579 927 519Q927 495 916 471Q904 444 884 437Q871 435 860 435Q848 364 792 272Q716 146 572 78Q440 15 290 15Q209 15 124 35Q95 41 66 47Q29 60 30 83Z"  horiz-adv-x="955" vert-adv-y="1024"  />

      
      <glyph glyph-name="unide" unicode="&#xde;" d="M1361 510Q1361 323 1202 174Q1055 37 849 37Q735 37 640 86Q541 137 483 231Q445 292 432 369Q428 369 420 369Q412 368 408 368Q386 368 343 370.50Q300 373 278 373Q225 373 192 359Q195 293 197 264Q201 210 208 169L210 158Q210 163 218 114Q224 71 224 60Q224 41 186 24Q153 8 123 8Q77 8 65 55Q61 72 60 98Q60 119 60 141Q53 234 39 420Q27 584 27 701L27 739Q27 768 68 790Q105 810 146 810Q201 810 201 772Q201 747 197 701Q197 694 196 687Q188 591 188 494Q206 493 223 493L256 493Q319 493 427 498Q445 640 582 769Q727 906 936 906Q1116 906 1236 792Q1361 674 1361 510M1166 451Q1166 589 1086 680Q1000 778 881 778Q762 778 675 679Q594 587 594 451Q594 314 675 224Q764 125 882 125Q997 125 1086 225Q1166 315 1166 451Z"  horiz-adv-x="1389" vert-adv-y="1024"  />

      
      <glyph glyph-name="unid5" unicode="&#xd5;" d="M656 737Q545 587 451 435Q524 341 594 265Q612 250 646 219Q685 182 685 155Q685 128 663 96Q635 56 602 56Q573 56 525 114Q522 117 474 182Q470 188 467 191Q437 226 419 251L375 309Q321 219 277 123L258 82Q243 50 233 29Q220 3 166 3Q134 3 106 14Q69 29 69 56Q69 66 280 435Q239 486 159 589Q97 670 43 750Q29 771 29 805Q29 892 103 892Q128 892 161 851Q177 824 210 771Q288 648 351 563Q397 639 429 694Q472 769 529 854Q550 886 606 886Q640 886 676.50 866Q713 846 713 821Q713 810 689 778Q672 758 656 737Z"  horiz-adv-x="738" vert-adv-y="1024"  />

      
      <glyph glyph-name="unid7" unicode="&#xd7;" d="M697 332Q697 328 706 213Q708 187 708 173L708 82Q708 60 666 43Q630 28 601 28Q588 28 570 34Q549 41 547 52Q542 69 542 115Q542 143 545 213Q548 275 547 311Q433 302 309 269Q271 259 214 243L150 226Q117 217 105 215Q75 211 51.50 232.50Q28 254 28 284Q28 283 33 308L27 527Q25 617 25 672Q25 731 26 738Q27 774 59 797Q91 820 128 820Q187 820 187 784Q187 747 181 676Q172 569 172 543L172 473Q172 421 174 377Q343 424 542 439Q543 540 544 614L544 735Q544 798 565.50 825.50Q587 853 646 853Q705 853 705 819Q705 827 700 760Q689 630 689 538L689 491Q689 461 692 411Q696 352 697 332Z"  horiz-adv-x="733" vert-adv-y="1024"  />

      
      <glyph glyph-name="unie8" unicode="&#xe8;" d="M732 83Q732 56 697.50 40Q663 24 627 24Q580 24 571 54Q563 76 563 164Q497 131 437 110Q191 24 122 24Q68 24 53 45Q44 57 44 100L44 152Q44 237 34.50 405.50Q25 574 25 658Q25 743 29 792Q32 825 73 846Q107 863 144 863Q166 863 185 856Q210 846 210 828Q210 808 205 770L200 738Q198 726 198 722Q184 613 184 457Q184 211 200 183Q227 183 371 239Q494 287 557 321L549 520Q546 604 546 656Q546 759 550 791Q554 823 590 844Q623 863 664 863Q685 863 705 856Q731 846 731 828Q731 798 720 711Q718 698 717 688Q706 549 706 467L706 414Q706 385 710 310Q712 271 720 189L722 175Q724 161 726 143L730 107Q732 89 732 83Z"  horiz-adv-x="758" vert-adv-y="1024"  />

      
      <glyph glyph-name="uniec" unicode="&#xec;" d="M1037 115Q1037 87 1004 56Q971 25 937 25Q912 25 875 116Q843 193 807 322L774 439Q757 498 742 548Q739 540 669 286Q603 47 581 6Q578-2 563.50-8.50Q549-15 539-15Q503-15 474 26Q450 60 450 92Q450 124 395 299Q360 407 325 514Q289 393 255 287L192 94Q186 74 170 33Q147-15 116-15Q82-15 53 27Q26 64 26 91Q26 101 43 140Q53 160 71 201Q93 258 143 406Q202 579 251 799Q264 858 327 858Q363 858 382 808Q388 782 401 732Q445 564 534 323Q619 574 678 862Q690 919 754 920Q787 921 816 844Q839 782 839 749Q919 425 988 239Q1004 210 1031 148Q1037 129 1037 115Z"  horiz-adv-x="1064" vert-adv-y="1024"  />

      
      <glyph glyph-name="unie0" unicode="&#xe0;" d="M819 123Q819 97 785.50 71Q752 45 715 45Q680 45 652 94Q640 121 614 176Q451 137 167 85Q153 51 148 42Q136 21 117 8Q104-1 86-1Q47-1 15 36Q-15 70-15 101Q-15 114 10 154Q24 176 52 221Q139 377 272 727Q277 740 313 840Q323 867 354 882Q381 895 412 895Q459 895 485 842Q495 821 506 787Q522 740 525 731Q633 445 753 242Q774 210 812 144Q819 129 819 123M232 233Q398 262 553 315Q496 456 403 666Q377 599 324 465L232 233Z"  horiz-adv-x="887" vert-adv-y="1024"  />

      
      <glyph glyph-name="unif0" unicode="&#xf0;" d="M550 332Q411 261 199 228Q199 221 203 196L220 89Q224 63 224 56Q224 34 186.50 16Q149-2 116-2Q71-2 64 18Q51 58 42 537Q25 563 25 593Q25 611 35 634Q114 753 240 823Q350 884 454 884Q585 884 672 811Q772 727 772 614Q772 445 550 332M601 583Q601 658 533.50 699.50Q466 741 398 741Q300 741 188 631Q185 563 185 501Q185 410 188 354Q461 366 546 457Q601 516 601 583Z"  horiz-adv-x="798" vert-adv-y="1024"  />

      
      <glyph glyph-name="unie6" unicode="&#xe6;" d="M1297 799L1279 781Q1213 715 1108 617Q1078 589 1057 568L1030 542Q964 480 835 354Q999 228 1187 144L1194 141Q1221 131 1272 106Q1282 99 1282 93Q1282 73 1231 52Q1186 33 1156 33Q1130 33 924 103Q816 140 749 187Q753 83 753 82Q753 57 722 40Q703 29 663 20Q608 27 591 54Q577 75 577 120L577 170Q577 180 578 188Q498 135 403 102Q203 33 172 33Q141 33 97 52Q47 72 45 93Q44 105 82 122Q101 128 139 144Q298 209 494 354Q452 395 401 444L289 548Q281 558 190 645Q146 684 103 722Q29 789 29 799Q30 821 62 832Q86 840 112 840Q153 840 183 823Q202 812 242 777Q360 673 594 507Q595 512 595 519L595 534Q595 564 592 617Q588 677 587 700Q585 708 583 760Q581 802 581 828Q581 863 645 863L686 863Q751 863 751 828L751 799Q751 802 746 720Q745 703 744 698Q737 565 737 508Q917 634 1084 777Q1157 840 1214 840Q1240 840 1264 832Q1297 821 1297 799Z"  horiz-adv-x="1328" vert-adv-y="1024"  />

      
      <glyph glyph-name="unie3" unicode="&#xe3;" d="M269 900Q309 903 352 903Q469 903 572 884Q635 871 653 866Q699 850 721 821Q740 794 740 772Q740 742 702 730Q674 721 640 724L374 744Q291 744 207 734Q179 549 179 357Q179 266 187 156Q189 139 192 104L195 68Q196 50 196 43Q196 2 127 2Q91 2 64 16Q30 34 28 66Q27 72 27 87L27 128Q27 281 34 495Q32 586 42 766Q52 858 119 877Q126 880 147 883Q187 890 269 900Z"  horiz-adv-x="768" vert-adv-y="1024"  />

      
      <glyph glyph-name="unid8" unicode="&#xd8;" d="M547 756L548 393Q548 288 551 177Q637 179 724 193L726 202Q742 274 742 406Q742 457 739 516Q742 544 742 596Q742 665 737 738Q734 784 759 804Q775 816 801 816Q833 816 860 803Q894 788 897 760Q901 725 901 675Q901 641 900 602Q900 593 898 562Q897 537 897 521Q897 486 899 415Q901 344 901 308Q901 158 892 133Q872 76 783 64Q736 57 665 56Q606 55 547 54Q522 12 457 12Q396 12 386 51Q360 50 318 51Q261 54 250 54Q228 54 190 54Q145 53 129 53Q77 53 54 67Q25 85 27 134Q28 165 28 180Q28 200 28 240Q27 280 27 300Q27 354 29 423Q31 472 35 580.50Q39 689 52 722Q60 744 104 773.50Q148 803 177 803Q235 803 225 734Q202 581 196 391Q195 358 195 328Q195 264 200 179Q272 172 337 172Q344 172 357 172Q369 173 376 173Q372 457 372 438Q372 619 383 735Q387 777 426 829Q459 847 483 847Q547 847 547 756Z"  horiz-adv-x="927" vert-adv-y="1024"  />

      
      <glyph glyph-name="unidf" unicode="&#xdf;" d="M152 43Q152 59 181 76Q202 89 223 98Q297 141 401 225Q437 254 476 286Q446 284 417 284Q290 284 202 314Q27 374 27 523Q27 644 135 763Q228 865 369 908Q432 927 491 927Q659 927 800 796Q832 766 832 745Q832 726 814 693Q798 664 774 651Q774 616 766 368L764 303Q762 225 758 167Q757 149 756 131Q752 109 741 100Q721 83 684 77Q667 74 649 74Q585 74 585 111Q584 120 590 151L600 209Q520 149 440 103Q368 61 347 50Q294 21 250 7Q219-3 197-3Q152-3 152 43M196 540Q196 464 248 426Q294 392 372 392Q456 392 622 434Q627 539 627 596Q627 662 623 730Q546 784 475 784Q445 784 409 774Q342 756 267 685Q196 618 196 540Z"  horiz-adv-x="858" vert-adv-y="1024"  />

      
      <glyph glyph-name="uni21" unicode="&#x21;" d="M143 331Q70 331 70 367Q70 371 88 457Q96 498 113 581L137 705Q169 861 204 941Q219 976 306 976Q336 976 372 968Q424 958 424 939Q402 887 354 785Q311 702 278 621Q217 470 212 389Q208 331 143 331M85 43Q65 43 47 50Q23 60 23 78Q23 145 30 208Q32 223 71 231Q99 237 123 237Q197 237 197 215Q197 211 183 146Q178 120 165 75Q156 43 85 43Z"  horiz-adv-x="448" vert-adv-y="1024"  />

      
      <glyph glyph-name="uni22" unicode="&#x22;" d="M384 936Q384 771 370 642Q365 592 293 592Q226 592 226 660Q226 670 227 689Q228 708 228 718Q228 731 227 759L223 876Q222 903 222 918Q222 946 255 964Q282 979 313 979Q338 979 358 970Q384 958 384 936M188 916Q188 755 174 623Q169 572 96 572Q31 572 31 631Q31 642 32.50 664.50Q34 687 34 698Q34 713 33 741L27 856Q25 884 25 898Q25 926 59 944Q87 959 118 959Q188 959 188 916Z"  horiz-adv-x="410" vert-adv-y="1024"  />

      
      <glyph glyph-name="uni23" unicode="&#x23;" d="M735 323Q735 299 686 288Q651 284 616 280Q624 232 637 93L637 88Q637 66 599 49Q565 34 531 34Q480 34 471 95Q468 112 465 255Q409 248 296 233Q296 236 303 141Q309 60 309 58Q309 38 274.50 21.50Q240 5 207 5Q143 5 143 52Q143 133 147 217Q137 216 131 216L121 216Q83 216 54 243.50Q25 271 25 309Q25 345 109 345Q116 345 131 345Q146 344 153 344L155 403Q156 432 158 462Q142 460 128 460Q86 460 55.50 486.50Q25 513 25 554Q25 589 109 589Q118 589 137 589Q155 588 164 588Q166 652 178 811Q181 846 218 863Q247 877 286 877Q304 877 320 870Q342 861 341 846L341 841L336 788Q333 753 327 714L317 645Q313 616 311 596Q402 603 454 614L453 784Q452 873 579 873Q598 873 615 866Q636 856 636 839Q636 823 630 755L625 703Q622 677 620 660Q636 665 648 665Q679 665 706.50 634Q734 603 734 571Q734 544 699 535Q682 530 660 528L612 522Q611 506 611 486L611 414Q645 422 652 422Q683 422 712 383Q735 352 735 323M296 349Q391 357 460 372L457 457Q456 487 456 498Q401 488 301 479Q296 409 296 349Z"  horiz-adv-x="761" vert-adv-y="1024"  />

      
      <glyph glyph-name="uni24" unicode="&#x24;" d="M791 425Q791 409 784 383Q755 276 677 188Q602 104 498 54Q498 55 503 25Q506 2 506-7Q506-31 471-54.50Q436-78 398-78Q360-78 348-58Q340-44 340-3Q288-13 244-13Q175-13 138 11Q77 59 51 108Q41 125 41 136Q41 157 61 187Q84 222 109 222Q132 222 149 203Q224 118 336 120Q333 186 331 257L327 406Q224 411 120 419Q62 423 41 452Q25 473 25 518Q25 562 66 621Q172 776 322 842L322 868Q322 873 322 882Q321 891 321 895Q321 947 357 978Q392 1006 445 1006Q504 1006 504 940Q504 918 499 890Q549 895 563 895Q644 895 644 844Q644 825 654 779L660 748Q663 734 663 728Q661 707 625 680.50Q589 654 561 654Q513 654 498 738L487 738Q481 638 479 549Q546 543 679 526Q735 515 736 515Q770 505 780.50 482Q791 459 791 425M283 557Q290 557 303 557Q316 558 323 558L323 631Q323 641 323 660Q322 679 322 689Q290 669 255 635Q210 591 210 564Q210 558 211.50 557.50Q213 557 223 557L283 557M603 328Q603 363 556 377Q549 379 479 389Q479 289 488 159Q523 180 558 218Q603 266 603 328Z"  horiz-adv-x="816" vert-adv-y="1024"  />

      
      <glyph glyph-name="uni25" unicode="&#x25;" d="M481 62Q393 62 341 103Q291-12 218-12Q192-12 162 0Q124 15 124 37Q124 50 344 388Q272 370 213 370Q134 370 88 396Q26 431 26 499Q26 598 142 745Q241 871 377 871Q477 871 550 780Q566 760 579 739Q632 833 696 875Q721 891 747 891Q779 891 812 874Q850 854 850 834Q850 819 816 780Q793 754 770 728Q694 635 643 565L649 565Q722 565 771 523Q885 424 885 337Q885 319 878 296Q847 193 717 123Q604 62 481 62M459 598Q459 648 435 691Q407 742 361 742Q316 742 250 686Q188 634 188 574Q188 507 277 487Q301 481 323 481Q378 481 418.50 508.50Q459 536 459 598M633 437Q596 437 550 403Q456 333 456 273Q456 240 484 214Q508 192 543 183Q566 177 586 177Q635 177 684.50 203Q734 229 734 287Q734 328 719 365Q701 407 670 427Q652 437 633 437Z"  horiz-adv-x="911" vert-adv-y="1024"  />

      
      <glyph glyph-name="uni26" unicode="&#x26;" d="M648-95Q590-95 590-61Q590-31 598 25Q500-16 391-16Q260-16 158 39Q25 111 25 221Q25 307 105 387Q153 435 255 485Q166 542 166 634Q166 718 278 840Q344 912 451 912Q568 912 636 834Q689 774 689 745Q689 722 675 704.50Q661 687 639 687Q612 687 549 725.50Q486 764 472 764Q432 764 398.50 738.50Q365 713 349 675Q337 648 337 617Q337 568 350 557Q363 546 414 542Q459 539 492 519Q534 495 534 455Q534 408 459 396Q420 394 343 386Q252 374 221 285Q213 262 213 240Q213 167 273 129Q333 91 398 91Q484 91 608 159L609 186Q611 227 596 324Q591 354 585 383Q578 422 578 442L578 450Q578 468 614 486Q643 500 684 500Q732 500 740 474Q754 387 754 175L754 137L753-24Q753-48 721.50-71.50Q690-95 648-95Z"  horiz-adv-x="779" vert-adv-y="1024"  />

      
      <glyph glyph-name="uni27" unicode="&#x27;" d="M101 625Q76 625 53 637Q25 651 25 674Q25 696 51 754Q70 796 88 837Q103 879 137 950Q160 985 206 985Q233 985 262 971Q296 955 296 930Q297 927 265 860Q251 831 234 798L202 735Q188 707 159 653Q142 625 101 625Z"  horiz-adv-x="322" vert-adv-y="1024"  />

      
      <glyph glyph-name="uni28" unicode="&#x28;" d="M177 361Q177 181 429 98Q456 92 510 77Q570 55 570 13Q570-11 553-39Q534-71 502-69Q486-68 477-63L380-19Q358-9 282 30Q170 87 108 166Q24 273 24 380Q24 523 163 685Q309 855 432 925Q453 937 479 937Q507 937 541 918Q579 897 579 871Q579 857 527 820Q501 804 453 770Q177 561 177 361Z"  horiz-adv-x="603" vert-adv-y="1024"  />

      
      <glyph glyph-name="uni29" unicode="&#x29;" d="M122-70Q94-70 61-51Q24-29 24-3Q24 15 75 49Q100 66 150 97Q423 309 423 506Q423 683 172 769Q145 774 93 790Q32 813 32 854Q32 881 49 908Q68 939 100 937Q114 936 125 931L322 839Q506 737 560 593Q579 540 579 486Q579 344 439.50 183.50Q300 23 170-56Q147-70 122-70Z"  horiz-adv-x="603" vert-adv-y="1024"  />

      
      <glyph glyph-name="uni2a" unicode="&#x2a;" d="M427 872Q427 865 322 777Q343 764 365 751Q389 735 403 718Q412 707 412 694Q412 673 396 655.50Q380 638 359 638Q344 638 284 686L284 624Q284 601 256 585Q232 571 207 571Q193 571 179 577Q161 584 161 597Q161 607 164 654Q134 634 113 634Q92 634 67 649Q38 665 38 684Q38 693 90 727Q126 750 166 773Q134 787 102 800Q64 817 42 835Q26 848 26 860Q26 877 39 898Q55 924 80 924Q87 924 112 910L162 882Q156 913 154 930L151 947Q151 964 182 976Q208 986 232 986Q267 986 277 946Q280 932 281 878Q327 927 350 926Q369 925 396 908Q427 890 427 872Z"  horiz-adv-x="454" vert-adv-y="1024"  />

      
      <glyph glyph-name="uni2b" unicode="&#x2b;" d="M652 439Q652 408 581 395Q574 393 402 374Q402 373 427 284L442 231Q448 207 446 204Q444 179 407.50 159.50Q371 140 340 140Q296 140 278 212Q273 232 259 358Q138 347 114 347Q50 347 31 410Q26 426 26 440Q26 532 46 532Q52 532 102 503Q156 472 201 472L226 472Q237 472 247 473L235 597Q230 644 230 663Q230 695 267 717Q300 736 340 736Q372 736 381 723Q387 713 387 678Q387 662 387 630Q386 597 386 581L386 531Q386 508 388 487Q406 492 435 500L493 515Q559 532 574 532Q604 532 628 501.50Q652 471 652 439Z"  horiz-adv-x="678" vert-adv-y="1024"  />

      
      <glyph glyph-name="uni2c" unicode="&#x2c;" d="M101-155Q78-155 54-142Q25-127 25-106Q25-83 51-26Q87 53 88 56Q98 85 109 115Q123 151 136 171Q158 205 207 205Q233 205 262 191Q297 174 297 151Q298 146 266 81Q238 24 202-44L174-97Q160-122 159-124Q151-136 138-145Q122-155 101-155Z"  horiz-adv-x="323" vert-adv-y="1024"  />

      
      <glyph glyph-name="uni2d" unicode="&#x2d;" d="M125 324Q90 324 63 348.50Q36 373 36 407Q36 438 77 444Q105 444 151 447Q209 450 224.50 450.50Q240 451 260 452Q318 454 356 464L386 472Q450 490 512 511Q540 520 536 522Q564 522 590 505Q616 488 627 462Q634 446 634 433Q634 408 611 398Q602 394 480 375L370 358Q311 348 260 341L171 329Q133 324 125 324Z"  horiz-adv-x="677" vert-adv-y="1024"  />

      
      <glyph glyph-name="uni2010" unicode="&#x2010;" d="M125 324Q90 324 63 348.50Q36 373 36 407Q36 438 77 444Q105 444 151 447Q209 450 224.50 450.50Q240 451 260 452Q318 454 356 464L386 472Q450 490 512 511Q540 520 536 522Q564 522 590 505Q616 488 627 462Q634 446 634 433Q634 408 611 398Q602 394 480 375L370 358Q311 348 260 341L171 329Q133 324 125 324Z"  horiz-adv-x="677" vert-adv-y="1024"  />

      
      <glyph glyph-name="uni2e" unicode="&#x2e;" d="M193 183Q193 176 179 115Q173 88 161 45Q154 13 87 13Q67 13 49 20Q25 30 25 48Q25 88 33 178Q36 209 122 209Q193 209 193 183Z"  horiz-adv-x="219" vert-adv-y="1024"  />

      
      <glyph glyph-name="uni2f" unicode="&#x2f;" d="M127-3Q96-3 63 11Q25 26 25 45Q25 64 57 110L86 151Q95 164 112 189L273 442Q320 516 370 588L475 741Q493 771 534 830Q593 900 650 900Q705 900 742 864Q752 853 752 842Q752 831 700 768Q674 738 624 677Q407 409 260 151Q238 110 192 28Q174-3 127-3Z"  horiz-adv-x="777" vert-adv-y="1024"  />

      
      <glyph glyph-name="uni30" unicode="&#x30;" d="M1005 489Q1005 290 839 136Q684-7 468-7Q281-7 153 113.50Q25 234 25 408Q25 606 189 760Q343 905 560 905Q744 905 874 785Q1005 662 1005 489M811 441Q811 584 726 681Q635 785 510 785Q386 785 293 680Q208 584 208 441Q208 299 293 204Q387 99 511 99Q633 99 726 205Q811 302 811 441Z"  horiz-adv-x="1032" vert-adv-y="1024"  />

      
      <glyph glyph-name="uni31" unicode="&#x31;" d="M338 80Q338 55 297 40Q256 25 226 25Q184 25 172 81Q166 106 165 137L163 195L154 665Q108 644 94 644Q68 644 43 674Q22 699 22 721Q22 750 66 774Q77 779 161 814Q231 843 256 843Q274 843 291 836Q313 828 313 812Q313 805 312 787L309 748Q307 725 303 690Q299 604 299 521Q299 338 322 177Q322 177 330 134Q338 91 338 80Z"  horiz-adv-x="363" vert-adv-y="1024"  />

      
      <glyph glyph-name="uni32" unicode="&#x32;" d="M796 519Q796 380 680 223Q762 162 762 145Q762 133 733 118.50Q704 104 681 104Q655 104 604 135Q434-39 295-39Q172-39 98.50 53.50Q25 146 25 252Q25 338 79 386Q130 433 217 433Q354 433 553 313Q636 438 636 542Q636 640 587 699Q534 763 439 763Q368 763 295 724Q265 702 213 664Q133 609 100 609Q81 609 65 617Q46 627 46 644Q46 669 102 742Q231 911 422 911Q590 911 693 792Q796 673 796 519M243 311Q175 311 175 195Q175 146 187 127Q202 102 247 102Q338 102 434 178Q460 199 460 213Q460 226 371 268.50Q282 311 243 311Z"  horiz-adv-x="821" vert-adv-y="1024"  />

      
      <glyph glyph-name="uni33" unicode="&#x33;" d="M735 311Q735 175 561 70Q407-23 254-23Q217-23 157.50-12Q98-1 73 11Q25 33 25 75Q25 136 77 136Q94 136 122 125Q208 91 285 91Q343 91 395 113Q547 177 547 295Q547 347 517 377Q487 407 435 407Q430 407 364 398Q305 390 288 390Q226 390 226 434Q226 474 265 507Q297 533 341 546Q389 559 405.50 578.50Q422 598 422 644Q422 690 390.50 724.50Q359 759 314 759Q282 759 244 732Q225 714 190 683Q137 638 117 639Q71 640 71 689Q71 727 123 787Q172 843 226 876Q288 914 358 914Q430 914 480 871Q593 773 593 688Q593 601 506 522Q672 470 716 389Q735 353 735 311Z"  horiz-adv-x="761" vert-adv-y="1024"  />

      
      <glyph glyph-name="uni34" unicode="&#x34;" d="M794 374Q794 347 733 337Q707 332 678 330L628 325Q630 289 640 233Q653 158 655 142Q659 112 661 90L661 84Q661 62 619 45Q583 30 554 30Q541 30 523 36Q502 43 500 54Q490 93 488 171Q487 216 485 307Q377 289 310 269.50Q243 250 154 226Q117 216 107 215Q76 211 52.50 232Q29 253 29 284Q29 296 34 308L28 527Q26 617 26 672Q26 731 27 738Q28 774 61 798Q91 820 128 820Q188 820 188 784Q188 747 182 676Q173 569 173 543L173 424Q173 399 175 377Q349 425 481 437Q474 612 474 732Q474 791 491 815Q515 849 577 849Q596 849 613 842Q635 832 635 816Q635 809 634 792L631 756Q629 737 626 701L623 617Q621 575 621 535Q621 491 623 445Q647 447 671 447Q706 447 750 423Q794 399 794 374Z"  horiz-adv-x="820" vert-adv-y="1024"  />

      
      <glyph glyph-name="uni35" unicode="&#x35;" d="M576 782Q360 761 246 722L285 544Q511 530 595 424Q658 345 658 266Q658 191 594 117Q540 54 458 19Q395-8 299-8Q173-8 84 34Q25 62 25 118Q25 155 65 155Q81 155 112 143Q197 110 287 110Q358 110 425.50 152.50Q493 195 493 276Q493 346 443 386Q393 426 338 426Q324 426 272 416.50Q220 407 206 407Q164 407 143 430Q125 448 114 492L54 725Q46 756 46 760Q46 800 96 821Q276 898 504 898L534 898Q547 898 554 897Q588 892 620 869Q655 843 655 821Q655 790 576 782Z"  horiz-adv-x="687" vert-adv-y="1024"  />

      
      <glyph glyph-name="uni36" unicode="&#x36;" d="M836 360Q836 276 733 174Q652 94 550 49Q457 8 365 8Q205 8 112 140Q26 262 26 412Q26 618 198 768Q320 874 540 874Q573 874 594 868Q620 856 652 780Q665 742 693 679L695 671Q695 651 663.50 627.50Q632 604 601 604Q573 604 543 648Q522 679 508 714Q282 667 201 503Q173 446 171 378Q465 480 637 480Q715 480 766 458Q836 428 836 360M684 314Q685 349 613 349Q518 349 204 239Q260 152 375 152Q435 152 513 182Q573 205 619 234Q683 274 684 314Z"  horiz-adv-x="862" vert-adv-y="1024"  />

      
      <glyph glyph-name="uni37" unicode="&#x37;" d="M387 30Q361 30 332 40Q294 53 294 74Q294 113 568 715Q545 716 524 716L479 716Q341 716 190 692L193 693L171 688Q151 684 117 678Q105 676 100 676Q70 676 47.50 695.50Q25 715 25 744Q25 797 85 815Q194 847 394 847Q587 847 664 825Q692 817 721 792Q755 763 755 746Q755 737 742 723Q575 455 487 161Q478 128 459 63Q449 30 387 30M190 692L186 691Q187 691 188 691Q189 692 190 692Z"  horiz-adv-x="780" vert-adv-y="1024"  />

      
      <glyph glyph-name="uni38" unicode="&#x38;" d="M812 268Q812 124 609 26Q448-52 279-52Q179-52 114-24Q25 15 25 102Q25 183 91 284Q132 347 213 426Q162 438 128 472Q90 509 90 558Q90 641 210 795Q307 920 446 920Q517 920 566 878Q679 781 679 694Q679 603 592 528Q677 498 736 430Q812 341 812 268M528 645Q528 737 465 782Q450 792 430 792Q378 792 320 738Q257 680 257 622Q257 532 389 532Q438 532 483 558.50Q528 585 528 645M467 404Q373 402 289 332Q230 282 210 241Q197 216 197 191Q197 128 272 102Q337 79 406 79Q488 79 549 109Q620 144 620 223Q620 292 578 346Q533 405 467 404Z"  horiz-adv-x="838" vert-adv-y="1024"  />

      
      <glyph glyph-name="uni39" unicode="&#x39;" d="M786 300Q786 289 795 175L801 103Q803 68 803 51Q803 29 762 9Q727-9 692-9Q644-9 638 18Q633 39 627.50 158Q622 277 622 369Q466 285 275 285Q170 285 111 317Q25 363 25 454Q25 553 185 733Q240 794 327.50 838Q415 882 502 882Q596 882 663 831Q813 716 813 603Q813 582 808 553Q786 425 786 300M467 743Q401 743 336 701Q241 640 211 580Q198 555 198 529Q198 469 274 441Q341 416 408 416Q490 416 551 447Q622 483 622 562Q622 632 580 685Q534 743 467 743Z"  horiz-adv-x="839" vert-adv-y="1024"  />

      
      <glyph glyph-name="uni3a" unicode="&#x3a;" d="M115 342Q51 342 51 377Q51 421 59 512Q60 528 99 537Q125 543 150 543Q169 543 192 538Q224 532 224 519Q224 517 210 447Q205 421 193 374Q181 342 115 342M196 189Q196 190 181 118Q176 91 163 46Q154 13 87 13Q65 13 47 20Q23 30 23 49Q23 90 31 183Q34 215 123 215Q196 215 196 189Z"  horiz-adv-x="247" vert-adv-y="1024"  />

      
      <glyph glyph-name="uni3b" unicode="&#x3b;" d="M161 341Q140 341 121 348Q97 358 97 376Q97 434 105 511Q107 528 145 537Q170 543 196 543Q216 543 238 538Q270 532 270 519Q270 515 266 493L256 446Q250 414 239 373Q230 341 161 341M100-155Q78-155 52-142Q23-126 23-106Q23-81 49-24Q87 57 88 59L114 129Q135 187 164 202Q180 210 207 210Q232 210 263 196Q299 179 299 156Q299 147 238 24Q212-28 159-125Q141-155 100-155Z"  horiz-adv-x="323" vert-adv-y="1024"  />

      
      <glyph glyph-name="uni3c" unicode="&#x3c;" d="M653 783Q395 606 221 421Q374 321 645 133Q673 115 701 96Q733 74 752 53Q767 35 767 17Q767-5 750-33Q728-66 701-67Q682-68 633-28Q609-7 561 33Q340 212 147 311Q120 323 92 336Q60 351 41 367Q25 380 25 395Q25 418 40 447Q57 482 83 489Q141 541 254 632L527 852Q548 870 588 903Q642 946 677 946Q707 946 741.50 920.50Q776 895 776 877Q776 863 721 826Q698 812 653 783Z"  horiz-adv-x="802" vert-adv-y="1024"  />

      
      <glyph glyph-name="uni3d" unicode="&#x3d;" d="M119 461Q83 461 56 485.50Q29 510 29 546Q29 576 81 587Q86 586 107 587Q172 588 224 591Q240 592 263 593Q279 594 355 604Q369 606 395 614L470 638Q557 665 570 665Q600 665 621.50 637.50Q643 610 643 579Q643 548 620.50 540.50Q598 533 484 515L371 496Q279 481 166 466Q128 461 119 461M174 242Q140 242 111.50 267.50Q83 293 83 327Q83 356 125 365Q114 365 215 370L278 373Q307 374 315 374Q334 374 365 378Q405 383 414 384L442 392Q503 409 625 445Q655 447 680.50 415Q706 383 706 352Q706 334 675 319Q666 315 540 295L427 277Q328 261 222 247Q183 242 174 242Z"  horiz-adv-x="735" vert-adv-y="1024"  />

      
      <glyph glyph-name="uni3e" unicode="&#x3e;" d="M775 395Q775 371 736 351Q708 338 653 311Q440 198 239 32Q204 1 129-56Q110-67 98-67Q69-66 49-31Q33-3 33 17Q33 50 60 70Q92 91 156 133L400 300Q505 372 580 421Q388 624 140 787Q115 801 79 823Q25 857 25 876Q25 898 57.50 921Q90 944 124 944Q165 944 203 914Q236 885 269 856L415 740Q447 714 495 675Q630 565 716 488Q742 483 761 448Q775 419 775 395Z"  horiz-adv-x="801" vert-adv-y="1024"  />

      
      <glyph glyph-name="uni3f" unicode="&#x3f;" d="M722 578Q594 451 249 424Q247 405 234 370Q216 344 165 344Q93 344 93 375Q93 435 101 507Q105 539 159 539Q173 539 201.50 538Q230 537 244 537Q455 537 526 602Q578 650 578 699Q578 776 495 818Q420 856 344 856Q288 856 230 828Q196 811 130 766Q84 734 62 734Q25 734 25 773Q25 820 61 851Q166 942 324 970Q374 979 421 979Q553 979 659 911Q789 827 789 713Q789 644 722 578M227 198Q218 166 201 104Q196 86 195 81Q180 57 119 57Q99 57 80 63Q53 72 53 88Q53 95 53 108Q52 121 52 128Q52 171 69 191Q93 218 153 218Q227 218 227 198Z"  horiz-adv-x="814" vert-adv-y="1024"  />

      
      <glyph glyph-name="uni40" unicode="&#x40;" d="M975 516Q975 386 899 258Q841 161 758 89Q669 12 569-20Q499-42 430-42Q310-42 207.50 25Q105 92 57 201Q26 272 26 351Q26 478 102 610Q174 736 301 825Q424 911 568 911Q737 911 856 792Q975 673 975 516M798 451Q798 583 727 679Q648 786 535 786Q461 786 378 737Q194 628 194 404Q194 270 263 177Q344 68 455 68Q526 68 610 118Q798 230 798 451M718 375Q718 272 635 206Q564 150 446 150Q373 150 330 177Q269 215 269 271Q269 362 350 445Q435 532 537 532Q564 532 590 528Q586 557 576 568.50Q566 580 540 580Q535 580 456 569Q384 558 376 558Q350 558 326.50 577.50Q303 597 303 622Q303 656 408 673Q486 686 555 686Q627 686 651 668Q690 639 708 533Q718 471 718 375M531 433Q503 433 447 393Q388 349 388 314Q388 271 443 258Q457 254 469 254Q512 254 548 282.50Q584 311 584 352Q584 374 568 403.50Q552 433 531 433Z"  horiz-adv-x="1001" vert-adv-y="1024"  />

      
      <glyph glyph-name="uni41" unicode="&#x41;" d="M860 108Q860 82 826.50 56Q793 30 756 30Q720 30 692 78Q690 81 654 162Q515 127 208 71Q190 14 158-8Q144-17 126-17Q92-17 59 17Q26 51 26 86Q26 100 51 140Q65 162 93 207Q153 312 213 459Q239 522 313 719Q323 745 354 833Q374 889 453 889Q499 889 526 836Q537 815 548 780Q563 732 566 723Q675 432 794 228Q815 196 853 129Q860 114 860 108M273 219Q434 245 594 302Q536 445 444 655Q427 613 408 563L307 303Q284 245 273 219Z"  horiz-adv-x="887" vert-adv-y="1024"  />

      
      <glyph glyph-name="uni42" unicode="&#x42;" d="M302 2Q196 2 152 10Q103 19 92 122Q86 177 84 271L79 506Q52 510 38 536Q25 558 25 587Q25 616 45 645Q65 669 85 693Q156 781 241 831Q330 883 445 883Q582 883 662 819Q754 745 754 625Q754 506 590 406Q666 383 719 340Q798 276 798 211Q798 106 601 40Q487 2 302 2M614 613Q614 678 552.50 710.50Q491 743 430 743Q331 743 225 635Q223 569 223 510L223 463Q223 439 224 416Q479 426 562 507Q614 558 614 613M405 312Q307 312 232 257L240 196Q243 166 247 138Q347 132 422 132Q574 132 622 161Q655 181 655 209Q655 255 558 287Q481 312 405 312Z"  horiz-adv-x="823" vert-adv-y="1024"  />

      
      <glyph glyph-name="uni43" unicode="&#x43;" d="M819 257Q819 240 783 211Q758 192 733 174Q509 7 302 7Q164 7 93 96Q26 180 26 305Q26 546 221 719Q407 884 663 884Q748 884 748 833L748 800Q748 782 768 704Q771 690 771 685Q771 666 730 641Q684 613 658 613Q630 613 612 656Q604 673 600 692L592 722Q380 684 268 553Q165 433 165 321Q165 235 223 193Q281 151 359 151Q429 151 524 193Q524 193 651 259Q758 314 776 314Q819 314 819 257Z"  horiz-adv-x="846" vert-adv-y="1024"  />

      
      <glyph glyph-name="uni44" unicode="&#x44;" d="M110 3Q67 2 57 115Q51 177 49 282L44 543Q26 569 26 599Q26 627 51 658Q60 670 96 706Q168 777 272 827.50Q376 878 483 878Q594 878 686.50 818Q779 758 824 657Q852 592 852 520Q852 331 657 190Q501 77 284 39Q238 28 147 8Q122 3 110 3M186 489Q186 308 211 152Q295 161 367 182Q451 207 505 234Q585 275 632 342Q675 404 675 486Q675 564 634.50 626.50Q594 689 523 719Q478 738 430 738Q309 738 190 627Q186 555 186 489Z"  horiz-adv-x="879" vert-adv-y="1024"  />

      
      <glyph glyph-name="uni45" unicode="&#x45;" d="M704 477Q405 447 209 384Q213 257 231 140Q295 140 432 164Q447 167 643 213Q660 217 681 217Q740 217 740 178Q740 152 720.50 126Q701 100 677 88Q581 40 452 14Q333-10 217-10Q167-10 154-8Q87 2 75 94Q68 146 68 227Q67 352 67 360Q25 381 25 426Q25 469 69 487Q63 525 61 608Q60 646 60 681L59 726Q59 761 67 777Q77 799 105 811Q121 818 150 827L275 868Q341 889 422 889Q525 889 557 882Q586 876 616 847Q646 818 646 790Q646 746 570 741Q429 732 381 723Q320 712 211 667Q206 584 206 530Q429 591 640 591Q681 591 728 576Q791 554 791 517Q791 486 704 477Z"  horiz-adv-x="816" vert-adv-y="1024"  />

      
      <glyph glyph-name="uni46" unicode="&#x46;" d="M659 474Q393 446 208 385Q210 319 224 225Q226 214 238 127Q245 71 245 62L245 59Q247 39 206 20Q172 4 138 4Q89 4 83 29Q72 72 69 190Q68 273 67 356Q25 374 25 425Q25 468 64 484Q58 630 58 697L58 752Q64 784 92 801Q107 811 150 824Q216 846 283 866.50Q350 887 421 886Q470 887 557 879Q587 872 615 846Q645 817 645 787Q645 743 569 738Q429 729 380 720Q327 711 210 665Q206 595 206 531Q403 588 600 588Q639 588 683 573Q741 552 741 514Q741 483 659 474Z"  horiz-adv-x="766" vert-adv-y="1024"  />

      
      <glyph glyph-name="uni47" unicode="&#x47;" d="M311 0Q249 0 192 22Q129 46 94 90Q26 175 26 307Q26 543 223 716Q409 879 663 879Q718 879 733 863.50Q748 848 748 800Q748 779 760 733L768 701Q771 686 771 681Q771 661 729 634.50Q687 608 659 608Q632 608 612 649Q599 675 590 718Q409 682 295 574Q239 521 204 456Q163 382 163 315Q163 237 214 194Q269 147 334 147Q418 147 543 197.50Q668 248 736 312Q756 331 756 349Q756 371 732 378Q721 381 689 381Q552 381 312 323Q283 316 268 316Q223 316 223 350Q223 375 251 413Q276 446 305 459Q344 476 470 490Q583 503 656 503Q746 503 810 487Q915 461 915 397Q915 321 771 204Q519 0 311 0Z"  horiz-adv-x="942" vert-adv-y="1024"  />

      
      <glyph glyph-name="uni48" unicode="&#x48;" d="M712 102Q712 79 675 60Q642 42 608 42Q559 42 548 78Q545 87 542 161Q541 184 541 206L541 253Q541 258 533 450Q357 424 195 367Q198 276 212 167L214 151Q214 152 222 107Q230 62 230 52Q230 35 190 15Q157-2 124-2Q77-2 65 47Q61 64 61 91Q60 130 60 136Q52 234 37 431Q25 603 25 726L25 765Q25 794 63 816.50Q101 839 141 839Q164 839 182 830Q205 820 205 799Q205 793 204 779L202 751Q192 611 192 514Q357 565 529 577Q529 645 529 681L528 721L528 792Q528 883 651 883Q671 883 688 876Q711 866 711 849Q711 827 700.50 730.50Q690 634 688 574Q734 562 759 526Q767 514 767 505Q767 472 686 468L686 421Q686 313 699 200Q699 204 707 155Q712 118 712 102Z"  horiz-adv-x="793" vert-adv-y="1024"  />

      
      <glyph glyph-name="uni49" unicode="&#x49;" d="M602 793Q602 755 526 746Q470 743 359 736Q351 622 351 514Q351 323 377 155Q395 160 422 166L474 178Q539 193 549 193Q566 193 580 186Q599 178 599 163Q599 136 569 103Q557 90 542 81Q475 42 350 18Q245-2 150-2Q98-2 71 6Q27 24 27 74Q27 130 90 130Q101 130 122.50 129Q144 128 155 128Q191 128 223 130Q209 289 205 690Q181 679 168 674Q117 653 95 653Q62 653 42 684Q24 711 24 745Q24 799 73 824Q219 898 389 898Q472 898 504 889Q540 879 568 855Q602 826 602 793Z"  horiz-adv-x="627" vert-adv-y="1024"  />

      
      <glyph glyph-name="uni4a" unicode="&#x4a;" d="M842 643Q842 466 791 292Q756 172 651 93.50Q546 15 415 15Q302 15 203 84Q104 153 62 259Q50 291 38 343Q27 392 27 425L27 434Q27 496 110 496Q168 496 177 427Q195 284 262 225Q345 152 435 152Q512 152 577 197Q642 242 655 323Q669 374 669 479Q669 667 640 738Q634 749 609 749Q591 749 566 745L512 735Q477 728 410 720Q368 719 368 755Q368 834 432 856Q516 885 671 885Q715 885 738 882Q815 872 827 811Q842 736 842 643Z"  horiz-adv-x="868" vert-adv-y="1024"  />

      
      <glyph glyph-name="uni4b" unicode="&#x4b;" d="M743 801L725 783Q692 749 554 618L475 542Q355 428 279 354Q447 228 631 144Q661 133 716 106Q726 99 726 93Q726 72 675 52Q629 33 600 33Q576 33 369 103Q264 138 195 186Q208 101 208 83Q208 57 174 40Q140 23 104 23Q64 23 51 49Q41 69 41 111Q41 125 42 139Q42 145 41 163Q25 541 25 742L25 772Q25 803 39 820Q59 846 102 858Q122 863 142 863Q163 863 182 856Q207 846 207 828Q207 794 197 718Q194 703 194 697Q185 618 182 471Q358 630 528 777Q601 840 659 840Q685 840 709 832Q743 822 743 801Z"  horiz-adv-x="769" vert-adv-y="1024"  />

      
      <glyph glyph-name="uni4c" unicode="&#x4c;" d="M187 16Q133 16 121 18Q55 29 42 119Q34 169 33 247Q33 312 32 376Q25 577 25 725L25 762Q25 776 26 781Q27 814 62 836Q93 856 128 856Q187 856 187 822Q187 836 180 731Q180 723 179 713Q171 607 171 520Q171 321 198 169Q288 169 371 184Q379 187 607 240Q629 245 646 245Q668 245 685 236Q707 226 707 206Q707 178 682 148Q666 129 644 117Q558 71 421 44Q277 16 187 16Z"  horiz-adv-x="732" vert-adv-y="1024"  />

      
      <glyph glyph-name="uni4d" unicode="&#x4d;" d="M1037 115Q1037 87 1004 56Q971 25 937 25Q912 25 875 116Q843 193 807 322L774 439Q757 498 742 548Q739 540 669 286Q603 47 581 6Q578-2 563.50-8.50Q549-15 539-15Q503-15 474 26Q450 60 450 92Q450 124 395 299Q360 407 325 514Q289 393 255 287L192 94Q186 74 170 33Q147-15 116-15Q82-15 53 27Q26 64 26 91Q26 101 43 140Q53 160 71 201Q93 258 143 406Q202 579 251 799Q264 858 327 858Q363 858 382 808Q388 782 401 732Q445 564 534 323Q619 574 678 862Q690 919 754 920Q787 921 816 844Q839 782 839 749Q919 425 988 239Q1004 210 1031 148Q1037 129 1037 115Z"  horiz-adv-x="1064" vert-adv-y="1024"  />

      
      <glyph glyph-name="uni4e" unicode="&#x4e;" d="M758 314Q758 245 761 181Q763 165 766 135L769 104Q770 89 770 82Q770 56 732 40Q700 27 659 27Q643 27 626 33Q605 41 606 55L185 531Q183 494 183 457L183 385Q183 208 197 117Q197 113 199 104L204 80Q209 50 209 36Q209 10 171.50-7Q134-24 96-24Q55-24 48 1Q45 10 41 116L30 428Q25 571 25 687Q25 743 31 765Q37 787 73 802Q109 817 145 817Q185 817 199 801L613 321Q614 360 618.50 437.50Q623 515 624 554Q629 685 641 833Q646 899 749 899Q768 899 784 892Q805 883 805 867Q805 854 796 791Q784 713 784 724Q758 540 758 314Z"  horiz-adv-x="831" vert-adv-y="1024"  />

      
      <glyph glyph-name="uni4f" unicode="&#x4f;" d="M1005 489Q1005 290 839 136Q684-7 468-7Q281-7 153 113.50Q25 234 25 408Q25 606 189 760Q343 905 560 905Q744 905 874 785Q1005 662 1005 489M811 441Q811 584 726 681Q635 785 510 785Q386 785 293 680Q208 584 208 441Q208 299 293 204Q387 99 511 99Q633 99 726 205Q811 302 811 441Z"  horiz-adv-x="1032" vert-adv-y="1024"  />

      
      <glyph glyph-name="uni50" unicode="&#x50;" d="M550 332Q411 261 199 228Q199 221 203 196L220 89Q224 63 224 56Q224 34 186.50 16Q149-2 116-2Q71-2 64 18Q51 58 42 537Q25 563 25 593Q25 611 35 634Q114 753 240 823Q350 884 454 884Q585 884 672 811Q772 727 772 614Q772 445 550 332M601 583Q601 658 533.50 699.50Q466 741 398 741Q300 741 188 631Q185 563 185 501Q185 410 188 354Q461 366 546 457Q601 516 601 583Z"  horiz-adv-x="798" vert-adv-y="1024"  />

      
      <glyph glyph-name="uni51" unicode="&#x51;" d="M1003 493Q1003 307 856 156Q918 132 945 111Q955 102 955 94Q955 76 926 61Q901 47 881 47Q861 47 766 83Q632-6 467-6Q278-6 151.50 113Q25 232 25 410Q25 605 188 760Q340 905 556 905Q747 905 870 790Q1003 666 1003 493M609 336Q653 299 742 226Q811 316 811 438Q811 578 727 678Q637 786 514 786Q387 786 294 682Q207 585 207 441Q207 301 292 204Q384 99 509 99Q573 99 644 136Q535 193 479 237Q373 321 373 400Q373 425 388 454Q406 489 435 489Q454 489 514 435Q560 393 607 335L609 336Z"  horiz-adv-x="1030" vert-adv-y="1024"  />

      
      <glyph glyph-name="uni52" unicode="&#x52;" d="M675 115Q675 92 649.50 75.50Q624 59 600 59Q526 59 401 98Q295 131 245 156Q251 128 260 72Q261 59 261 55Q261 33 226 16Q195 0 162 0Q145 0 127 5Q101 13 100 25Q93 57 90 134Q88 176 86 260L82 393Q80 460 79 526L83 525Q60 535 42.50 556.50Q25 578 25 602Q25 622 56 660Q237 882 461 882Q596 882 686 809Q794 722 794 608Q794 471 630 364Q526 296 359 256Q416 222 501 187Q567 160 601 151Q616 148 644 142Q675 132 675 115M631 587Q631 661 565.50 703Q500 745 434 745Q336 745 225 636Q222 567 222 506Q222 414 225 358Q494 370 577 460Q631 519 631 587Z"  horiz-adv-x="819" vert-adv-y="1024"  />

      
      <glyph glyph-name="uni53" unicode="&#x53;" d="M279 1Q220 1 185 15Q147 29 109 69Q26 153 26 249Q26 302 72 302Q109 302 131 274Q141 255 165 220Q240 132 379 132Q465 132 547 170.50Q629 209 663 296Q673 322 673 341Q673 378 585 398Q532 409 403 417Q342 421 272 424L139 430Q37 435 37 526Q37 576 131 685Q252 825 423 877Q519 906 629 906Q713 906 714 856Q714 838 724 793L730 760Q733 744 733 738Q733 718 690.50 692Q648 666 619 666Q586 666 577 708Q571 732 570 735Q564 750 550 750Q367 750 252 605Q237 586 237 574Q237 569 238 569Q239 569 247 568Q251 568 258 568Q265 567 269 567Q270 567 297 568Q313 569 336 564Q370 566 403 566Q459 566 687 545Q767 538 823 523Q873 510 873 438Q873 415 867 394Q819 231 635 111Q466 1 279 1Z"  horiz-adv-x="900" vert-adv-y="1024"  />

      
      <glyph glyph-name="uni54" unicode="&#x54;" d="M708 782Q708 746 618 736Q554 733 425 726Q417 614 417 511Q417 314 442 154Q443 140 450 112Q457 78 457 58Q457 40 417 21Q381 4 350 4Q303 4 296 26Q294 30 289 125Q276 366 272 705Q269 696 195 669Q125 643 108 643Q66 643 43 675Q25 706 25 735Q25 791 81 815Q252 887 458 887Q561 887 587 880Q665 859 697 815Q708 800 708 782Z"  horiz-adv-x="733" vert-adv-y="1024"  />

      
      <glyph glyph-name="uni55" unicode="&#x55;" d="M732 83Q732 56 697.50 40Q663 24 627 24Q580 24 571 54Q563 76 563 164Q497 131 437 110Q191 24 122 24Q68 24 53 45Q44 57 44 100L44 152Q44 237 34.50 405.50Q25 574 25 658Q25 743 29 792Q32 825 73 846Q107 863 144 863Q166 863 185 856Q210 846 210 828Q210 808 205 770L200 738Q198 726 198 722Q184 613 184 457Q184 211 200 183Q227 183 371 239Q494 287 557 321L549 520Q546 604 546 656Q546 759 550 791Q554 823 590 844Q623 863 664 863Q685 863 705 856Q731 846 731 828Q731 798 720 711Q718 698 717 688Q706 549 706 467L706 414Q706 385 710 310Q712 271 720 189L722 175Q724 161 726 143L730 107Q732 89 732 83Z"  horiz-adv-x="758" vert-adv-y="1024"  />

      
      <glyph glyph-name="uni56" unicode="&#x56;" d="M351 16Q270 16 252 52Q225 127 129 439Q25 779 25 814Q25 869 119 869Q161 869 185 806Q200 765 200 720Q249 472 327 269L402 483Q452 630 511 769Q531 816 596 816Q623 816 647 810Q683 800 683 780Q683 767 659 720Q648 700 638 680L622 648Q521 442 467 164Q461 127 445 52Q440 34 404 24Q377 16 351 16Z"  horiz-adv-x="709" vert-adv-y="1024"  />

      
      <glyph glyph-name="uni57" unicode="&#x57;" d="M737 25Q700 25 661 147Q643 212 600 337L567 419Q550 459 534 497Q454 282 416 147Q397 81 384 19Q372-37 308-37Q274-37 255 19Q254 20 226 131Q142 465 70 656Q60 675 46 704Q26 744 26 768Q26 795 60 827Q94 859 128 859Q163 859 199 754Q211 720 246 585Q260 532 278 472L320 334Q350 429 377 503Q401 565 448 688Q488 794 550 794Q580 794 596 766Q602 755 614.50 711Q627 667 664 569L702 467Q721 413 737 367Q805 591 879 806Q889 858 917 886Q930 899 947 899Q981 899 1013 856Q1038 821 1038 791Q1038 781 1021 741Q1011 720 992 679Q966 614 921 477Q852 265 812 83Q799 25 737 25Z"  horiz-adv-x="1065" vert-adv-y="1024"  />

      
      <glyph glyph-name="uni58" unicode="&#x58;" d="M656 737Q545 587 451 435Q524 341 594 265Q612 250 646 219Q685 182 685 155Q685 128 663 96Q635 56 602 56Q573 56 525 114Q522 117 474 182Q470 188 467 191Q437 226 419 251L375 309Q321 219 277 123L258 82Q243 50 233 29Q220 3 166 3Q134 3 106 14Q69 29 69 56Q69 66 280 435Q239 486 159 589Q97 670 43 750Q29 771 29 805Q29 892 103 892Q128 892 161 851Q177 824 210 771Q288 648 351 563Q397 639 429 694Q472 769 529 854Q550 886 606 886Q640 886 676.50 866Q713 846 713 821Q713 810 689 778Q672 758 656 737Z"  horiz-adv-x="738" vert-adv-y="1024"  />

      
      <glyph glyph-name="uni59" unicode="&#x59;" d="M277 3Q225 3 188 37Q177 47 177 58Q177 66 332 344Q287 406 194 527Q162 563 102 637Q25 736 25 778Q25 801 50 835.50Q75 870 105 870Q132 870 156 838Q162 829 193 778Q287 621 405 470Q457 562 562 737Q585 776 638 856Q662 888 715 888Q749 888 785 868Q821 848 821 823Q821 809 779 755L742 708Q736 700 711 666Q523 407 397 147Q385 117 360 59Q349 36 325.50 19.50Q302 3 277 3Z"  horiz-adv-x="847" vert-adv-y="1024"  />

      
      <glyph glyph-name="uni5a" unicode="&#x5a;" d="M807 134Q807 112 778 87Q754 66 729 59Q564 13 313 13Q200 13 115 26Q84 31 57 52Q26 77 26 106Q26 178 48 190Q64 198 80 205.50Q96 213 112 233L255 420Q325 512 375 572L503 725L473 725Q312 725 178 690Q163 686 147 686Q116 686 90.50 710.50Q65 735 65 766Q65 815 128 836Q253 878 415 878Q629 878 712 823Q749 798 749 768Q749 741 697 689Q672 669 631 625Q412 408 236 144Q258 143 281 143L329 143Q445 143 699 170Q718 172 734 172Q758 172 779 164Q807 154 807 134Z"  horiz-adv-x="834" vert-adv-y="1024"  />

      
      <glyph glyph-name="uni5b" unicode="&#x5b;" d="M275-120L194-120Q184-120 163-121Q142-121 132-121Q72-121 51-80Q39-56 39-32Q39-15 43-7Q23 479 23 727L23 853Q23 926 34 959Q54 1015 112 1015Q126 1015 153 1016Q180 1016 194 1016L275 1016Q466 1016 507 1005Q539 997 539 963Q539 930 524 904Q506 872 476 872Q465 872 401 887L356 897Q337 901 334 901Q319 904 288 904Q254 904 202 898Q182 666 182 467Q182 418 195 233Q208 48 208-1L208-2Q254-6 286-6Q293-6 366 8Q444 23 475 23Q498 23 516 3Q531-15 536-40Q539-55 539-67Q539-106 478-117Q453-121 387-121Q368-121 331-121Q294-120 275-120Z"  horiz-adv-x="562" vert-adv-y="1024"  />

      
      <glyph glyph-name="uni5c" unicode="&#x5c;" d="M751 45Q751 25 711 10Q675-3 647-3Q605-3 573 43Q556 75 521 139Q364 405 151 677Q144 686 129 704L117 718Q70 772 39 815Q24 835 24 842Q24 867 59.50 883.50Q95 900 126 900Q186 900 215 867Q233 844 258 805Q291 751 298 741L400 594Q452 519 501 442L663 189Q690 154 739 81Q751 59 751 45Z"  horiz-adv-x="777" vert-adv-y="1024"  />

      
      <glyph glyph-name="uni5d" unicode="&#x5d;" d="M537 738Q537 544 515-6Q518-18 518-30Q518-63 503-87Q483-119 448-119L366-119Q353-119 326-120Q299-120 286-120Q90-120 51-108Q22-99 22-66Q22-31 36-7Q52 23 84 23Q93 23 154 11L202 2Q231-4 251-6Q259-6 273-6Q305-6 351-2L351-1Q351 73 359 182Q365 273 372 364Q376 428 376 461Q376 664 357 898Q303 904 271 904Q239 904 224 901Q221 901 202 897L158 887Q91 872 83 872Q52 873 36 903Q22 928 22 961Q22 997 52 1005Q91 1016 284 1016L365 1016Q379 1016 407 1016Q434 1015 448 1015Q529 1015 535 893Q537 854 537 806L537 738Z"  horiz-adv-x="561" vert-adv-y="1024"  />

      
      <glyph glyph-name="uni5f" unicode="&#x5f;" d="M489-129Q269-129 150-123Q51-118 51-35Q51 1 102 1L106 1Q143 1 279-11L375-20Q406-22 447-22L466-22Q462-22 588-10L671-2Q711 2 729 2Q764 2 788.50-22.50Q813-47 814-82Q814-111 792-120Q780-124 743-124L727-124Q703-124 663-126Q615-128 598-128Q547-129 489-129Z"  horiz-adv-x="864" vert-adv-y="1024"  />

      
      <glyph glyph-name="uni61" unicode="&#x61;" d="M860 108Q860 82 826.50 56Q793 30 756 30Q720 30 692 78Q690 81 654 162Q515 127 208 71Q190 14 158-8Q144-17 126-17Q92-17 59 17Q26 51 26 86Q26 100 51 140Q65 162 93 207Q153 312 213 459Q239 522 313 719Q323 745 354 833Q374 889 453 889Q499 889 526 836Q537 815 548 780Q563 732 566 723Q675 432 794 228Q815 196 853 129Q860 114 860 108M273 219Q434 245 594 302Q536 445 444 655Q427 613 408 563L307 303Q284 245 273 219Z"  horiz-adv-x="887" vert-adv-y="1024"  />

      
      <glyph glyph-name="uni62" unicode="&#x62;" d="M302 2Q196 2 152 10Q103 19 92 122Q86 177 84 271L79 506Q52 510 38 536Q25 558 25 587Q25 616 45 645Q65 669 85 693Q156 781 241 831Q330 883 445 883Q582 883 662 819Q754 745 754 625Q754 506 590 406Q666 383 719 340Q798 276 798 211Q798 106 601 40Q487 2 302 2M614 613Q614 678 552.50 710.50Q491 743 430 743Q331 743 225 635Q223 569 223 510L223 463Q223 439 224 416Q479 426 562 507Q614 558 614 613M405 312Q307 312 232 257L240 196Q243 166 247 138Q347 132 422 132Q574 132 622 161Q655 181 655 209Q655 255 558 287Q481 312 405 312Z"  horiz-adv-x="823" vert-adv-y="1024"  />

      
      <glyph glyph-name="uni63" unicode="&#x63;" d="M819 257Q819 240 783 211Q758 192 733 174Q509 7 302 7Q164 7 93 96Q26 180 26 305Q26 546 221 719Q407 884 663 884Q748 884 748 833L748 800Q748 782 768 704Q771 690 771 685Q771 666 730 641Q684 613 658 613Q630 613 612 656Q604 673 600 692L592 722Q380 684 268 553Q165 433 165 321Q165 235 223 193Q281 151 359 151Q429 151 524 193Q524 193 651 259Q758 314 776 314Q819 314 819 257Z"  horiz-adv-x="846" vert-adv-y="1024"  />

      
      <glyph glyph-name="uni64" unicode="&#x64;" d="M110 3Q67 2 57 115Q51 177 49 282L44 543Q26 569 26 599Q26 627 51 658Q60 670 96 706Q168 777 272 827.50Q376 878 483 878Q594 878 686.50 818Q779 758 824 657Q852 592 852 520Q852 331 657 190Q501 77 284 39Q238 28 147 8Q122 3 110 3M186 489Q186 308 211 152Q295 161 367 182Q451 207 505 234Q585 275 632 342Q675 404 675 486Q675 564 634.50 626.50Q594 689 523 719Q478 738 430 738Q309 738 190 627Q186 555 186 489Z"  horiz-adv-x="879" vert-adv-y="1024"  />

      
      <glyph glyph-name="uni65" unicode="&#x65;" d="M704 477Q405 447 209 384Q213 257 231 140Q295 140 432 164Q447 167 643 213Q660 217 681 217Q740 217 740 178Q740 152 720.50 126Q701 100 677 88Q581 40 452 14Q333-10 217-10Q167-10 154-8Q87 2 75 94Q68 146 68 227Q67 352 67 360Q25 381 25 426Q25 469 69 487Q63 525 61 608Q60 646 60 681L59 726Q59 761 67 777Q77 799 105 811Q121 818 150 827L275 868Q341 889 422 889Q525 889 557 882Q586 876 616 847Q646 818 646 790Q646 746 570 741Q429 732 381 723Q320 712 211 667Q206 584 206 530Q429 591 640 591Q681 591 728 576Q791 554 791 517Q791 486 704 477Z"  horiz-adv-x="816" vert-adv-y="1024"  />

      
      <glyph glyph-name="uni66" unicode="&#x66;" d="M659 474Q393 446 208 385Q210 319 224 225Q226 214 238 127Q245 71 245 62L245 59Q247 39 206 20Q172 4 138 4Q89 4 83 29Q72 72 69 190Q68 273 67 356Q25 374 25 425Q25 468 64 484Q58 630 58 697L58 752Q64 784 92 801Q107 811 150 824Q216 846 283 866.50Q350 887 421 886Q470 887 557 879Q587 872 615 846Q645 817 645 787Q645 743 569 738Q429 729 380 720Q327 711 210 665Q206 595 206 531Q403 588 600 588Q639 588 683 573Q741 552 741 514Q741 483 659 474Z"  horiz-adv-x="766" vert-adv-y="1024"  />

      
      <glyph glyph-name="uni67" unicode="&#x67;" d="M311 0Q249 0 192 22Q129 46 94 90Q26 175 26 307Q26 543 223 716Q409 879 663 879Q718 879 733 863.50Q748 848 748 800Q748 779 760 733L768 701Q771 686 771 681Q771 661 729 634.50Q687 608 659 608Q632 608 612 649Q599 675 590 718Q409 682 295 574Q239 521 204 456Q163 382 163 315Q163 237 214 194Q269 147 334 147Q418 147 543 197.50Q668 248 736 312Q756 331 756 349Q756 371 732 378Q721 381 689 381Q552 381 312 323Q283 316 268 316Q223 316 223 350Q223 375 251 413Q276 446 305 459Q344 476 470 490Q583 503 656 503Q746 503 810 487Q915 461 915 397Q915 321 771 204Q519 0 311 0Z"  horiz-adv-x="942" vert-adv-y="1024"  />

      
      <glyph glyph-name="uni68" unicode="&#x68;" d="M712 102Q712 79 675 60Q642 42 608 42Q559 42 548 78Q545 87 542 161Q541 184 541 206L541 253Q541 258 533 450Q357 424 195 367Q198 276 212 167L214 151Q214 152 222 107Q230 62 230 52Q230 35 190 15Q157-2 124-2Q77-2 65 47Q61 64 61 91Q60 130 60 136Q52 234 37 431Q25 603 25 726L25 765Q25 794 63 816.50Q101 839 141 839Q164 839 182 830Q205 820 205 799Q205 793 204 779L202 751Q192 611 192 514Q357 565 529 577Q529 645 529 681L528 721L528 792Q528 883 651 883Q671 883 688 876Q711 866 711 849Q711 827 700.50 730.50Q690 634 688 574Q734 562 759 526Q767 514 767 505Q767 472 686 468L686 421Q686 313 699 200Q699 204 707 155Q712 118 712 102Z"  horiz-adv-x="793" vert-adv-y="1024"  />

      
      <glyph glyph-name="uni69" unicode="&#x69;" d="M602 793Q602 755 526 746Q470 743 359 736Q351 622 351 514Q351 323 377 155Q395 160 422 166L474 178Q539 193 549 193Q566 193 580 186Q599 178 599 163Q599 136 569 103Q557 90 542 81Q475 42 350 18Q245-2 150-2Q98-2 71 6Q27 24 27 74Q27 130 90 130Q101 130 122.50 129Q144 128 155 128Q191 128 223 130Q209 289 205 690Q181 679 168 674Q117 653 95 653Q62 653 42 684Q24 711 24 745Q24 799 73 824Q219 898 389 898Q472 898 504 889Q540 879 568 855Q602 826 602 793Z"  horiz-adv-x="627" vert-adv-y="1024"  />

      
      <glyph glyph-name="uni6a" unicode="&#x6a;" d="M842 643Q842 466 791 292Q756 172 651 93.50Q546 15 415 15Q302 15 203 84Q104 153 62 259Q50 291 38 343Q27 392 27 425L27 434Q27 496 110 496Q168 496 177 427Q195 284 262 225Q345 152 435 152Q512 152 577 197Q642 242 655 323Q669 374 669 479Q669 667 640 738Q634 749 609 749Q591 749 566 745L512 735Q477 728 410 720Q368 719 368 755Q368 834 432 856Q516 885 671 885Q715 885 738 882Q815 872 827 811Q842 736 842 643Z"  horiz-adv-x="868" vert-adv-y="1024"  />

      
      <glyph glyph-name="uni6b" unicode="&#x6b;" d="M743 801L725 783Q692 749 554 618L475 542Q355 428 279 354Q447 228 631 144Q661 133 716 106Q726 99 726 93Q726 72 675 52Q629 33 600 33Q576 33 369 103Q264 138 195 186Q208 101 208 83Q208 57 174 40Q140 23 104 23Q64 23 51 49Q41 69 41 111Q41 125 42 139Q42 145 41 163Q25 541 25 742L25 772Q25 803 39 820Q59 846 102 858Q122 863 142 863Q163 863 182 856Q207 846 207 828Q207 794 197 718Q194 703 194 697Q185 618 182 471Q358 630 528 777Q601 840 659 840Q685 840 709 832Q743 822 743 801Z"  horiz-adv-x="769" vert-adv-y="1024"  />

      
      <glyph glyph-name="uni6c" unicode="&#x6c;" d="M187 16Q133 16 121 18Q55 29 42 119Q34 169 33 247Q33 312 32 376Q25 577 25 725L25 762Q25 776 26 781Q27 814 62 836Q93 856 128 856Q187 856 187 822Q187 836 180 731Q180 723 179 713Q171 607 171 520Q171 321 198 169Q288 169 371 184Q379 187 607 240Q629 245 646 245Q668 245 685 236Q707 226 707 206Q707 178 682 148Q666 129 644 117Q558 71 421 44Q277 16 187 16Z"  horiz-adv-x="732" vert-adv-y="1024"  />

      
      <glyph glyph-name="uni6d" unicode="&#x6d;" d="M1037 115Q1037 87 1004 56Q971 25 937 25Q912 25 875 116Q843 193 807 322L774 439Q757 498 742 548Q739 540 669 286Q603 47 581 6Q578-2 563.50-8.50Q549-15 539-15Q503-15 474 26Q450 60 450 92Q450 124 395 299Q360 407 325 514Q289 393 255 287L192 94Q186 74 170 33Q147-15 116-15Q82-15 53 27Q26 64 26 91Q26 101 43 140Q53 160 71 201Q93 258 143 406Q202 579 251 799Q264 858 327 858Q363 858 382 808Q388 782 401 732Q445 564 534 323Q619 574 678 862Q690 919 754 920Q787 921 816 844Q839 782 839 749Q919 425 988 239Q1004 210 1031 148Q1037 129 1037 115Z"  horiz-adv-x="1064" vert-adv-y="1024"  />

      
      <glyph glyph-name="uni6e" unicode="&#x6e;" d="M758 314Q758 245 761 181Q763 165 766 135L769 104Q770 89 770 82Q770 56 732 40Q700 27 659 27Q643 27 626 33Q605 41 606 55L185 531Q183 494 183 457L183 385Q183 208 197 117Q197 113 199 104L204 80Q209 50 209 36Q209 10 171.50-7Q134-24 96-24Q55-24 48 1Q45 10 41 116L30 428Q25 571 25 687Q25 743 31 765Q37 787 73 802Q109 817 145 817Q185 817 199 801L613 321Q614 360 618.50 437.50Q623 515 624 554Q629 685 641 833Q646 899 749 899Q768 899 784 892Q805 883 805 867Q805 854 796 791Q784 713 784 724Q758 540 758 314Z"  horiz-adv-x="831" vert-adv-y="1024"  />

      
      <glyph glyph-name="uni6f" unicode="&#x6f;" d="M1005 489Q1005 290 839 136Q684-7 468-7Q281-7 153 113.50Q25 234 25 408Q25 606 189 760Q343 905 560 905Q744 905 874 785Q1005 662 1005 489M811 441Q811 584 726 681Q635 785 510 785Q386 785 293 680Q208 584 208 441Q208 299 293 204Q387 99 511 99Q633 99 726 205Q811 302 811 441Z"  horiz-adv-x="1032" vert-adv-y="1024"  />

      
      <glyph glyph-name="uni70" unicode="&#x70;" d="M550 332Q411 261 199 228Q199 221 203 196L220 89Q224 63 224 56Q224 34 186.50 16Q149-2 116-2Q71-2 64 18Q51 58 42 537Q25 563 25 593Q25 611 35 634Q114 753 240 823Q350 884 454 884Q585 884 672 811Q772 727 772 614Q772 445 550 332M601 583Q601 658 533.50 699.50Q466 741 398 741Q300 741 188 631Q185 563 185 501Q185 410 188 354Q461 366 546 457Q601 516 601 583Z"  horiz-adv-x="798" vert-adv-y="1024"  />

      
      <glyph glyph-name="uni71" unicode="&#x71;" d="M1003 493Q1003 307 856 156Q918 132 945 111Q955 102 955 94Q955 76 926 61Q901 47 881 47Q861 47 766 83Q632-6 467-6Q278-6 151.50 113Q25 232 25 410Q25 605 188 760Q340 905 556 905Q747 905 870 790Q1003 666 1003 493M609 336Q653 299 742 226Q811 316 811 438Q811 578 727 678Q637 786 514 786Q387 786 294 682Q207 585 207 441Q207 301 292 204Q384 99 509 99Q573 99 644 136Q535 193 479 237Q373 321 373 400Q373 425 388 454Q406 489 435 489Q454 489 514 435Q560 393 607 335L609 336Z"  horiz-adv-x="1030" vert-adv-y="1024"  />

      
      <glyph glyph-name="uni72" unicode="&#x72;" d="M675 115Q675 92 649.50 75.50Q624 59 600 59Q526 59 401 98Q295 131 245 156Q251 128 260 72Q261 59 261 55Q261 33 226 16Q195 0 162 0Q145 0 127 5Q101 13 100 25Q93 57 90 134Q88 176 86 260L82 393Q80 460 79 526L83 525Q60 535 42.50 556.50Q25 578 25 602Q25 622 56 660Q237 882 461 882Q596 882 686 809Q794 722 794 608Q794 471 630 364Q526 296 359 256Q416 222 501 187Q567 160 601 151Q616 148 644 142Q675 132 675 115M631 587Q631 661 565.50 703Q500 745 434 745Q336 745 225 636Q222 567 222 506Q222 414 225 358Q494 370 577 460Q631 519 631 587Z"  horiz-adv-x="819" vert-adv-y="1024"  />

      
      <glyph glyph-name="uni73" unicode="&#x73;" d="M279 1Q220 1 185 15Q147 29 109 69Q26 153 26 249Q26 302 72 302Q109 302 131 274Q141 255 165 220Q240 132 379 132Q465 132 547 170.50Q629 209 663 296Q673 322 673 341Q673 378 585 398Q532 409 403 417Q342 421 272 424L139 430Q37 435 37 526Q37 576 131 685Q252 825 423 877Q519 906 629 906Q713 906 714 856Q714 838 724 793L730 760Q733 744 733 738Q733 718 690.50 692Q648 666 619 666Q586 666 577 708Q571 732 570 735Q564 750 550 750Q367 750 252 605Q237 586 237 574Q237 569 238 569Q239 569 247 568Q251 568 258 568Q265 567 269 567Q270 567 297 568Q313 569 336 564Q370 566 403 566Q459 566 687 545Q767 538 823 523Q873 510 873 438Q873 415 867 394Q819 231 635 111Q466 1 279 1Z"  horiz-adv-x="900" vert-adv-y="1024"  />

      
      <glyph glyph-name="uni74" unicode="&#x74;" d="M708 782Q708 746 618 736Q554 733 425 726Q417 614 417 511Q417 314 442 154Q443 140 450 112Q457 78 457 58Q457 40 417 21Q381 4 350 4Q303 4 296 26Q294 30 289 125Q276 366 272 705Q269 696 195 669Q125 643 108 643Q66 643 43 675Q25 706 25 735Q25 791 81 815Q252 887 458 887Q561 887 587 880Q665 859 697 815Q708 800 708 782Z"  horiz-adv-x="733" vert-adv-y="1024"  />

      
      <glyph glyph-name="uni75" unicode="&#x75;" d="M732 83Q732 56 697.50 40Q663 24 627 24Q580 24 571 54Q563 76 563 164Q497 131 437 110Q191 24 122 24Q68 24 53 45Q44 57 44 100L44 152Q44 237 34.50 405.50Q25 574 25 658Q25 743 29 792Q32 825 73 846Q107 863 144 863Q166 863 185 856Q210 846 210 828Q210 808 205 770L200 738Q198 726 198 722Q184 613 184 457Q184 211 200 183Q227 183 371 239Q494 287 557 321L549 520Q546 604 546 656Q546 759 550 791Q554 823 590 844Q623 863 664 863Q685 863 705 856Q731 846 731 828Q731 798 720 711Q718 698 717 688Q706 549 706 467L706 414Q706 385 710 310Q712 271 720 189L722 175Q724 161 726 143L730 107Q732 89 732 83Z"  horiz-adv-x="758" vert-adv-y="1024"  />

      
      <glyph glyph-name="uni76" unicode="&#x76;" d="M351 16Q270 16 252 52Q225 127 129 439Q25 779 25 814Q25 869 119 869Q161 869 185 806Q200 765 200 720Q249 472 327 269L402 483Q452 630 511 769Q531 816 596 816Q623 816 647 810Q683 800 683 780Q683 767 659 720Q648 700 638 680L622 648Q521 442 467 164Q461 127 445 52Q440 34 404 24Q377 16 351 16Z"  horiz-adv-x="709" vert-adv-y="1024"  />

      
      <glyph glyph-name="uni77" unicode="&#x77;" d="M737 25Q700 25 661 147Q643 212 600 337L567 419Q550 459 534 497Q454 282 416 147Q397 81 384 19Q372-37 308-37Q274-37 255 19Q254 20 226 131Q142 465 70 656Q60 675 46 704Q26 744 26 768Q26 795 60 827Q94 859 128 859Q163 859 199 754Q211 720 246 585Q260 532 278 472L320 334Q350 429 377 503Q401 565 448 688Q488 794 550 794Q580 794 596 766Q602 755 614.50 711Q627 667 664 569L702 467Q721 413 737 367Q805 591 879 806Q889 858 917 886Q930 899 947 899Q981 899 1013 856Q1038 821 1038 791Q1038 781 1021 741Q1011 720 992 679Q966 614 921 477Q852 265 812 83Q799 25 737 25Z"  horiz-adv-x="1065" vert-adv-y="1024"  />

      
      <glyph glyph-name="uni78" unicode="&#x78;" d="M656 737Q545 587 451 435Q524 341 594 265Q612 250 646 219Q685 182 685 155Q685 128 663 96Q635 56 602 56Q573 56 525 114Q522 117 474 182Q470 188 467 191Q437 226 419 251L375 309Q321 219 277 123L258 82Q243 50 233 29Q220 3 166 3Q134 3 106 14Q69 29 69 56Q69 66 280 435Q239 486 159 589Q97 670 43 750Q29 771 29 805Q29 892 103 892Q128 892 161 851Q177 824 210 771Q288 648 351 563Q397 639 429 694Q472 769 529 854Q550 886 606 886Q640 886 676.50 866Q713 846 713 821Q713 810 689 778Q672 758 656 737Z"  horiz-adv-x="738" vert-adv-y="1024"  />

      
      <glyph glyph-name="uni79" unicode="&#x79;" d="M277 3Q225 3 188 37Q177 47 177 58Q177 66 332 344Q287 406 194 527Q162 563 102 637Q25 736 25 778Q25 801 50 835.50Q75 870 105 870Q132 870 156 838Q162 829 193 778Q287 621 405 470Q457 562 562 737Q585 776 638 856Q662 888 715 888Q749 888 785 868Q821 848 821 823Q821 809 779 755L742 708Q736 700 711 666Q523 407 397 147Q385 117 360 59Q349 36 325.50 19.50Q302 3 277 3Z"  horiz-adv-x="847" vert-adv-y="1024"  />

      
      <glyph glyph-name="uni7a" unicode="&#x7a;" d="M807 134Q807 112 778 87Q754 66 729 59Q564 13 313 13Q200 13 115 26Q84 31 57 52Q26 77 26 106Q26 178 48 190Q64 198 80 205.50Q96 213 112 233L255 420Q325 512 375 572L503 725L473 725Q312 725 178 690Q163 686 147 686Q116 686 90.50 710.50Q65 735 65 766Q65 815 128 836Q253 878 415 878Q629 878 712 823Q749 798 749 768Q749 741 697 689Q672 669 631 625Q412 408 236 144Q258 143 281 143L329 143Q445 143 699 170Q718 172 734 172Q758 172 779 164Q807 154 807 134Z"  horiz-adv-x="834" vert-adv-y="1024"  />

      
      <glyph glyph-name="uni7b" unicode="&#x7b;" d="M817 737Q817 711 786 681Q747 644 722 646Q706 645 654 686Q626 711 568 757Q537 779 426 823Q406 828 380 839Q341 855 341 870Q341 895 372.50 924.50Q404 954 438 954Q453 954 542 906Q610 869 709 811Q744 791 811 749Q817 741 817 737M712 479Q712 427 671 400Q656 390 636 390Q606 390 511 402L442 410Q411 413 399 413Q386 413 342 408L246 397Q118 382 78 382Q25 382 25 428Q25 464 53 490Q79 513 116 516Q134 517 293 522L424 526Q475 525 577 529Q605 531 630 531Q712 531 712 479M475-88Q446-89 421-55Q399-24 399 0Q399 17 420 39Q425 43 450 62L509 106Q543 132 584 161L659 215Q738 271 753 272Q782 273 807 234Q832 195 832 174Q832 162 757 122Q723 106 665 72Q645 58 576-10L500-83Q496-87 475-88Z"  horiz-adv-x="857" vert-adv-y="1024"  />

      
      <glyph glyph-name="uni7c" unicode="&#x7c;" d="M206 85Q206 58 165 32Q135 13 93 13Q60 13 46 54Q37 81 37 137Q37 145 38 161Q38 176 38 184Q38 287 31 464Q23 665 22 743Q21 793 25 811Q32 844 60 868Q92 895 138 895Q162 895 181 886Q205 874 205 852Q205 831 199 761L194 712Q192 689 190 682Q183 603 183 442Q183 320 192 224Q192 223 200 159Q206 102 206 85Z"  horiz-adv-x="229" vert-adv-y="1024"  />

      
      <glyph glyph-name="uni7d" unicode="&#x7d;" d="M101 592Q71 592 47 632Q25 669 25 691Q25 710 34 719Q40 726 61 734Q140 763 193 794Q210 804 283 876Q310 902 332 924L356 949Q371 964 386 964Q411 964 428 928Q445 892 445 859Q445 836 436 826Q385 785 272 703Q227 670 135 608Q109 592 101 592M778 482Q833 482 833 436Q833 400 806 376.50Q779 353 742 349Q702 347 637 344Q527 343 308 335Q273 333 244 333Q143 333 143 385Q143 413 163 444Q183 475 220 475Q250 475 345 463.50Q440 452 455 452Q527 452 672 470Q769 482 778 482M514-4Q514-29 482-59Q450-89 416-89Q402-89 313-40Q204 19 149 53L84 92Q59 106 51 112Q38 121 44 139Q55 178 99 206Q120 220 134 219Q152 218 203 177Q238 148 273 120Q314 88 350 73Q378 61 441 36Q454 32 480 23Q514 8 514-4Z"  horiz-adv-x="858" vert-adv-y="1024"  />

      
      <glyph glyph-name="uni7e" unicode="&#x7e;" d="M456 370Q431 370 328.50 408Q226 446 211 446Q204 446 158 408Q112 370 94 371Q65 372 48 404Q34 430 34 462Q34 505 88 542Q132 572 174 572Q202 572 303.50 535Q405 498 425 498Q434 498 488 542Q509 560 521 568Q546 587 557 587Q586 588 605 548Q620 515 620 492Q620 459 559.50 414.50Q499 370 456 370Z"  horiz-adv-x="655" vert-adv-y="1024"  />

      
      <glyph glyph-name="unic4" unicode="&#xc4;" d="M17 91Q-8 171-8 189Q-8 249 97 271Q150 282 197 339Q255 410 329 543Q348 578 442 760Q462 803 482 845Q508 897 537 921Q556 937 583 938Q671 942 680 883Q681 873 706 766Q722 694 738 621Q757 537 778 479Q791 441 812 386Q815 368 818 364Q824 357 839 357Q838 357 870 359L918 362Q1006 356 1006 294Q1006 282 1002 266Q976 191 915 52Q900 18 844 18Q831 18 809 23Q781 27 773 31Q754 39 754 59Q754 88 785 139Q819 195 819 207Q819 210 816 210L683 192Q571 178 496 172L414 164Q346 158 202 138Q181 135 181 128Q181 123 208 62Q222 30 222 16Q222-19 154-41Q127-50 105-50Q51-50 31 36Q27 53 17 91M562 682Q492 554 349 300Q426 302 557 318Q599 323 652 330Q649 341 643 365L631 413Q622 438 609 489Q593 569 562 682Z"  horiz-adv-x="1110" vert-adv-y="1024"  />

      
      <glyph glyph-name="unic5" unicode="&#xc5;" d="M663 482Q356 450 168 389Q172 263 190 145Q269 145 391 169Q444 179 602 218Q646 222 640 222Q699 222 699 183Q699 158 679.50 131.50Q660 105 636 93Q545 46 411 19Q292-5 176-5Q126-5 113-3Q46 7 34 99Q27 151 27 232Q26 357 26 366Q-16 386-16 431Q-16 472 28 493Q24 515 21 613Q19 651 19 686L18 731Q18 781 41 802Q56 816 109 833Q218 868 242 875Q316 894 381 894Q485 894 515 887Q545 880 575 852Q605 824 605 795Q605 751 529 746Q381 735 340 728Q279 717 170 672Q165 589 165 536Q388 596 599 596Q641 596 687 581Q750 559 750 522Q750 505 713 493Q688 485 663 482Z"  horiz-adv-x="816" vert-adv-y="1024"  />

      
      <glyph glyph-name="unic7" unicode="&#xc7;" d="M735 311Q735 175 561 70Q407-23 254-23Q217-23 157.50-12Q98-1 73 11Q25 33 25 75Q25 136 77 136Q94 136 122 125Q208 91 285 91Q343 91 395 113Q547 177 547 295Q547 347 517 377Q487 407 435 407Q430 407 364 398Q305 390 288 390Q226 390 226 434Q226 474 265 507Q297 533 341 546Q389 559 405.50 578.50Q422 598 422 644Q422 690 390.50 724.50Q359 759 314 759Q282 759 244 732Q225 714 190 683Q137 638 117 639Q71 640 71 689Q71 727 123 787Q172 843 226 876Q288 914 358 914Q430 914 480 871Q593 773 593 688Q593 601 506 522Q672 470 716 389Q735 353 735 311Z"  horiz-adv-x="761" vert-adv-y="1024"  />

      
      <glyph glyph-name="unic9" unicode="&#xc9;" d="M733 83Q733 57 696 40Q663 24 628 24Q582 24 571 54Q563 76 563 165Q513 137 437 110Q191 24 121 24Q67 24 52 45Q43 57 43 100L43 153Q43 238 33.50 407Q24 576 24 660Q24 760 28 793.50Q32 827 67 846Q102 865 143 865Q164 865 184 858Q210 849 210 831Q210 812 205 772L200 740Q198 728 198 724Q184 615 184 458Q184 212 200 184Q226 184 370 240Q497 290 557 322L549 522Q546 606 546 658Q546 760 550 793.50Q554 827 589 846Q624 865 664 865Q685 865 705 858Q732 848 732 831Q732 800 721 713Q719 700 718 690Q707 551 707 468L707 415Q707 386 711 311Q713 272 721 189L723 175Q725 161 727 143L731 107Q733 89 733 83M370 745Q345 745 321 758Q292 773 292 796Q292 818 319 878Q338 920 357 962Q373 1007 407 1078Q430 1112 476 1112Q503 1112 533 1098Q569 1082 569 1057Q569 1053 537 987Q516 945 474 860Q460 829 429 775Q413 745 370 745Z"  horiz-adv-x="758" vert-adv-y="1024"  />

      
      <glyph glyph-name="unid1" unicode="&#xd1;" d="M819 257Q819 240 783 211Q758 192 733 174Q509 7 302 7Q164 7 93 96Q26 180 26 305Q26 546 221 719Q407 884 663 884Q748 884 748 833L748 800Q748 782 768 704Q771 690 771 685Q771 666 730 641Q684 613 658 613Q630 613 612 656Q604 673 600 692L592 722Q380 684 268 553Q165 433 165 321Q165 235 223 193Q281 151 359 151Q429 151 524 193Q524 193 651 259Q758 314 776 314Q819 314 819 257Z"  horiz-adv-x="846" vert-adv-y="1024"  />

      
      <glyph glyph-name="unid6" unicode="&#xd6;" d="M857 33Q857 8 825.50-16.50Q794-41 759-41Q719-41 678 8Q640 53 606 123Q591 153 584 174L514 140Q475 121 448 112Q199 24 124 24Q67 24 53 44Q44 57 44 101L44 155Q44 242 35 415.50Q26 589 26 675Q26 778 29 812Q32 843 70.50 863.50Q109 884 146 884Q168 884 187 877Q213 867 213 849Q213 820 204 755Q202 743 202 738Q188 623 188 468Q188 213 204 187Q268 187 395 241Q415 250 577 326Q576 363 566 524L560 619Q557 668 557 726Q557 780 560 794Q567 827 596 852Q630 881 676 881Q700 881 719 871Q744 859 744 838Q744 809 737 745L732 694Q729 670 729 663Q724 616 724 585Q724 569 725 536Q725 503 725 486L725 447Q725 424 726 395Q752 384 771 352Q792 317 792 294Q792 281 784 273Q768 267 737 251Q743 229 766 195Q785 168 804 142Q857 62 857 33Z"  horiz-adv-x="882" vert-adv-y="1024"  />

      
      <glyph glyph-name="unidc" unicode="&#xdc;" d="M235 886Q235 856 227 805Q221 765 215 725L199 598Q354 640 491 640Q532 640 569 636Q809 610 809 427Q809 306 707 183Q613 69 483 19Q413-8 329-8Q250-8 185 18Q96 53 51 103Q27 128 27 153Q27 183 44 220Q47 387 49 553Q56 836 68 874Q72 893 115 911Q154 922 178 922Q235 922 235 886M632 406Q632 475 578 512Q546 534 489 534Q389 534 198 463Q194 381 194 301Q194 233 197 166Q263 127 323 127Q436 127 557 249Q632 325 632 406Z"  horiz-adv-x="836" vert-adv-y="1024"  />

      
      <glyph glyph-name="unie1" unicode="&#xe1;" d="M301 2Q196 2 151 10Q102 19 91 127Q85 186 83 287L78 541Q52 545 38 571Q25 593 25 622Q25 644 44 681Q58 707 143 734Q187 748 314 779Q422 806 550 803Q629 801 674 777Q700 763 700 730Q700 702 680.50 686Q661 670 633 673Q608 676 584 676Q521 676 427 653Q307 624 219 578L218 499L222 424Q285 437 376 437Q410 437 450 435L574 410Q613 402 656 378.50Q699 355 717 340Q796 276 796 210Q796 107 600 40Q488 2 301 2M403 312Q308 312 231 257L239 195Q242 166 246 138Q363 131 421 131Q569 131 620 161Q654 181 654 208Q654 255 557 287Q480 312 403 312Z"  horiz-adv-x="868" vert-adv-y="1024"  />

      
      <glyph glyph-name="unie2" unicode="&#xe2;" d="M261 2Q156 2 111 10Q62 19 51 122Q45 177 43 271L38 506Q11 510-3 536Q-16 558-16 587Q-16 616 4 645Q24 669 44 693Q115 781 200 831Q289 883 404 883Q542 883 621 819Q713 744 713 625Q713 506 549 406Q625 383 678 340Q757 276 757 211Q757 106 560 40Q446 2 261 2M573 613Q573 678 511.50 710.50Q450 743 389 743Q290 743 184 635Q182 569 182 510L182 463Q182 439 183 416Q437 426 521 507Q573 557 573 613M364 312Q266 312 191 257L199 196Q202 166 206 138Q305 132 381 132Q533 132 581 161Q614 181 614 209Q614 255 517 287Q440 312 364 312Z"  horiz-adv-x="823" vert-adv-y="1024"  />

      
      <glyph glyph-name="unie4" unicode="&#xe4;" d="M17 91Q-8 171-8 189Q-8 249 97 271Q150 282 197 339Q255 410 329 543Q348 578 442 760Q462 803 482 845Q508 897 537 921Q556 937 583 938Q671 942 680 883Q681 873 706 766Q722 694 738 621Q757 537 778 479Q791 441 812 386Q815 368 818 364Q824 357 839 357Q838 357 870 359L918 362Q1006 356 1006 294Q1006 282 1002 266Q976 191 915 52Q900 18 844 18Q831 18 809 23Q781 27 773 31Q754 39 754 59Q754 88 785 139Q819 195 819 207Q819 210 816 210L683 192Q571 178 496 172L414 164Q346 158 202 138Q181 135 181 128Q181 123 208 62Q222 30 222 16Q222-19 154-41Q127-50 105-50Q51-50 31 36Q27 53 17 91M562 682Q492 554 349 300Q426 302 557 318Q599 323 652 330Q649 341 643 365L631 413Q622 438 609 489Q593 569 562 682Z"  horiz-adv-x="1110" vert-adv-y="1024"  />

      
      <glyph glyph-name="unie5" unicode="&#xe5;" d="M663 482Q356 450 168 389Q172 263 190 145Q269 145 391 169Q444 179 602 218Q646 222 640 222Q699 222 699 183Q699 158 679.50 131.50Q660 105 636 93Q545 46 411 19Q292-5 176-5Q126-5 113-3Q46 7 34 99Q27 151 27 232Q26 357 26 366Q-16 386-16 431Q-16 472 28 493Q24 515 21 613Q19 651 19 686L18 731Q18 781 41 802Q56 816 109 833Q218 868 242 875Q316 894 381 894Q485 894 515 887Q545 880 575 852Q605 824 605 795Q605 751 529 746Q381 735 340 728Q279 717 170 672Q165 589 165 536Q388 596 599 596Q641 596 687 581Q750 559 750 522Q750 505 713 493Q688 485 663 482Z"  horiz-adv-x="816" vert-adv-y="1024"  />

      
      <glyph glyph-name="unie7" unicode="&#xe7;" d="M735 311Q735 175 561 70Q407-23 254-23Q217-23 157.50-12Q98-1 73 11Q25 33 25 75Q25 136 77 136Q94 136 122 125Q208 91 285 91Q343 91 395 113Q547 177 547 295Q547 347 517 377Q487 407 435 407Q430 407 364 398Q305 390 288 390Q226 390 226 434Q226 474 265 507Q297 533 341 546Q389 559 405.50 578.50Q422 598 422 644Q422 690 390.50 724.50Q359 759 314 759Q282 759 244 732Q225 714 190 683Q137 638 117 639Q71 640 71 689Q71 727 123 787Q172 843 226 876Q288 914 358 914Q430 914 480 871Q593 773 593 688Q593 601 506 522Q672 470 716 389Q735 353 735 311Z"  horiz-adv-x="761" vert-adv-y="1024"  />

      
      <glyph glyph-name="unie9" unicode="&#xe9;" d="M733 83Q733 57 696 40Q663 24 628 24Q582 24 571 54Q563 76 563 165Q513 137 437 110Q191 24 121 24Q67 24 52 45Q43 57 43 100L43 153Q43 238 33.50 407Q24 576 24 660Q24 760 28 793.50Q32 827 67 846Q102 865 143 865Q164 865 184 858Q210 849 210 831Q210 812 205 772L200 740Q198 728 198 724Q184 615 184 458Q184 212 200 184Q226 184 370 240Q497 290 557 322L549 522Q546 606 546 658Q546 760 550 793.50Q554 827 589 846Q624 865 664 865Q685 865 705 858Q732 848 732 831Q732 800 721 713Q719 700 718 690Q707 551 707 468L707 415Q707 386 711 311Q713 272 721 189L723 175Q725 161 727 143L731 107Q733 89 733 83M370 745Q345 745 321 758Q292 773 292 796Q292 818 319 878Q338 920 357 962Q373 1007 407 1078Q430 1112 476 1112Q503 1112 533 1098Q569 1082 569 1057Q569 1053 537 987Q516 945 474 860Q460 829 429 775Q413 745 370 745Z"  horiz-adv-x="758" vert-adv-y="1024"  />

      
      <glyph glyph-name="uniea" unicode="&#xea;" d="M743 801L725 783Q692 749 554 618L475 542Q355 428 279 354Q447 228 631 144Q661 133 716 106Q726 99 726 93Q726 72 675 52Q629 33 600 33Q576 33 369 103Q264 138 195 186Q208 101 208 83Q208 57 174 40Q140 23 104 23Q64 23 51 49Q41 69 41 111Q41 125 42 139Q42 145 41 163Q25 541 25 742L25 772Q25 803 39 820Q59 846 102 858Q122 863 142 863Q163 863 182 856Q207 846 207 828Q207 794 197 718Q194 703 194 697Q185 618 182 471Q358 630 528 777Q601 840 659 840Q685 840 709 832Q743 822 743 801Z"  horiz-adv-x="769" vert-adv-y="1024"  />

      
      <glyph glyph-name="unieb" unicode="&#xeb;" d="M431 888Q458 886 484 877Q522 864 524 846.50Q526 829 536 729Q563 460 651 222Q667 183 696 105Q701 87 700 82Q698 51 630 51Q541 51 526 104Q467 304 442 407Q422 482 383 632Q336 532 293 421Q261 341 249 307Q226 242 212 188L208 173Q202 147 189 97Q184 77 181 72Q162 37 122 37Q67 37 35 81Q27 93 27 101Q28 133 166 476Q296 801 328 858Q338 876 375 884Q405 890 431 888Z"  horiz-adv-x="728" vert-adv-y="1024"  />

      
      <glyph glyph-name="unied" unicode="&#xed;" d="M712 102Q712 79 675 60Q642 42 608 42Q559 42 548 78Q545 87 542 161Q541 184 541 206L541 253Q541 258 533 450Q357 424 195 367Q198 276 212 167L214 151Q214 152 222 107Q230 62 230 52Q230 35 190 15Q157-2 124-2Q77-2 65 47Q61 64 61 91Q60 130 60 136Q52 234 37 431Q25 603 25 726L25 765Q25 794 63 816.50Q101 839 141 839Q164 839 182 830Q205 820 205 799Q205 793 204 779L202 751Q192 611 192 514Q357 565 529 577Q529 645 529 681L528 721L528 792Q528 883 651 883Q671 883 688 876Q711 866 711 849Q711 827 700.50 730.50Q690 634 688 574Q734 562 759 526Q767 514 767 505Q767 472 686 468L686 421Q686 313 699 200Q699 204 707 155Q712 118 712 102Z"  horiz-adv-x="793" vert-adv-y="1024"  />

      
      <glyph glyph-name="uniee" unicode="&#xee;" d="M1005 489Q1005 290 839 136Q684-7 468-7Q281-7 153 113.50Q25 234 25 408Q25 606 189 760Q343 905 560 905Q744 905 874 785Q1005 662 1005 489M811 441Q811 584 726 681Q635 785 510 785Q386 785 293 680Q208 584 208 441Q208 299 293 204Q387 99 511 99Q633 99 726 205Q811 302 811 441Z"  horiz-adv-x="1032" vert-adv-y="1024"  />

      
      <glyph glyph-name="unief" unicode="&#xef;" d="M712 102Q712 79 675 60Q642 42 607 42Q559 42 548 78Q545 87 542 161Q541 184 541 206L541 253Q541 300 540 395Q539 490 539 537L539 620Q539 664 540 711Q358 683 202 628L202 541Q202 278 201 354Q202 244 212 167L214 151Q214 152 222 107Q230 62 230 52Q230 35 190 15Q157-2 124-2Q83-2 70 29Q60 52 60 96L60 136Q60 153 49 284Q43 347 37 431Q25 603 25 726L25 765Q25 795 63.50 816.50Q102 838 141 838Q205 838 205 799Q205 790 202 777Q387 834 569 859Q655 871 657 871Q711 871 711 836Q711 813 701 721Q685 584 685 474L685 442Q685 410 688 318Q691 240 698 200Q701 185 706 155Q712 105 712 102Z"  horiz-adv-x="737" vert-adv-y="1024"  />

      
      <glyph glyph-name="unif1" unicode="&#xf1;" d="M819 257Q819 240 783 211Q758 192 733 174Q509 7 302 7Q164 7 93 96Q26 180 26 305Q26 546 221 719Q407 884 663 884Q748 884 748 833L748 800Q748 782 768 704Q771 690 771 685Q771 666 730 641Q684 613 658 613Q630 613 612 656Q604 673 600 692L592 722Q380 684 268 553Q165 433 165 321Q165 235 223 193Q281 151 359 151Q429 151 524 193Q524 193 651 259Q758 314 776 314Q819 314 819 257Z"  horiz-adv-x="846" vert-adv-y="1024"  />

      
      <glyph glyph-name="unif3" unicode="&#xf3;" d="M277 3Q225 3 188 37Q177 47 177 58Q177 66 332 344Q287 406 194 527Q162 563 102 637Q25 736 25 778Q25 801 50 835.50Q75 870 105 870Q132 870 156 838Q162 829 193 778Q287 621 405 470Q457 562 562 737Q585 776 638 856Q662 888 715 888Q749 888 785 868Q821 848 821 823Q821 809 779 755L742 708Q736 700 711 666Q523 407 397 147Q385 117 360 59Q349 36 325.50 19.50Q302 3 277 3Z"  horiz-adv-x="847" vert-adv-y="1024"  />

      
      <glyph glyph-name="unif4" unicode="&#xf4;" d="M1094 296Q1007 273 897 273Q838 273 750 282Q750 270 750 247Q749 225 749 213Q749 190 750 144Q751 98 751 75Q751 70 751 60Q750 50 750 45Q750 18 675 7Q595 18 595 46Q595 70 596.50 118Q598 166 598 190Q598 232 596 280Q519 269 439 269Q336 269 248 292Q27 350 27 518Q27 626 123 731Q210 827 333 855Q372 864 418 864Q516 864 607 820Q640 804 667 784Q719 823 798 849Q856 868 924 868Q1033 868 1126 811Q1181 776 1219 735Q1315 630 1315 522Q1315 354 1094 296M1146 523Q1146 596 1077 655Q1002 718 944 732Q918 738 896 738Q825 738 742 679Q743 659 742 642Q741 625 741 608L741 556Q741 482 745 404Q873 378 953 378Q1034 378 1085 409Q1146 447 1146 523M196 519Q196 443 257 405Q307 374 388 374Q470 374 596 400Q600 478 600 552L600 613Q600 640 602 678Q518 734 446 734Q389 734 334 703Q301 684 264 652Q196 593 196 519Z"  horiz-adv-x="1342" vert-adv-y="1024"  />

      
      <glyph glyph-name="unif6" unicode="&#xf6;" d="M857 33Q857 8 825.50-16.50Q794-41 759-41Q719-41 678 8Q640 53 606 123Q591 153 584 174L514 140Q475 121 448 112Q199 24 124 24Q67 24 53 44Q44 57 44 101L44 155Q44 242 35 415.50Q26 589 26 675Q26 778 29 812Q32 843 70.50 863.50Q109 884 146 884Q168 884 187 877Q213 867 213 849Q213 820 204 755Q202 743 202 738Q188 623 188 468Q188 213 204 187Q268 187 395 241Q415 250 577 326Q576 363 566 524L560 619Q557 668 557 726Q557 780 560 794Q567 827 596 852Q630 881 676 881Q700 881 719 871Q744 859 744 838Q744 809 737 745L732 694Q729 670 729 663Q724 616 724 585Q724 569 725 536Q725 503 725 486L725 447Q725 424 726 395Q752 384 771 352Q792 317 792 294Q792 281 784 273Q768 267 737 251Q743 229 766 195Q785 168 804 142Q857 62 857 33Z"  horiz-adv-x="882" vert-adv-y="1024"  />

      
      <glyph glyph-name="unif9" unicode="&#xf9;" d="M966-8Q966-30 934.50-56.50Q903-83 866-83Q814-83 778-13Q757 26 746 60L560 55Q533 11 468 11Q409 11 394 49L335 52Q274 54 256 54L226 54Q210 54 179 54Q148 53 132 53Q79 53 56 68Q26 86 28 136Q29 167 29 183Q29 204 29 244Q28 285 28 306Q28 361 30 432Q32 483 37 595Q38 626 42 680Q47 712 54 738Q60 761 107.50 794Q155 827 191 827Q232 827 232 777Q232 748 225 701Q215 635 215 626Q200 489 200 329Q200 248 204 182Q281 175 345 175Q352 175 365 175Q378 176 385 176Q382 315 382 438Q382 642 392 753Q396 793 437 850Q469 866 495 866Q559 866 559 774L560 402Q560 294 563 180Q664 182 735 195Q734 275 727 446Q720 609 720 696Q720 750 723 765Q730 799 759 823Q792 851 838 851Q862 851 881 842Q906 830 906 809Q906 787 900 716L895 665Q894 652 892 634Q885 561 885 388L885 357Q885 272 891 194Q921 182 915 139Q913 134 913 128Q913 110 936 62Q966-4 966-8Z"  horiz-adv-x="990" vert-adv-y="1024"  />

      
      <glyph glyph-name="unifb" unicode="&#xfb;" d="M236 886Q236 855 228 805Q222 765 216 725L204 638Q198 599 198 594Q340 640 493 640Q535 640 571 636Q810 610 810 427Q810 308 708 183Q614 68 485 19Q414-8 330-8Q251-8 186 18Q99 52 53 103Q29 128 29 153Q29 186 45 220Q47 387 50 554Q56 831 69 876Q74 893 117 911Q156 922 179 922Q236 922 236 886M633 406Q633 475 580 512Q548 534 492 534Q391 534 200 463Q196 381 196 301Q196 233 199 166Q264 127 324 127Q439 127 558 249Q633 326 633 406M1068 76Q1068 44 1032 22Q996 0 951 0Q902 0 895 77Q893 98 893 120Q893 130 894 150Q894 169 894 179Q894 286 887 473Q878 682 877 766Q877 793 879 829Q883 887 954 917Q974 925 997 925Q1067 925 1067 879Q1067 858 1061 785L1056 733Q1055 720 1053 700Q1045 612 1045 450Q1045 341 1054 221Q1055 216 1057 197L1062 154Q1068 92 1068 76Z"  horiz-adv-x="1096" vert-adv-y="1024"  />

      
      <glyph glyph-name="unifc" unicode="&#xfc;" d="M235 886Q235 856 227 805Q221 765 215 725L199 598Q354 640 491 640Q532 640 569 636Q809 610 809 427Q809 306 707 183Q613 69 483 19Q413-8 329-8Q250-8 185 18Q96 53 51 103Q27 128 27 153Q27 183 44 220Q47 387 49 553Q56 836 68 874Q72 893 115 911Q154 922 178 922Q235 922 235 886M632 406Q632 475 578 512Q546 534 489 534Q389 534 198 463Q194 381 194 301Q194 233 197 166Q263 127 323 127Q436 127 557 249Q632 325 632 406Z"  horiz-adv-x="836" vert-adv-y="1024"  />

      
      <glyph glyph-name="uniae" unicode="&#xae;" d="M938 510Q938 381 864 253.50Q790 126 674 47Q551-37 420-37Q263-37 151.50 76.50Q40 190 40 346Q40 473 114 604Q187 732 303 811Q426 895 556 895Q715 895 826.50 781Q938 667 938 510M803 444Q803 575 730 673Q649 781 523 781Q435 781 347 725Q263 671 218 592Q167 505 167 399Q167 271 241 171Q322 61 445 61Q522 61 609 113Q803 228 803 444M475 321Q557 279 626 241Q658 224 658 207Q658 193 635 193Q619 193 603 199L375 283Q377 283 382 241Q388 193 388 190Q388 177 372.50 169.50Q357 162 342 162Q314 162 308 216Q305 238 304 335L303 418L303 501Q280 468 270 468Q257 468 246.50 483.50Q236 499 236 513Q236 531 274 573Q369 677 474 677Q560 677 621 638Q692 593 692 512Q692 429 622 380Q575 347 475 321M622 501Q622 542 575 574Q532 603 482 603Q426 603 369 562Q366 512 366 461Q366 418 368 378L380 371Q542 379 589 430Q622 466 622 501Z"  horiz-adv-x="979" vert-adv-y="1024"  />

      
      <glyph glyph-name="unia9" unicode="&#xa9;" d="M938 510Q938 380 863.50 253.50Q789 127 673 47Q551-37 420-37Q263-37 151.50 76.50Q40 190 40 346Q40 473 114 604Q187 732 303 811Q426 895 556 895Q714 895 826 781Q938 667 938 510M803 443Q803 574 730 673Q649 782 523 782Q443 782 359 732Q167 618 167 400Q167 270 240 171Q321 61 445 61Q522 61 609 113Q803 228 803 443M402 193Q339 193 299 223Q255 257 255 318Q255 399 352 540Q385 588 432 619Q485 655 537 655Q588 655 630 615Q691 557 691 530Q691 513 667 500Q647 488 628 488Q622 488 583 516Q544 544 520 544Q476 544 418.50 488.50Q361 433 361 390Q361 339 402 312Q437 290 492 290Q529 290 591 331Q653 372 685 372Q698 372 698 362Q698 330 658 295.50Q618 261 571 238Q479 193 402 193Z"  horiz-adv-x="979" vert-adv-y="1024"  />

      
      <glyph glyph-name="uni2122" unicode="&#x2122;" d="M907 486Q907 471 890.50 455.50Q874 440 859 440Q851 440 847 447Q834 469 804 575Q792 617 754 735L702 556Q658 411 630 411Q592 411 500 699Q481 642 441 543Q427 506 387 415Q380 405 372 405Q356 405 342 428Q328 448 328 465Q328 470 352 518Q436 687 467 824Q474 853 499 853Q512 853 519 836Q539 756 573 673Q592 630 627 548Q685 700 727 877Q734 905 759 905Q775 905 785 869Q789 853 797 820Q812 762 841 663Q859 616 906 495Q907 490 907 486M228 807Q222 736 222 672Q222 585 237 482L245 425Q245 410 227 400Q213 392 196 392Q180 392 177 404Q166 445 163 792L72 764Q40 764 40 805Q40 835 65 847Q144 884 234 884Q273 884 296 880Q311 877 331 861.50Q351 846 351 832Q351 816 299 812Q275 811 228 807Z"  horiz-adv-x="947" vert-adv-y="1024"  />

      
      <glyph glyph-name="unia8" unicode="&#xa8;" d="M704 478Q398 446 209 385Q213 259 231 141Q297 141 432 164Q503 180 644 213Q666 218 682 218Q741 218 741 178Q741 153 721.50 126.50Q702 100 678 88Q582 40 452 14Q333-10 217-10Q166-10 153-8Q86 2 74 95Q67 147 67 228Q66 352 66 361Q24 382 24 427Q24 470 68 489Q62 527 60 609Q59 648 59 683L58 728Q58 763 66 779Q76 801 104 813Q121 820 149 829L275 870Q341 891 422 891Q526 891 558 884Q587 878 616.50 849Q646 820 646 792Q646 747 571 742Q507 739 381 725Q323 715 211 669Q206 584 206 531Q431 593 641 593Q685 593 729 577Q792 554 792 518Q792 502 754 489Q729 481 704 478M314 1067Q314 1059 300 993Q294 968 289 946L281 916Q274 889 205 889Q183 889 164 896Q139 906 139 925Q139 983 147 1060Q149 1077 188 1086Q214 1092 240 1092Q259 1092 282 1087Q314 1080 314 1067M515 1107Q515 1102 511 1081L501 1035Q491 984 482 957Q473 930 406 930Q384 930 366 937Q341 947 341 966Q341 1010 349 1101Q351 1119 389 1128Q416 1134 442 1134Q515 1134 515 1107Z"  horiz-adv-x="816" vert-adv-y="1024"  />

      
      <glyph glyph-name="unic6" unicode="&#xc6;" d="M1297 799L1279 781Q1213 715 1108 617Q1078 589 1057 568L1030 542Q964 480 835 354Q999 228 1187 144L1194 141Q1221 131 1272 106Q1282 99 1282 93Q1282 73 1231 52Q1186 33 1156 33Q1130 33 924 103Q816 140 749 187Q753 83 753 82Q753 57 722 40Q703 29 663 20Q608 27 591 54Q577 75 577 120L577 170Q577 180 578 188Q498 135 403 102Q203 33 172 33Q141 33 97 52Q47 72 45 93Q44 105 82 122Q101 128 139 144Q298 209 494 354Q452 395 401 444L289 548Q281 558 190 645Q146 684 103 722Q29 789 29 799Q30 821 62 832Q86 840 112 840Q153 840 183 823Q202 812 242 777Q360 673 594 507Q595 512 595 519L595 534Q595 564 592 617Q588 677 587 700Q585 708 583 760Q581 802 581 828Q581 863 645 863L686 863Q751 863 751 828L751 799Q751 802 746 720Q745 703 744 698Q737 565 737 508Q917 634 1084 777Q1157 840 1214 840Q1240 840 1264 832Q1297 821 1297 799Z"  horiz-adv-x="1328" vert-adv-y="1024"  />

      
      <glyph glyph-name="uniab" unicode="&#xab;" d="M487 676Q487 654 459 640Q435 628 411 628Q372 628 352 657Q347 666 335 689L275 805Q242 870 221 915Q212 934 212 937Q212 957 244 975Q273 990 304 990Q361 990 375 956Q405 879 469 726Q487 686 487 676M299 614Q299 593 270 578Q245 566 222 566Q208 566 189 575Q170 584 163.50 596Q157 608 90 741L59 803Q26 866 26 874Q26 895 58 913Q85 927 117 927Q175 927 188 893Q235 768 282 664Q299 626 299 614Z"  horiz-adv-x="514" vert-adv-y="1024"  />

      
      <glyph glyph-name="unibb" unicode="&#xbb;" d="M290 566Q267 566 242 579Q212 594 212 614Q212 638 239 695Q259 737 279 778Q292 817 306 855Q326 905 352 919Q368 927 395 927Q423 927 452 914Q487 898 487 873Q487 869 454 802Q440 773 424 740L392 677Q376 646 364 624L348 595Q328 566 290 566M102 628Q78 628 54 640Q26 655 26 676Q26 697 53 757Q88 836 90 841Q115 911 118 919Q140 969 166 982Q182 990 209 990Q236 990 267.50 974Q299 958 299 936Q299 933 267.50 866.50Q236 800 206 741Q179 690 161 657Q145 628 102 628Z"  horiz-adv-x="514" vert-adv-y="1024"  />

      
      <glyph glyph-name="uni2026" unicode="&#x2026;" d="M691 185Q691 175 678 116L667 71Q662 49 659 43Q651 15 586 15Q566 15 548 22Q524 32 524 50Q524 103 533 180Q533 211 622 211Q691 211 691 185M449 184Q449 187 434 115Q429 90 416 42Q411 14 342 14Q281 14 281 49Q281 86 289 179Q292 210 378 210Q449 210 449 184M205 183Q205 169 191 115Q187 90 174 45Q165 13 98 13Q78 13 61 21Q38 30 38 48Q38 100 45 178Q48 209 135 209Q205 209 205 183Z"  horiz-adv-x="730" vert-adv-y="1024"  />

      
      <glyph glyph-name="unic0" unicode="&#xc0;" d="M819 123Q819 97 785.50 71Q752 45 715 45Q680 45 652 94Q640 121 614 176Q451 137 167 85Q153 51 148 42Q136 21 117 8Q104-1 86-1Q47-1 15 36Q-15 70-15 101Q-15 114 10 154Q24 176 52 221Q139 377 272 727Q277 740 313 840Q323 867 354 882Q381 895 412 895Q459 895 485 842Q495 821 506 787Q522 740 525 731Q633 445 753 242Q774 210 812 144Q819 129 819 123M232 233Q398 262 553 315Q496 456 403 666Q377 599 324 465L232 233Z"  horiz-adv-x="887" vert-adv-y="1024"  />

      
      <glyph glyph-name="unic3" unicode="&#xc3;" d="M269 900Q309 903 352 903Q469 903 572 884Q635 871 653 866Q699 850 721 821Q740 794 740 772Q740 742 702 730Q674 721 640 724L374 744Q291 744 207 734Q179 549 179 357Q179 266 187 156Q189 139 192 104L195 68Q196 50 196 43Q196 2 127 2Q91 2 64 16Q30 34 28 66Q27 72 27 87L27 128Q27 281 34 495Q32 586 42 766Q52 858 119 877Q126 880 147 883Q187 890 269 900Z"  horiz-adv-x="768" vert-adv-y="1024"  />

      
      <glyph glyph-name="uni201C" unicode="&#x201C;" d="M487 676Q487 654 459 640Q435 628 411 628Q372 628 352 657Q347 666 335 689L275 805Q242 870 221 915Q212 934 212 937Q212 957 244 975Q273 990 304 990Q361 990 375 956Q405 879 469 726Q487 686 487 676M299 614Q299 593 270 578Q245 566 222 566Q208 566 189 575Q170 584 163.50 596Q157 608 90 741L59 803Q26 866 26 874Q26 895 58 913Q85 927 117 927Q175 927 188 893Q235 768 282 664Q299 626 299 614Z"  horiz-adv-x="514" vert-adv-y="1024"  />

      
      <glyph glyph-name="uni201D" unicode="&#x201D;" d="M290 566Q267 566 242 579Q212 594 212 614Q212 638 239 695Q259 737 279 778Q292 817 306 855Q326 905 352 919Q368 927 395 927Q423 927 452 914Q487 898 487 873Q487 869 454 802Q440 773 424 740L392 677Q376 646 364 624L348 595Q328 566 290 566M102 628Q78 628 54 640Q26 655 26 676Q26 697 53 757Q88 836 90 841Q115 911 118 919Q140 969 166 982Q182 990 209 990Q236 990 267.50 974Q299 958 299 936Q299 933 267.50 866.50Q236 800 206 741Q179 690 161 657Q145 628 102 628Z"  horiz-adv-x="514" vert-adv-y="1024"  />

      
      <glyph glyph-name="uni2018" unicode="&#x2018;" d="M296 674Q296 651 268 637Q244 625 219 625Q180 625 162 653Q152 669 86 799Q23 921 25 931Q25 954 57 970Q85 985 115 985Q172 985 185 952Q221 867 291 695Q296 682 296 674Z"  horiz-adv-x="322" vert-adv-y="1024"  />

      
      <glyph glyph-name="uni2019" unicode="&#x2019;" d="M101 625Q76 625 53 637Q25 651 25 674Q25 696 51 754Q70 796 88 837Q103 879 137 950Q160 985 206 985Q233 985 262 971Q296 955 296 930Q297 927 265 860Q251 831 234 798L202 735Q188 707 159 653Q142 625 101 625Z"  horiz-adv-x="322" vert-adv-y="1024"  />

      
      <glyph glyph-name="unic2" unicode="&#xc2;" d="M261 2Q156 2 111 10Q62 19 51 122Q45 177 43 271L38 506Q11 510-3 536Q-16 558-16 587Q-16 616 4 645Q24 669 44 693Q115 781 200 831Q289 883 404 883Q542 883 621 819Q713 744 713 625Q713 506 549 406Q625 383 678 340Q757 276 757 211Q757 106 560 40Q446 2 261 2M573 613Q573 678 511.50 710.50Q450 743 389 743Q290 743 184 635Q182 569 182 510L182 463Q182 439 183 416Q437 426 521 507Q573 557 573 613M364 312Q266 312 191 257L199 196Q202 166 206 138Q305 132 381 132Q533 132 581 161Q614 181 614 209Q614 255 517 287Q440 312 364 312Z"  horiz-adv-x="823" vert-adv-y="1024"  />

      
      <glyph glyph-name="unica" unicode="&#xca;" d="M743 801L725 783Q692 749 554 618L475 542Q355 428 279 354Q447 228 631 144Q661 133 716 106Q726 99 726 93Q726 72 675 52Q629 33 600 33Q576 33 369 103Q264 138 195 186Q208 101 208 83Q208 57 174 40Q140 23 104 23Q64 23 51 49Q41 69 41 111Q41 125 42 139Q42 145 41 163Q25 541 25 742L25 772Q25 803 39 820Q59 846 102 858Q122 863 142 863Q163 863 182 856Q207 846 207 828Q207 794 197 718Q194 703 194 697Q185 618 182 471Q358 630 528 777Q601 840 659 840Q685 840 709 832Q743 822 743 801Z"  horiz-adv-x="769" vert-adv-y="1024"  />

      
      <glyph glyph-name="unic1" unicode="&#xc1;" d="M301 2Q196 2 151 10Q102 19 91 127Q85 186 83 287L78 541Q52 545 38 571Q25 593 25 622Q25 644 44 681Q58 707 143 734Q187 748 314 779Q422 806 550 803Q629 801 674 777Q700 763 700 730Q700 702 680.50 686Q661 670 633 673Q608 676 584 676Q521 676 427 653Q307 624 219 578L218 499L222 424Q285 437 376 437Q410 437 450 435L574 410Q613 402 656 378.50Q699 355 717 340Q796 276 796 210Q796 107 600 40Q488 2 301 2M403 312Q308 312 231 257L239 195Q242 166 246 138Q363 131 421 131Q569 131 620 161Q654 181 654 208Q654 255 557 287Q480 312 403 312Z"  horiz-adv-x="868" vert-adv-y="1024"  />

      
      <glyph glyph-name="unicb" unicode="&#xcb;" d="M431 888Q458 886 484 877Q522 864 524 846.50Q526 829 536 729Q563 460 651 222Q667 183 696 105Q701 87 700 82Q698 51 630 51Q541 51 526 104Q467 304 442 407Q422 482 383 632Q336 532 293 421Q261 341 249 307Q226 242 212 188L208 173Q202 147 189 97Q184 77 181 72Q162 37 122 37Q67 37 35 81Q27 93 27 101Q28 133 166 476Q296 801 328 858Q338 876 375 884Q405 890 431 888Z"  horiz-adv-x="728" vert-adv-y="1024"  />

      
      <glyph glyph-name="unic8" unicode="&#xc8;" d="M732 83Q732 56 697.50 40Q663 24 627 24Q580 24 571 54Q563 76 563 164Q497 131 437 110Q191 24 122 24Q68 24 53 45Q44 57 44 100L44 152Q44 237 34.50 405.50Q25 574 25 658Q25 743 29 792Q32 825 73 846Q107 863 144 863Q166 863 185 856Q210 846 210 828Q210 808 205 770L200 738Q198 726 198 722Q184 613 184 457Q184 211 200 183Q227 183 371 239Q494 287 557 321L549 520Q546 604 546 656Q546 759 550 791Q554 823 590 844Q623 863 664 863Q685 863 705 856Q731 846 731 828Q731 798 720 711Q718 698 717 688Q706 549 706 467L706 414Q706 385 710 310Q712 271 720 189L722 175Q724 161 726 143L730 107Q732 89 732 83Z"  horiz-adv-x="758" vert-adv-y="1024"  />

      
      <glyph glyph-name="unicd" unicode="&#xcd;" d="M712 102Q712 79 675 60Q642 42 608 42Q559 42 548 78Q545 87 542 161Q541 184 541 206L541 253Q541 258 533 450Q357 424 195 367Q198 276 212 167L214 151Q214 152 222 107Q230 62 230 52Q230 35 190 15Q157-2 124-2Q77-2 65 47Q61 64 61 91Q60 130 60 136Q52 234 37 431Q25 603 25 726L25 765Q25 794 63 816.50Q101 839 141 839Q164 839 182 830Q205 820 205 799Q205 793 204 779L202 751Q192 611 192 514Q357 565 529 577Q529 645 529 681L528 721L528 792Q528 883 651 883Q671 883 688 876Q711 866 711 849Q711 827 700.50 730.50Q690 634 688 574Q734 562 759 526Q767 514 767 505Q767 472 686 468L686 421Q686 313 699 200Q699 204 707 155Q712 118 712 102Z"  horiz-adv-x="793" vert-adv-y="1024"  />

      
      <glyph glyph-name="unice" unicode="&#xce;" d="M1005 489Q1005 290 839 136Q684-7 468-7Q281-7 153 113.50Q25 234 25 408Q25 606 189 760Q343 905 560 905Q744 905 874 785Q1005 662 1005 489M811 441Q811 584 726 681Q635 785 510 785Q386 785 293 680Q208 584 208 441Q208 299 293 204Q387 99 511 99Q633 99 726 205Q811 302 811 441Z"  horiz-adv-x="1032" vert-adv-y="1024"  />

      
      <glyph glyph-name="unicf" unicode="&#xcf;" d="M712 102Q712 79 675 60Q642 42 607 42Q559 42 548 78Q545 87 542 161Q541 184 541 206L541 253Q541 300 540 395Q539 490 539 537L539 620Q539 664 540 711Q358 683 202 628L202 541Q202 278 201 354Q202 244 212 167L214 151Q214 152 222 107Q230 62 230 52Q230 35 190 15Q157-2 124-2Q83-2 70 29Q60 52 60 96L60 136Q60 153 49 284Q43 347 37 431Q25 603 25 726L25 765Q25 795 63.50 816.50Q102 838 141 838Q205 838 205 799Q205 790 202 777Q387 834 569 859Q655 871 657 871Q711 871 711 836Q711 813 701 721Q685 584 685 474L685 442Q685 410 688 318Q691 240 698 200Q701 185 706 155Q712 105 712 102Z"  horiz-adv-x="737" vert-adv-y="1024"  />

      
      <glyph glyph-name="unicc" unicode="&#xcc;" d="M1037 115Q1037 87 1004 56Q971 25 937 25Q912 25 875 116Q843 193 807 322L774 439Q757 498 742 548Q739 540 669 286Q603 47 581 6Q578-2 563.50-8.50Q549-15 539-15Q503-15 474 26Q450 60 450 92Q450 124 395 299Q360 407 325 514Q289 393 255 287L192 94Q186 74 170 33Q147-15 116-15Q82-15 53 27Q26 64 26 91Q26 101 43 140Q53 160 71 201Q93 258 143 406Q202 579 251 799Q264 858 327 858Q363 858 382 808Q388 782 401 732Q445 564 534 323Q619 574 678 862Q690 919 754 920Q787 921 816 844Q839 782 839 749Q919 425 988 239Q1004 210 1031 148Q1037 129 1037 115Z"  horiz-adv-x="1064" vert-adv-y="1024"  />

      
      <glyph glyph-name="unif2" unicode="&#xf2;" d="M708 782Q708 746 618 736Q554 733 425 726Q417 614 417 511Q417 314 442 154Q443 140 450 112Q457 78 457 58Q457 40 417 21Q381 4 350 4Q303 4 296 26Q294 30 289 125Q276 366 272 705Q269 696 195 669Q125 643 108 643Q66 643 43 675Q25 706 25 735Q25 791 81 815Q252 887 458 887Q561 887 587 880Q665 859 697 815Q708 800 708 782Z"  horiz-adv-x="733" vert-adv-y="1024"  />

      
      <glyph glyph-name="unif5" unicode="&#xf5;" d="M656 737Q545 587 451 435Q524 341 594 265Q612 250 646 219Q685 182 685 155Q685 128 663 96Q635 56 602 56Q573 56 525 114Q522 117 474 182Q470 188 467 191Q437 226 419 251L375 309Q321 219 277 123L258 82Q243 50 233 29Q220 3 166 3Q134 3 106 14Q69 29 69 56Q69 66 280 435Q239 486 159 589Q97 670 43 750Q29 771 29 805Q29 892 103 892Q128 892 161 851Q177 824 210 771Q288 648 351 563Q397 639 429 694Q472 769 529 854Q550 886 606 886Q640 886 676.50 866Q713 846 713 821Q713 810 689 778Q672 758 656 737Z"  horiz-adv-x="738" vert-adv-y="1024"  />

      
      <glyph glyph-name="unif7" unicode="&#xf7;" d="M697 332Q697 328 706 213Q708 187 708 173L708 82Q708 60 666 43Q630 28 601 28Q588 28 570 34Q549 41 547 52Q542 69 542 115Q542 143 545 213Q548 275 547 311Q433 302 309 269Q271 259 214 243L150 226Q117 217 105 215Q75 211 51.50 232.50Q28 254 28 284Q28 283 33 308L27 527Q25 617 25 672Q25 731 26 738Q27 774 59 797Q91 820 128 820Q187 820 187 784Q187 747 181 676Q172 569 172 543L172 473Q172 421 174 377Q343 424 542 439Q543 540 544 614L544 735Q544 798 565.50 825.50Q587 853 646 853Q705 853 705 819Q705 827 700 760Q689 630 689 538L689 491Q689 461 692 411Q696 352 697 332Z"  horiz-adv-x="733" vert-adv-y="1024"  />

      
      <glyph glyph-name="unif8" unicode="&#xf8;" d="M547 756L548 393Q548 288 551 177Q637 179 724 193L726 202Q742 274 742 406Q742 457 739 516Q742 544 742 596Q742 665 737 738Q734 784 759 804Q775 816 801 816Q833 816 860 803Q894 788 897 760Q901 725 901 675Q901 641 900 602Q900 593 898 562Q897 537 897 521Q897 486 899 415Q901 344 901 308Q901 158 892 133Q872 76 783 64Q736 57 665 56Q606 55 547 54Q522 12 457 12Q396 12 386 51Q360 50 318 51Q261 54 250 54Q228 54 190 54Q145 53 129 53Q77 53 54 67Q25 85 27 134Q28 165 28 180Q28 200 28 240Q27 280 27 300Q27 354 29 423Q31 472 35 580.50Q39 689 52 722Q60 744 104 773.50Q148 803 177 803Q235 803 225 734Q202 581 196 391Q195 358 195 328Q195 264 200 179Q272 172 337 172Q344 172 357 172Q369 173 376 173Q372 457 372 438Q372 619 383 735Q387 777 426 829Q459 847 483 847Q547 847 547 756Z"  horiz-adv-x="927" vert-adv-y="1024"  />

      
      <glyph glyph-name="unifa" unicode="&#xfa;" d="M560 787Q553 663 547 601Q697 640 827 640Q872 640 909 636Q1148 610 1148 427Q1148 308 1047 183Q976 96 879 45Q777-9 669-9Q552-9 449 56Q366 108 366 153Q366 186 384 220L389 583Q391 717 393 756Q174 721 123 722Q89 722 62 749Q35 776 35 810Q35 847 73 854Q64 854 183 860Q185 860 277 866Q288 867 295 867Q306 867 412 895Q453 908 522 923Q552 920 572.50 889.50Q593 859 593 828Q593 795 566 788L560 787M524 923M971 406Q971 474 915 512Q883 534 828 534Q729 534 538 463Q533 395 533 301Q533 236 537 166Q602 127 662 127Q773 127 895 250Q971 327 971 406M524 923L522 923Q521 923 520 923Q519 924 518 924L524 923Z"  horiz-adv-x="1176" vert-adv-y="1024"  />

      
      <glyph glyph-name="unifd" unicode="&#xfd;" d="M30 83Q33 136 73 154Q82 158 117 158Q141 158 173 157L236 154Q266 152 291 152Q317 151 329 152Q476 164 583 249Q613 273 657 321Q710 378 721 435L674 434Q655 433 647 431Q624 429 597 424L541 412Q507 403 440 384L346 359Q292 352 292 412Q292 440 308 467Q324 494 350 502Q397 518 535 537Q630 550 726 563Q719 644 618 697Q566 724 500 724Q424 724 297 683Q228 652 198 652Q155 652 145 698L147 732Q150 781 228 820Q389 900 532 900Q628 900 691 870Q787 824 836 748Q881 676 879 579L880 579Q927 579 927 519Q927 495 916 471Q904 444 884 437Q871 435 860 435Q848 364 792 272Q716 146 572 78Q440 15 290 15Q209 15 124 35Q95 41 66 47Q29 60 30 83Z"  horiz-adv-x="955" vert-adv-y="1024"  />

      
      <glyph glyph-name="unife" unicode="&#xfe;" d="M1361 510Q1361 323 1202 174Q1055 37 849 37Q735 37 640 86Q541 137 483 231Q445 292 432 369Q428 369 420 369Q412 368 408 368Q386 368 343 370.50Q300 373 278 373Q225 373 192 359Q195 293 197 264Q201 210 208 169L210 158Q210 163 218 114Q224 71 224 60Q224 41 186 24Q153 8 123 8Q77 8 65 55Q61 72 60 98Q60 119 60 141Q53 234 39 420Q27 584 27 701L27 739Q27 768 68 790Q105 810 146 810Q201 810 201 772Q201 747 197 701Q197 694 196 687Q188 591 188 494Q206 493 223 493L256 493Q319 493 427 498Q445 640 582 769Q727 906 936 906Q1116 906 1236 792Q1361 674 1361 510M1166 451Q1166 589 1086 680Q1000 778 881 778Q762 778 675 679Q594 587 594 451Q594 314 675 224Q764 125 882 125Q997 125 1086 225Q1166 315 1166 451Z"  horiz-adv-x="1389" vert-adv-y="1024"  />

      
      <glyph glyph-name="uniff" unicode="&#xff;" d="M152 43Q152 59 181 76Q202 89 223 98Q297 141 401 225Q437 254 476 286Q446 284 417 284Q290 284 202 314Q27 374 27 523Q27 644 135 763Q228 865 369 908Q432 927 491 927Q659 927 800 796Q832 766 832 745Q832 726 814 693Q798 664 774 651Q774 616 766 368L764 303Q762 225 758 167Q757 149 756 131Q752 109 741 100Q721 83 684 77Q667 74 649 74Q585 74 585 111Q584 120 590 151L600 209Q520 149 440 103Q368 61 347 50Q294 21 250 7Q219-3 197-3Q152-3 152 43M196 540Q196 464 248 426Q294 392 372 392Q456 392 622 434Q627 539 627 596Q627 662 623 730Q546 784 475 784Q445 784 409 774Q342 756 267 685Q196 618 196 540Z"  horiz-adv-x="858" vert-adv-y="1024"  />

      
      </font>
</defs>
</svg>
