<?xml version="1.0" standalone="no"?>
<!DOCTYPE svg PUBLIC "-//W3C//DTD SVG 1.1//EN" "http://www.w3.org/Graphics/SVG/1.1/DTD/svg11.dtd" >
<svg xmlns="http://www.w3.org/2000/svg" xmlns:xlink="http://www.w3.org/1999/xlink" version="1.1">
<metadata>
Created by FontForge 20200314 at Mon Jan  9 11:13:59 2023
 By User Azfonts
Typeface (c) (your company). 2023. All Rights Reserved
</metadata>
<defs>
<font id="Bluecurve" horiz-adv-x="1014" >
  <font-face 
    font-family="Blue curve"
    font-weight="400"
    font-stretch="normal"
    units-per-em="2048"
    panose-1="2 0 5 0 0 0 0 0 0 0"
    ascent="1638"
    descent="-410"
    x-height="958"
    cap-height="1434"
    bbox="-259 -400 1968 1722"
    underline-thickness="150"
    underline-position="-292"
    unicode-range="U+0020-2212"
  />
<missing-glyph horiz-adv-x="1435" 
d="M180 0v1434h1075v-1434h-1075zM360 180h715v1074h-715v-1074z" />
    <glyph glyph-name=".notdef" horiz-adv-x="1435" 
d="M180 0v1434h1075v-1434h-1075zM360 180h715v1074h-715v-1074z" />
    <glyph glyph-name="space" unicode=" " horiz-adv-x="508" 
 />
    <glyph glyph-name="space" unicode="&#xa0;" horiz-adv-x="508" 
 />
    <glyph glyph-name="A" unicode="A" horiz-adv-x="1461" 
d="M853 1434l593 -1430h-248l-163 394q-89 -25 -176 -41.5t-208 -22.5q-88 -3 -178 -3h-88l-135 -327h-248l136 329l2 4l-2 -3l95 228l361 872h259zM640 563q176 9 306 48l-222 537l-244 -588q82 0 160 3z" />
    <glyph glyph-name="B" unicode="B" horiz-adv-x="1306" 
d="M303 1205v-230h465q47 0 81 33.5t34 81.5q0 47 -34 81t-81 34h-465zM768 746h-465v-515h460q106 0 181.5 75.5t75.5 182.5q0 105 -72.5 178.5t-179.5 78.5zM1044 885q94 -68 149.5 -171t55.5 -225q0 -133 -64 -242t-171 -174.5t-241 -70.5h-699v1432h703
q143 -7 239 -105.5t96 -238.5q0 -115 -68 -205z" />
    <glyph glyph-name="C" unicode="C" horiz-adv-x="1399" 
d="M1162 474l177 -157q-96 -148 -247 -235.5t-332 -87.5q-192 0 -350 98t-252.5 263t-94.5 365t94.5 365t252.5 263t350 98q132 0 249.5 -48t210.5 -134l-170 -160q-60 51 -134 80t-156 29q-128 0 -233.5 -66.5t-168 -178.5t-62.5 -248t62.5 -248t168 -178.5t233.5 -66.5
q129 0 234.5 67.5t167.5 179.5z" />
    <glyph glyph-name="D" unicode="D" horiz-adv-x="1410" 
d="M335 232h264q126 0 230 65.5t165.5 176t61.5 244.5t-61.5 244.5t-165.5 176t-230 65.5h-264v-972zM599 1433q190 0 345.5 -96.5t248.5 -259t93 -359.5t-93 -359.5t-248.5 -259.5t-345.5 -97h-493v1432h492v-1h1z" />
    <glyph glyph-name="E" unicode="E" horiz-adv-x="1232" 
d="M316 1436v-1q-12 0 -24 1h24zM316 828h815v-230h-815v-366h812v-230h-1042v1434h206q6 -1 12 -1h12q66 -2 130 -2q96 0 190 4q110 5 188.5 21t171.5 42q45 12 100 26l57 -222q-47 -12 -87 -23q-5 -2 -10 -3q-98 -27 -189 -45.5t-221 -24.5q-88 -4 -178 -4q-76 0 -152 2
v-378z" />
    <glyph glyph-name="F" unicode="F" horiz-adv-x="1214" 
d="M314 904h815v-229h-815v-673h-230v1433h230q82 -1 162 -1q81 0 158 3q111 5 189 21t171 42q46 12 100 26l57 -222q-54 -14 -97 -26q-98 -27 -189 -45.5t-221 -24.5q-87 -4 -177 -4q-76 0 -153 2v-302zM314 1435h-23h23z" />
    <glyph glyph-name="G" unicode="G" horiz-adv-x="1451" 
d="M1355 725v-406q-91 -140 -231 -225q-157 -95 -344 -95q-191 0 -348 97t-250.5 261t-93.5 362q0 199 93.5 362.5t250.5 261t348 97.5q131 0 247.5 -48t208.5 -133l-169 -159q-59 51 -132.5 80t-154.5 29q-127 0 -232 -66.5t-167 -177.5t-62 -246t62 -246t167 -177t232 -66
q102 0 190.5 44t153.5 120v332h156z" />
    <glyph glyph-name="H" unicode="H" horiz-adv-x="1454" 
d="M1303 1440v-1439h-230v679h-1l-1 -1q-98 -27 -189.5 -45.5t-221.5 -24.5q-88 -4 -179 -4q-64 0 -128 1v-605h-231v1439h231v-603q61 -2 120 -2q90 0 176 4q111 5 189.5 21t172.5 42l10 2q24 7 52 14v522h230z" />
    <glyph glyph-name="I" unicode="I" horiz-adv-x="560" 
d="M371 1434v-1427h-229v1427h229z" />
    <glyph glyph-name="J" unicode="J" horiz-adv-x="998" 
d="M886 490q0 -132 -64 -241.5t-171 -175t-240 -69.5h-11q-11 0 -83 -1q-26 0 -41 1q-78 6 -151 36q-40 18 -77 41q-46 32 -90 72l54 46l26 23l6 5l90 77q66 -62 151 -71h115q62 0 113 26q122 63 142 204q2 14 2 27v944h229v-944z" />
    <glyph glyph-name="K" unicode="K" horiz-adv-x="1291" 
d="M1254 3h-285l-480 651l-24 -12l-148 -68v-571h-229v1431h229v-607l52 23q363 170 574 509l84 135l195 -120l-84 -136q-176 -283 -449 -469z" />
    <glyph glyph-name="L" unicode="L" horiz-adv-x="1133" 
d="M86 3v1431h230v-1201q46 -1 91 -1q90 0 177 4q111 5 189 21t171 42q45 12 100 26l57 -222q-53 -14 -98 -26q-97 -27 -188 -45.5t-220 -24.5q-88 -4 -178 -4q-51 0 -101 1z" />
    <glyph glyph-name="M" unicode="M" horiz-adv-x="1500" 
d="M1374 1434v-1430h-229v1012l-243 -368l-56 -86l-19 -29h-190l-62 95l-253 385v-1009h-228v1430h224l336 -511l76 -116l99 148l318 479h227z" />
    <glyph glyph-name="N" unicode="N" horiz-adv-x="1402" 
d="M1270 1434v-1429h-229q-42 157 -123 301q-73 115 -205 246q-76 76 -152 148q-4 5 -8 9q-117 110 -200 202q-14 17 -27 33v-939h-229v1429h229q18 -80 59.5 -174.5t124.5 -192.5q64 -71 159 -162q18 -17 37 -35q61 -59 124 -121q120 -117 211 -235v920h229z" />
    <glyph glyph-name="O" unicode="O" horiz-adv-x="1577" 
d="M775 1451q192 0 350.5 -98t252.5 -263t94 -366q0 -200 -94 -365t-252.5 -263t-350.5 -98t-350.5 98t-253 263t-94.5 365q0 201 94.5 366t253 263t350.5 98zM775 231q128 0 233.5 66.5t168 178.5t62.5 248t-62.5 248.5t-168 179t-233.5 66.5t-233.5 -66.5t-168.5 -179
t-63 -248.5t63 -248t168.5 -178.5t233.5 -66.5z" />
    <glyph glyph-name="P" unicode="P" horiz-adv-x="1310" 
d="M749 691h-409v514h409q106 0 181.5 -75.5t75.5 -181.5q0 -107 -75.5 -182t-181.5 -75zM340 2v459h403l20 1q132 5 238.5 70.5t170 174.5t63.5 241t-64 241.5t-171 175t-241 69.5h-648v-1432h229z" />
    <glyph glyph-name="Q" unicode="Q" horiz-adv-x="1582" 
d="M1467 725q0 -121 -36 -230t-101 -200q50 -51 120 -53v-230h-4q-54 0 -129 27t-150 93q-84 -61 -184 -94.5t-209 -33.5q-191 0 -348 97.5t-251 261t-94 362.5t94 363t251 261.5t348 97.5t348 -97.5t251 -261.5t94 -363zM774 235q143 0 258 84q-37 76 -60 176q0 1 49.5 8
t103 15t72.5 11q38 92 38 196q0 135 -62 246.5t-167 177.5t-232 66t-232 -66t-167 -177.5t-62 -246.5t62 -246t167 -177.5t232 -66.5z" />
    <glyph glyph-name="R" unicode="R" horiz-adv-x="1310" 
d="M931 502q35 -132 88 -192.5t98 -76t56 -13.5l3 -228h-4q-49 0 -115.5 22t-135 75.5t-126 146t-90.5 232.5h-357v-456h-228v1422h644q132 -4 238.5 -69t170 -174t63.5 -240q0 -153 -84.5 -273.5t-220.5 -175.5zM348 696h405q76 0 138 40q54 35 86 91t32 124
q0 89 -53.5 156.5t-137.5 90.5q-31 8 -65 8h-405v-510z" />
    <glyph glyph-name="S" unicode="S" horiz-adv-x="1176" 
d="M555 0q-146 5 -278 73q-69 37 -121.5 84.5t-98.5 100.5l172 154q71 -86 154 -134q86 -44 179 -47h14q78 0 143 22t99 61q41 53 41 101q0 7 -1 13q-11 57 -56.5 97.5t-94.5 58.5q-30 12 -60 23q-129 48 -259 110q-63 28 -137 79.5t-121 141.5q-31 66 -31 134q0 73 35 142
q101 178 317 223q46 8 95 8q127 0 256 -51t225 -142l-161 -166q-62 59 -149.5 94t-170.5 35q-29 0 -55 -5q-104 -24 -152 -101q-9 -18 -9 -35q0 -18 9 -37q17 -34 57 -60.5t95 -53.5q114 -54 239 -100q31 -12 61 -24q121 -48 199 -137t96 -200q3 -24 3 -48q0 -65 -24.5 -130
t-71.5 -120q-68 -78 -177 -121t-238 -43h-23z" />
    <glyph glyph-name="T" unicode="T" horiz-adv-x="1146" 
d="M1125 1304q-53 -13 -98 -25q-84 -23 -161 -40.5t-176 -25.5v-1209h-229v1201h-20q-88 0 -179 2q-85 0 -229 2v226q67 0 191 1h42q98 -2 195 -2q36 0 71 1q39 0 76 2q111 5 189 21t171 42q45 12 100 26z" />
    <glyph glyph-name="U" unicode="U" horiz-adv-x="1442" 
d="M1295 1434v-843q0 -142 -61.5 -262.5t-167.5 -202.5q-75 -58 -166.5 -90t-192.5 -32t-192 32t-166 90q-105 82 -167 202.5t-62 262.5v843h229v-843q0 -99 48.5 -180t130 -129.5t179.5 -48.5q99 0 180.5 48.5t130 129.5t48.5 180v843h229z" />
    <glyph glyph-name="V" unicode="V" horiz-adv-x="1456" 
d="M1448 1434l-593 -1432h-259l-362 874l-95 228l-137 330h249l135 -327l95 -229l244 -589l312 751l163 394h248z" />
    <glyph glyph-name="W" unicode="W" horiz-adv-x="1733" 
d="M1729 1436l-83 -286l-169 -590l-65 -229l-94 -328h-249l-201 874l-5 18l-77 -335l-53 -229l-75 -328h-252l-250 874l-66 229l-94 330h249l158 -556h1l114 -402l20 84l201 873l1 1h248v-3l75 -324l52 -229h1l91 -396l22 78h1l249 874h250z" />
    <glyph glyph-name="X" unicode="X" horiz-adv-x="1361" 
d="M812 707l448 -706h-272l-347 548q-142 -131 -219 -246q-89 -144 -137 -302h-240q58 217 183 425q50 78 125.5 159.5t161.5 161.5l-435 687h272l333 -526q99 88 166 158q90 98 139 192.5t69 175.5h236q-21 -112 -84.5 -248t-191.5 -276q-87 -91 -209 -199z" />
    <glyph glyph-name="Y" unicode="Y" horiz-adv-x="1233" 
d="M1221 1434q-21 -112 -84.5 -247.5t-190.5 -274.5q-88 -92 -212 -202l-8 -8v-696h-229v650l-59 93l-434 685h271l335 -528q101 90 169 162q89 97 138 191.5t69 174.5h235z" />
    <glyph glyph-name="Z" unicode="Z" horiz-adv-x="1293" 
d="M1246 100q-68 -14 -123 -26q-123 -27 -238.5 -45.5t-279.5 -24.5q-112 -4 -225 -4q-111 0 -220 2h-7q-23 0 -33 1h-65v230l2 2l843 969h-834v230h1160v-205l-22 -25l-847 -974h5q118 -1 229 3q140 6 239 21.5t217 41.5q58 12 127 26z" />
    <glyph glyph-name="a" unicode="a" horiz-adv-x="1084" 
d="M929 961l67 -1v-953h-208v74q-116 -83 -260 -83q-129 0 -234.5 65.5t-168.5 176t-63 244.5t63 244t168.5 176t234.5 66q144 0 260 -84v75h141zM528 205q106 0 182 82t76 197t-76 196.5t-182 81.5q-107 0 -182.5 -81.5t-75.5 -196.5t75.5 -197t182.5 -82z" />
    <glyph glyph-name="b" unicode="b" horiz-adv-x="1021" 
d="M298 958h200q126 0 229.5 -64t165.5 -172.5t62 -239.5q0 -132 -62 -240t-165.5 -172.5t-229.5 -64.5h-354v2h-59v1330h213v-379zM498 218q101 0 172.5 77.5t71.5 186.5t-71.5 186t-172.5 77h-200v-526h187q6 0 13 -1z" />
    <glyph glyph-name="c" unicode="c" horiz-adv-x="948" 
d="M745 357l154 -140q-62 -97 -161.5 -154t-217.5 -57q-126 0 -230 64.5t-166 173t-62 240.5q0 131 62 239.5t166 173.5t230 65q87 0 164 -31.5t137 -87.5l-147 -142q-67 56 -154 56q-105 0 -179.5 -80t-74.5 -193t74.5 -193.5t179.5 -80.5q73 0 132.5 40.5t92.5 106.5z" />
    <glyph glyph-name="d" unicode="d" horiz-adv-x="1018" 
d="M721 1337h213v-1330h-59v-2h-354q-126 0 -229.5 64.5t-165.5 173t-62 239.5t62 239.5t165.5 173t229.5 64.5l25 -1h175v379zM278 482q0 -109 71 -186t172 -77h200v526h-200q-101 0 -172 -77t-71 -186z" />
    <glyph glyph-name="e" unicode="e" horiz-adv-x="1018" 
d="M936 660q33 -84 33 -180v-23q-12 -3 -23 -6q-97 -28 -191 -45q-73 -13 -174 -18q-78 -3 -158 -3q-46 0 -91 1h-61q28 -80 92.5 -130t146.5 -50q59 0 109.5 26.5t86.5 72.5l206 -78q-73 -104 -183 -165t-219 -61q-126 0 -230.5 64.5t-166.5 173.5t-62 241t62 241
t166.5 173.5t230.5 64.5q144 0 258 -82.5t168 -216.5zM572 593q95 3 162 17q-33 66 -92 105.5t-132 39.5q-77 0 -139.5 -45.5t-92.5 -118.5q27 0 54 -1q41 -1 81 -1q81 0 159 4z" />
    <glyph glyph-name="f" unicode="f" horiz-adv-x="868" 
d="M388 790q87 16 187 44q43 12 94 25l53 -208q-49 -13 -91 -25q-120 -34 -243 -53v-571h-215v556q-45 0 -92 -1h-28v214q50 0 120 2v82q0 56 12 108q45 199 203 311q120 84 268 84q132 0 241 -68l-120 -178q-56 31 -121 31q-85 0 -151 -50t-97 -130h-1q-1 -5 -3 -11t-4 -13
l-2 -6q0 -1 -1 -4l-2 -12q-7 -30 -7 -62v-65z" />
    <glyph glyph-name="g" unicode="g" horiz-adv-x="937" 
d="M655 957h197v-780q0 -51 -11 -99q-41 -182 -186 -285q-109 -77 -245 -77q-121 0 -221 62l110 164q51 -29 111 -29q77 0 137.5 45t89.5 119h-167q-116 0 -212 59.5t-153 159.5t-57 221q0 122 57 222t153 159.5t212 59.5h185v-1zM655 274v487h-185q-93 0 -159 -71.5
t-66 -172.5q0 -100 66 -171.5t159 -71.5h185z" />
    <glyph glyph-name="h" unicode="h" horiz-adv-x="1045" 
d="M949 5h-215v478q0 110 -71.5 187.5t-173.5 77.5h-177v-743h-214v1337h214v-380h20l-2 -4l2 4h181l24 -2q175 -23 289.5 -152t121.5 -315q1 -5 1 -10v-478z" />
    <glyph glyph-name="i" unicode="i" horiz-adv-x="418" 
d="M242 961l67 -1v-954h-208v955h141zM309 1157q0 -43 -30.5 -73.5t-73.5 -30.5t-73.5 30.5t-30.5 73.5t30.5 73.5t73.5 30.5t73.5 -30.5t30.5 -73.5z" />
    <glyph glyph-name="j" unicode="j" horiz-adv-x="534" 
d="M421 965v-801q0 -52 -11 -101q-43 -187 -191 -292q-112 -79 -251 -79q-124 0 -227 64l113 167q52 -30 114 -30q79 0 141.5 47t91.5 123q2 5 3 11l2 6q3 7 4 14l3 12q6 28 6 58v801h202z" />
    <glyph glyph-name="k" unicode="k" horiz-adv-x="983" 
d="M943 3h-265l-269 365q-55 -30 -113 -55v-316h-213v1330h213v-768q239 147 388 381l78 125l181 -112l-77 -125q-118 -191 -285 -335z" />
    <glyph glyph-name="l" unicode="l" horiz-adv-x="469" 
d="M332 1321v-1314h-211v1314h211z" />
    <glyph glyph-name="m" unicode="m" horiz-adv-x="1266" 
d="M1158 -2h-209v495q0 103 -64 176t-160 82v-754h-210v755h-212v-754h-209v963h615q11 0 22 -1h1l24 -2q171 -22 282.5 -148t119.5 -308v-504z" />
    <glyph glyph-name="n" unicode="n" horiz-adv-x="1026" 
d="M915 5h-207v499h-1v-9q0 106 -69 181t-167 75h-172v-746h-207v953h226v-1h133l20 1q11 0 21 -1h1l24 -2q169 -21 279.5 -146t117.5 -305q1 -4 1 -9v-490z" />
    <glyph glyph-name="o" unicode="o" horiz-adv-x="1021" 
d="M505 966q127 0 231.5 -65t166.5 -174t62 -242t-62 -242t-166.5 -174t-231.5 -65t-232 65t-167 174t-62 242t62 242t167 174t232 65zM505 210q105 0 180 80.5t75 194.5t-75 194.5t-180 80.5q-106 0 -181 -80.5t-75 -194.5t75 -194.5t181 -80.5z" />
    <glyph glyph-name="p" unicode="p" horiz-adv-x="957" 
d="M143 958h329q117 0 213.5 -60t154 -160.5t57.5 -223.5q0 -122 -57.5 -222.5t-154 -160.5t-213.5 -60h-186v-352h-198v1238h55v1zM286 269h186q94 0 160.5 72t66.5 173q0 102 -66.5 174t-160.5 72q-6 0 -12 -1h-174v-490z" />
    <glyph glyph-name="q" unicode="q" horiz-adv-x="1018" 
d="M861 957h59v-1325h-212v377h-199q-126 0 -229 64t-164.5 171.5t-61.5 238.5t61.5 239t164.5 172t229 64h352v-1zM708 221v524h-184q-2 0 -2 1h-13q-101 0 -172 -77t-71 -186q0 -108 71 -185t172 -77h199z" />
    <glyph glyph-name="r" unicode="r" horiz-adv-x="842" 
d="M841 839q-55 -13 -102 -24q-102 -24 -197 -40.5t-231 -22.5h-1v-748l-224 -1v952l108 1q54 1 106 3q116 4 198 18.5t179 37.5q47 11 105 24z" />
    <glyph glyph-name="s" unicode="s" horiz-adv-x="804" 
d="M395 2q-7 0 -15 1q-97 3 -186 48q-47 25 -82 57t-64 65l151 135q42 -51 88 -78q47 -24 99 -26h5q43 0 79 11t54 31q18 26 18 43v5q-5 26 -27 45.5t-49 30.5l-37 14q-82 30 -165 70q-42 19 -92 53.5t-82 97.5q-23 48 -23 97q0 52 25 102q70 123 219 154q31 5 64 5
q85 0 171.5 -34t149.5 -94l-140 -146q-35 33 -84.5 53t-95.5 20q-16 0 -30 -3q-51 -12 -74 -48q-3 -5 -3 -9t3 -10q9 -17 33 -31.5t49 -26.5q69 -33 147 -62l38 -14q172 -73 203 -234q2 -16 2 -32q0 -93 -67 -177q-47 -54 -121 -83.5t-161 -29.5z" />
    <glyph glyph-name="t" unicode="t" horiz-adv-x="852" 
d="M876 64q-106 -67 -234 -67q-143 0 -258 82q-154 109 -197 301q-11 51 -11 104v201q-57 -1 -114 -1h-27v206q55 0 141 3v417h208v-397q71 15 156 39q41 11 91 23l52 -201q-49 -12 -89 -24q-106 -30 -210 -48v-218q0 -31 6 -60q1 -6 3 -11q1 -8 4 -16q0 -2 2 -5l3 -12h1
q29 -78 93.5 -126.5t145.5 -48.5q64 0 118 31z" />
    <glyph glyph-name="u" unicode="u" horiz-adv-x="994" 
d="M899 958v-954h-207l-19 1h-132l-20 -1q-11 0 -22 1h-1l-23 2q-169 22 -279.5 146.5t-118.5 304.5v500h207v-491q0 -106 69.5 -181t167.5 -75h171v747h207z" />
    <glyph glyph-name="v" unicode="v" horiz-adv-x="993" 
d="M990 958l-395 -955h-195l-396 955h206l287 -693l288 693h205z" />
    <glyph glyph-name="w" unicode="w" horiz-adv-x="1215" 
d="M1191 966l-61 -212l-214 -749h-194l-114 494l-114 -494h-196l-214 749l-60 212h205l156 -547l126 547h194l125 -543l155 543h206z" />
    <glyph glyph-name="x" unicode="x" horiz-adv-x="928" 
d="M892 2h-247l-191 301l-30 48l-4 -4q-31 -37 -52 -71q-81 -131 -124 -274h-218q52 197 166 385q45 71 113 144l-271 427h247l151 -238l51 -80l9 -14q1 1 2 3q54 59 91 117q67 109 92 202q1 5 3 10h213q-19 -101 -76.5 -224.5t-173.5 -250.5q-16 -17 -34 -35z" />
    <glyph glyph-name="y" unicode="y" horiz-adv-x="1009" 
d="M909 958v-848q0 -55 -11 -106q-46 -198 -203 -310q-118 -84 -265 -84q-132 0 -241 68l120 178q55 -32 121 -32q83 0 149 50t97 130h-137l-20 -1q-12 0 -23 1h-1l-24 2q-174 23 -288.5 151.5t-121.5 314.5q-1 4 -1 9v477h214v-477q0 -109 71.5 -186.5t173.5 -77.5h176v741
h214z" />
    <glyph glyph-name="z" unicode="z" horiz-adv-x="955" 
d="M913 91q-49 -12 -89 -23q-88 -25 -171.5 -41.5t-201.5 -22.5q-80 -3 -161 -3q-82 0 -164 1q-24 1 -30 1t-10.5 0.5t-29.5 0.5v212l547 538h-547v209h826v-209l-555 -539l-4 -5q61 0 119 3q101 4 172 18.5t156 38.5q41 11 91 24z" />
    <glyph glyph-name="asciicircum" unicode="^" 
d="M909 1282l-105 -183l-291 168l-292 -168l-105 183l185 107l212 122l211 -122z" />
    <glyph glyph-name="grave" unicode="`" horiz-adv-x="606" 
d="M98 1553l317 2l60 -432l-129 -84z" />
    <glyph glyph-name="zero" unicode="0" horiz-adv-x="1393" 
d="M1133 1209q155 -211 155 -479v-23q-10 -289 -181 -495q-186 -208 -426 -208h-13q-256 10 -428 230q-156 212 -156 480v23q10 289 181 494q185 208 423 208h16q256 -10 429 -230zM932 362q119 143 126 350v15q0 194 -108 342q-106 135 -252 140h-9q-136 0 -249 -127
q-119 -143 -126 -351v-15q0 -194 108 -342q106 -134 252 -140h6q138 0 252 128z" />
    <glyph glyph-name="one" unicode="1" horiz-adv-x="824" 
d="M624 1434v-1432h-229v1008q-66 -49 -130 -69t-112 -20h-4v229h3q57 0 100 36.5t73 86t47.5 93t22.5 61.5l2 7h227z" />
    <glyph glyph-name="two" unicode="2" horiz-adv-x="1214" 
d="M292 238h-2v-1h2v1zM283 8h-51q8 -1 17 -1q17 0 34 1zM296 370l-6 -132v-1h2v1zM1130 235q-9 -56 -25 -119l-4 -13q-13 -48 -33 -98h-989v155q12 22 23 44q9 16 18 31q24 42 52 83q53 77 131.5 155.5t167.5 155.5q70 61 138 118q20 17 40 33q68 57 123 107q42 28 69 67
q19 27 24 59q1 6 1 13q0 48 -41 100q-34 39 -98.5 61t-142.5 22h-14q-93 -3 -178 -46q-84 -49 -154 -134l-172 154q46 52 98.5 99.5t121.5 84.5q131 67 277 72q11 1 23 1q129 0 237.5 -42.5t175.5 -120.5q15 -17 28 -36q69 -103 69 -213q0 -25 -4 -49q-14 -94 -74 -173
q-15 -15 -30 -31q-33 -33 -74 -69q-68 -60 -147 -127q-4 -4 -9 -8q-85 -70 -168 -144q-113 -99 -191 -190l-2 -2h733z" />
    <glyph glyph-name="three" unicode="3" horiz-adv-x="1090" 
d="M946 598q43 -85 43 -184q0 -98 -43 -183q-52 -103 -150 -166t-219 -63h-187q-110 0 -202 53q-23 13 -45 29q-61 46 -102 111l176 159q20 -54 66.5 -88.5t106.5 -34.5h187q75 0 129 53.5t54 129.5t-54 130t-129 54h-187v229h169q78 0 133.5 55.5t55.5 133.5t-55.5 133.5
t-133.5 55.5h-171q-92 0 -150 -76l-169 157q14 17 30 32q40 39 89 66q92 50 200 50h171q92 0 172 -37t138 -101q51 -56 79.5 -127.5t28.5 -152.5q0 -87 -32.5 -163t-90.5 -134q57 -52 92 -121z" />
    <glyph glyph-name="four" unicode="4" horiz-adv-x="1231" 
d="M1132 728l72 -222q-68 -14 -123 -26q-68 -14 -129 -26v-449h-229v415q-71 -7 -158 -10q-111 -3 -224 -3q-103 0 -204 1q-8 0 -15 1h-29v222l3 4l2 3l2 2l589 794h263v-744q25 5 54 11q57 13 126 27zM723 651v445l-341 -460q87 0 169 3q98 4 172 12z" />
    <glyph glyph-name="five" unicode="5" horiz-adv-x="1181" 
d="M876 887q94 -67 149 -170t55 -225q0 -141 -73 -256q-28 -45 -65 -83q-124 -126 -308 -144l-2 -1v-1h-222q-45 4 -88 16q-32 8 -63 21q-40 17 -76 40q-17 12 -40 29q-13 11 -25 22q-15 12 -25 21l25 21l25 22l43 37l82 71q25 -24 54 -40q46 -25 97 -31h177q105 0 180.5 75
t75.5 181q0 105 -72 178t-179 78h-489v686h242q19 0 37 1h36q42 1 83 3q110 5 188 20.5t171 41.5q45 12 99 26l57 -221q-28 -8 -54 -14l-14 -4q-15 -4 -29 -8q-51 -14 -97 -25q-63 -16 -130 -27l-174 -14q-118 -6 -173 -7h-13v-229h269v-1q150 -6 266 -89z" />
    <glyph glyph-name="six" unicode="6" horiz-adv-x="1176" 
d="M596 -3q-110 0 -212.5 48t-173.5 137q-81 103 -115 254q-27 123 -27 239q0 158 49 293q86 223 305 350q198 117 511 117v-228q-258 0 -409 -90q-132 -77 -194 -202q60 39 133 61.5t163 22.5q15 0 31 -1q210 -15 338 -178q49 -65 74.5 -144.5t25.5 -162.5q0 -93 -33 -183
q-46 -119 -138.5 -203.5t-213.5 -115.5q-57 -14 -114 -14zM309 562q-7 -26 -7 -56q0 -80 45 -144t114 -100.5t141 -36.5q29 0 58 7q144 43 202 181q17 48 17 99q0 91 -52 166q-67 84 -180 92h-19q-48 0 -93.5 -11t-87.5 -36q-48 -29 -85.5 -68t-52.5 -93z" />
    <glyph glyph-name="seven" unicode="7" horiz-adv-x="1181" 
d="M1133 1434q-15 -105 -61 -228q-47 -124 -142 -256q-77 -101 -186 -225q-5 -5 -9 -10q-72 -81 -143 -167q-124 -146 -187 -268q-62 -136 -91 -277h-233q32 188 118 375q41 83 106 172.5t140 178.5q60 70 118 136q17 20 34 39q89 102 149 181q44 62 75 121h-731v228h1043z
" />
    <glyph glyph-name="eight" unicode="8" horiz-adv-x="1165" 
d="M1097 459q4 -24 4 -49q0 -71 -31 -142l-31 -58q-15 -25 -34 -47q-67 -77 -175.5 -119.5t-236.5 -42.5h-27q-128 0 -236.5 42.5t-175.5 119.5q-18 22 -34 47l-31 58q-31 71 -31 142q0 25 4 49q36 199 238 310q-44 28 -84 67.5t-67 94.5q-31 66 -31 133q0 72 35 141
q0 2 1 3q57 105 170 167q68 38 143 51q46 8 95 8h36q48 0 94 -8q75 -13 143 -51q113 -62 170 -167q0 -1 1 -3q35 -69 35 -141q0 -67 -31 -133q-27 -55 -67 -94.5t-84 -67.5q202 -111 238 -310zM356 1101q-9 -18 -9 -35q0 -18 9 -36q16 -34 56 -60.5t95 -52.5q36 -18 73 -34
q37 16 72 34q55 26 94.5 52.5t56.5 60.5q9 18 9 36q0 17 -9 35q-23 40 -73 70q-75 29 -148 34h-5q-74 -5 -149 -34v-1q-49 -28 -72 -69zM856 349q16 35 16 64q0 6 -1 12q-11 57 -56 97t-94 58q-30 12 -59 23l-82 32q-42 -16 -83 -32q-29 -11 -59 -23q-49 -18 -94 -58
t-56 -97q-1 -6 -1 -12q0 -29 16 -64q10 -19 25 -37q34 -38 98.5 -60t141.5 -22h23q77 0 141.5 22t98.5 60q15 18 25 37z" />
    <glyph glyph-name="nine" unicode="9" horiz-adv-x="1166" 
d="M564 1440q110 0 212 -48.5t173 -136.5q81 -104 116 -254q27 -121 27 -236q0 -159 -50 -295q-84 -222 -304 -349q-197 -117 -509 -117v228q257 0 407 89q134 77 194 202q-60 -39 -133 -61.5t-162 -22.5q-15 0 -31 1q-209 16 -338 177q-49 66 -74 145.5t-25 162.5
q0 93 32 182q46 119 138.5 203.5t212.5 115.5q57 14 114 14zM851 875q7 26 7 56q0 80 -44.5 143.5t-113.5 100t-141 36.5q-30 0 -59 -7q-142 -41 -201 -180q-17 -48 -17 -99q0 -91 52 -166q67 -84 179 -91q12 -1 24 -1q46 0 90.5 11.5t85.5 36.5q48 28 85.5 67.5t52.5 92.5z
" />
    <glyph glyph-name="u0410" unicode="&#x410;" horiz-adv-x="1457" 
d="M855 1434l593 -1430h-248l-163 394q-88 -25 -175 -41.5t-209 -22.5q-88 -3 -178 -3h-88l-135 -327h-248l136 329v-1l1 4q0 1 -1 -2l95 228l361 872h259zM642 563q176 9 306 48l-222 537l-244 -588q82 0 160 3z" />
    <glyph glyph-name="u0411" unicode="&#x411;" horiz-adv-x="1340" 
d="M120 1436zM321 977h473q132 -5 238.5 -71t170 -174.5t63.5 -240.5t-64 -241t-171 -174.5t-240 -69.5q-5 -1 -11 -1h-688v1431h206q12 0 23 -1q73 -1 145 -1q89 0 174 3q111 5 189 21t171 42q45 12 100 26l57 -222q-53 -13 -98 -25q-97 -27 -188 -46t-220 -25
q-88 -3 -178 -3q-75 0 -152 1v-229zM321 234h459q106 0 181.5 75.5t75.5 181.5t-75.5 181.5t-181.5 75.5h-459v-514z" />
    <glyph glyph-name="u0412" unicode="&#x412;" horiz-adv-x="1339" 
d="M1067 885q94 -68 149 -171t55 -225q0 -133 -64 -242t-171 -174.5t-240 -70.5h-700v1432h703q143 -7 239 -105.5t96 -238.5q0 -115 -67 -205zM325 1205v-230h474h-9q48 0 81.5 33.5t33.5 81.5q0 47 -33.5 81t-81.5 34h-465zM325 231h460q106 0 181.5 75.5t75.5 182.5
q0 105 -72.5 178.5t-179.5 78.5h-465v-515z" />
    <glyph glyph-name="u0413" unicode="&#x413;" horiz-adv-x="1073" 
d="M1080 1305q-53 -14 -98 -26q-97 -27 -188 -45.5t-220 -24.5q-87 -4 -177 -4q-51 0 -102 1v-1200h-229v1430h155q37 -1 74 -1q61 -1 122 -1q75 0 147 3q110 5 188 21t171 42q45 12 100 26zM295 1435q-37 0 -74 1zM66 1436z" />
    <glyph glyph-name="u0414" unicode="&#x414;" horiz-adv-x="1349" 
d="M1178 272h112v-254l-8.5 -16.5t-27 -35.5t-47.5 -29q-27 -7 -55.5 -9.5t-50.5 -2.5q-15 0 -24.5 0.5l-9.5 0.5v123h-792v-125h-223v347l1 2q6 5 24 29t39.5 71t37.5 119t16 173v769h1010zM955 273l2 938h-564v-546q0 -131 -22.5 -228t-54.5 -164q0 -1 -1 -2q145 0 286 2
h354z" />
    <glyph glyph-name="u0415" unicode="&#x415;" horiz-adv-x="1246" 
d="M316 828h815v-230h-815v-366h812v-230h-1042v1434h206q12 -1 24 -1q81 -1 162 -1t158 3q111 5 189 21t171 42q45 12 100 26l57 -222q-54 -14 -97 -26q-98 -27 -189 -45.5t-221 -24.5q-88 -4 -178 -4q-76 0 -152 2v-378zM316 1436v-1q-12 0 -24 1h24z" />
    <glyph glyph-name="u0401" unicode="&#x401;" horiz-adv-x="1234" 
d="M313 830h815v-230h-815v-366h811v-230h-1041v1433h230q75 -2 150 -2q86 0 169 4q111 5 189 21t172 42q45 12 100 26l57 -222q-53 -14 -98 -26q-97 -27 -188 -45.5t-221 -25.5q-88 -3 -178 -3q-76 0 -152 1v-377zM313 1437h-24h24zM520 1588q0 -40 -28 -67.5t-67 -27.5
t-67 27.5t-28 67.5q0 39 28 67t67 28t67 -28t28 -67zM876 1627q0 -40 -27.5 -67.5t-67.5 -27.5q-39 0 -66.5 27.5t-27.5 67.5q0 39 27.5 67t66.5 28q40 0 67.5 -28t27.5 -67z" />
    <glyph glyph-name="u0416" unicode="&#x416;" horiz-adv-x="1532" 
d="M1519 4h-270l-133 212q-94 148 -229 260v-472h-229v492q-134 -106 -225 -251l-153 -241h-271l230 364q121 190 301 326l33 25l-33 25q-180 135 -301 326l-230 364h271l153 -242q91 -144 225 -250v492h229v-472q135 111 229 260l133 212h270l-209 -334
q-123 -195 -305 -338l-55 -43l55 -43q182 -143 305 -338z" />
    <glyph glyph-name="u0417" unicode="&#x417;" horiz-adv-x="1323" 
d="M690 4q-261 6 -499 115q-83 40 -157 91l129 185q59 -40 125 -72q87 -41 197 -67.5t216 -26.5q93 0 170.5 25.5t120.5 84.5q16 24 22.5 43.5t6.5 34.5q0 20 -6 34q-47 108 -201 161q-75 23 -151 24h-30q-35 0 -71 1q-24 0 -50 1l3 225h54q48 0 95 -1q83 0 161 32
q91 38 126 84q23 29 23 61q0 8 -1 16q-11 54 -65 90q-118 69 -264 69q-15 0 -31 -1q-171 -9 -388 -120l-102 201q258 133 476 144q25 2 49 2q209 0 381 -104q138 -91 167 -243q4 -26 4 -52q0 -108 -71 -203q-36 -46 -90 -84q140 -94 189 -230q18 -53 18 -107
q0 -107 -70 -209q-150 -204 -477 -204h-9z" />
    <glyph glyph-name="u0418" unicode="&#x418;" horiz-adv-x="1383" 
d="M1267 1434v-1431h-230v940l-27 -33q-84 -92 -200 -202l-9 -9q-76 -73 -152 -149q-132 -131 -205 -246q-81 -144 -124 -301h-229v1431h229v-921q92 118 212 234q63 63 125 122q18 18 36 35q95 91 159 163q83 97 125 191.5t60 175.5h230z" />
    <glyph glyph-name="u0419" unicode="&#x419;" horiz-adv-x="1344" 
d="M1250 1434v-1428h-229v938q-13 -16 -27 -32q-83 -92 -200 -203q-4 -4 -9 -8q-76 -73 -151 -149q-132 -131 -204 -245q-81 -144 -124 -301h-229v1428h229v-919q91 117 211 234q63 63 124 122q19 17 37 35q95 90 159 162q83 97 124.5 191.5t59.5 174.5h229zM538 1458
q-81 0 -165 1v206q41 0 142 -1q75 0 148 2q105 7 173.5 27t93.5 29l51 -200q-25 -9 -109 -32.5t-205 -31.5q-25 -1 -45 -1q-39 0 -84 1z" />
    <glyph glyph-name="u041A" unicode="&#x41a;" horiz-adv-x="1268" 
d="M1254 3h-285l-480 651l-24 -12l-148 -68v-571h-229v1431h229v-607l52 23q363 170 574 509l84 135l195 -120l-84 -136q-176 -283 -449 -469z" />
    <glyph glyph-name="u041B" unicode="&#x41b;" horiz-adv-x="1376" 
d="M1227 1434v-1424h-228v1196h-541v-598q0 -140 -29 -239t-71 -165t-85 -104q-37 -33 -72.5 -54t-65 -32.5t-48.5 -16t-24 -5.5l-32 226h-1q7 1 34.5 13t62.5 45q103 108 103 332v826h997z" />
    <glyph glyph-name="u041C" unicode="&#x41c;" horiz-adv-x="1469" 
d="M1374 1434v-1430h-229v1012l-243 -368l-56 -86l-19 -29h-190l-62 95l-253 385v-1009h-228v1430h224l336 -511l76 -116l99 148l318 479h227z" />
    <glyph glyph-name="u041D" unicode="&#x41d;" horiz-adv-x="1403" 
d="M1273 1440v-1439h-230v679q-1 0 -2 -1q-98 -27 -189.5 -45.5t-221.5 -24.5q-89 -4 -179 -4q-64 0 -128 1v-605h-231v1439h231v-603q70 -2 139 -2q80 0 157 4q112 5 190.5 21t171.5 42q29 7 62 16v522h230z" />
    <glyph glyph-name="u041E" unicode="&#x41e;" horiz-adv-x="1501" 
d="M728 1451q193 0 351 -98t252.5 -263t94.5 -366q0 -200 -94.5 -365t-252.5 -263t-351 -98q-192 0 -350.5 98t-252.5 263t-94 365q0 201 94 366t252.5 263t350.5 98zM728 231q129 0 234 66.5t168 178.5t63 248t-63 248.5t-168 179t-234 66.5q-128 0 -233.5 -66.5t-168 -179
t-62.5 -248.5t62.5 -248t168 -178.5t233.5 -66.5z" />
    <glyph glyph-name="u041F" unicode="&#x41f;" horiz-adv-x="1339" 
d="M1212 1434v-1431h-229v1202h-666v-1202h-229v1431h1124z" />
    <glyph glyph-name="u0420" unicode="&#x420;" horiz-adv-x="1301" 
d="M311 691h409q106 0 181.5 75t75.5 182q0 106 -75.5 181.5t-181.5 75.5h-409v-514zM731 1434q133 -4 240 -69.5t171 -175t64 -241.5t-63.5 -241t-170 -174.5t-238.5 -70.5l-20 -1h-403v-459h-229v1432h649z" />
    <glyph glyph-name="u0421" unicode="&#x421;" horiz-adv-x="1371" 
d="M1152 474l177 -157q-96 -148 -247 -235.5t-332 -87.5q-192 0 -350 98t-252.5 263t-94.5 365t94.5 365t252.5 263t350 98q132 0 249.5 -48t210.5 -134l-170 -160q-60 51 -134 80t-156 29q-128 0 -233.5 -66.5t-168 -178.5t-62.5 -248t62.5 -248t168 -178.5t233.5 -66.5
q129 0 234.5 67.5t167.5 179.5z" />
    <glyph glyph-name="u0422" unicode="&#x422;" horiz-adv-x="1154" 
d="M1135 1304q-53 -13 -98 -25q-84 -23 -161 -40.5t-176 -25.5v-1209h-229v1201h-20q-88 0 -179 2q-85 0 -229 2v226q67 0 191 1h42q98 -2 195 -2q36 0 71 1q39 0 76 2q111 5 189 21t171 42q45 12 100 26z" />
    <glyph glyph-name="u0423" unicode="&#x423;" horiz-adv-x="1225" 
d="M1140 488q0 -133 -64 -242.5t-171.5 -175t-240.5 -69.5v-1h-135q-79 7 -152 37q-40 17 -77 41q-47 32 -90 72l81 69l5 5l7 6l83 72q67 -63 152 -72h115q61 0 113 26q123 63 143 204h-364q-7 0 -14 1q-200 10 -333 145t-140 336v492h230v-492q1 -57 25 -106q26 -54 73 -91
q69 -55 159 -55h366v744h229v-946z" />
    <glyph glyph-name="u0424" unicode="&#x424;" horiz-adv-x="1577" 
d="M525 1434h524q130 -7 235 -72.5t168 -174t63 -238.5q0 -132 -63.5 -240.5t-169.5 -174t-238 -70.5h-142v-459h-229v459h-142q-132 5 -238.5 70.5t-169.5 174t-63 240.5q0 130 62.5 238.5t167.5 174t235 72.5zM673 692v513h-128q-106 0 -181.5 -75t-75.5 -181t75.5 -181.5
t181.5 -75.5h128zM902 692h127q106 0 181.5 75.5t75.5 181.5t-75.5 181t-181.5 75h-127v-513z" />
    <glyph glyph-name="u0425" unicode="&#x425;" horiz-adv-x="1284" 
d="M781 707l447 -706h-271l-348 548q-141 -131 -218 -246q-89 -144 -137 -302h-240q57 217 183 425q50 78 125.5 159.5t161.5 161.5l-436 687h272l334 -526q99 88 166 158q89 98 138.5 192.5t69.5 175.5h235q-21 -112 -84.5 -248t-190.5 -276q-87 -91 -209 -199z" />
    <glyph glyph-name="u0426" unicode="&#x426;" horiz-adv-x="1273" 
d="M1232 268v-252l-8 -16.5t-26.5 -35t-47.5 -28.5q-27 -7 -55.5 -9.5t-49.5 -2.5q-15 0 -24.5 0.5l-9.5 0.5v122h-931v1387h221v-1165h593v1165h221v-1166h117z" />
    <glyph glyph-name="u0427" unicode="&#x427;" horiz-adv-x="1279" 
d="M1192 1434v-1432h-229v459h-409q-7 0 -14 1q-200 10 -332.5 145t-139.5 336v491h229v-491q5 -107 78.5 -179.5t178.5 -72.5h409v743h229z" />
    <glyph glyph-name="u0428" unicode="&#x428;" horiz-adv-x="1495" 
d="M1381 1434v-1430h-1276v1430h229v-1201h299v1201h229v-1201h290v1201h229z" />
    <glyph glyph-name="u0429" unicode="&#x429;" horiz-adv-x="1453" 
d="M1419 272v-253l-8 -16.5t-26.5 -35t-47.5 -28.5q-29 -8 -59.5 -10.5t-52.5 -2.5q-13 0 -20.5 0.5l-7.5 0.5v123h-1031v1h-111v1383h221v-1162h290v1162h221v-1162h281v1162h221v-1162h130z" />
    <glyph glyph-name="u042A" unicode="&#x42a;" horiz-adv-x="1334" 
d="M791 976q132 -5 238.5 -70.5t170 -174.5t63.5 -241t-64 -241.5t-171.5 -175t-240.5 -69.5q-5 -1 -11 -1h-613v1204h-14q-43 0 -84 13l-38 12v229l38 -12q41 -13 84 -13h244v-459h383q8 0 15 -1zM393 233h383q107 0 182 75.5t75 181.5t-75 181.5t-182 75.5h-383v-514z" />
    <glyph glyph-name="u042B" unicode="&#x42b;" horiz-adv-x="1643" 
d="M331 977h397q133 -6 239 -71.5t169.5 -174.5t63.5 -240q0 -133 -64 -242t-171 -174.5t-240 -69.5q-5 -1 -11 -1h-612v1432h229v-459zM331 234h383q106 0 181.5 75.5t75.5 181.5t-75.5 181.5t-181.5 75.5h-383v-514zM1522 1436v-1432h-230v1432h230z" />
    <glyph glyph-name="u042C" unicode="&#x42c;" horiz-adv-x="1269" 
d="M319 976h396q132 -6 238.5 -71.5t170 -174t63.5 -239.5q0 -133 -64 -242t-171 -174t-240 -70h-622v1429h229v-458zM319 234h382q106 0 181.5 75t75.5 182q0 106 -75.5 181t-181.5 75h-382v-513z" />
    <glyph glyph-name="u042D" unicode="&#x42d;" horiz-adv-x="1350" 
d="M1311 723q0 -199 -93.5 -363t-251 -261.5t-348.5 -97.5q-180 0 -330.5 87t-245.5 234l176 156q61 -111 166.5 -178t233.5 -67q164 0 287.5 106.5t161.5 273.5q-28 -1 -55 -1q-91 0 -179 4q-131 5 -223 13t-190 34q-44 12 -98 26l57 224q55 -15 101 -27q94 -25 172.5 -30
t190.5 -9q81 -3 165 -3h57q-26 107 -90.5 190t-156.5 131.5t-200 48.5q-82 0 -155.5 -29t-133.5 -80l-169 160q92 85 209 132.5t249 47.5q191 0 348.5 -97.5t251 -261.5t93.5 -363z" />
    <glyph glyph-name="u042E" unicode="&#x42e;" horiz-adv-x="1831" 
d="M1072 1435q189 0 345 -97t249 -259.5t93 -359.5q0 -198 -93 -360.5t-249 -259t-345 -96.5q-174 0 -320 81.5t-241 220.5t-120 315h-82v-618h-229v1433h229v-585h87q31 168 126.5 299.5t238.5 208.5t311 77zM1072 232q126 0 230 66t165.5 176.5t61.5 244.5t-61.5 244.5
t-165.5 176t-230 65.5q-127 0 -230.5 -65.5t-165.5 -176t-62 -244.5t62 -244.5t165.5 -176.5t230.5 -66z" />
    <glyph glyph-name="u042F" unicode="&#x42f;" horiz-adv-x="1290" 
d="M529 1434h646v-1425h-228v457h-358q-34 -140 -91.5 -233t-126 -146.5t-135.5 -75.5t-116 -22h-4l4 228q10 -2 55 14t98.5 76.5t88.5 192.5q-136 55 -221 176t-85 274q0 132 64 240.5t170.5 174t238.5 69.5zM947 694v512h-407q-33 0 -65 -9q-84 -23 -137.5 -90.5
t-53.5 -156.5q0 -68 32 -124.5t86 -90.5q62 -41 138 -41h407z" />
    <glyph glyph-name="u0430" unicode="&#x430;" horiz-adv-x="928" 
d="M344 609zM837 209l58 -193q-6 -2 -28.5 -6.5t-54.5 -4.5q-33 0 -71 9t-74 35q-9 8 -20 18v-1q-40 -41 -114.5 -53t-127.5 -12q-24 0 -38.5 1l-14.5 1h-8q-33 2 -65 9q-24 6 -47 16q-75 33 -123 97q-60 79 -60 181q0 123 85 210t210 93h230q0 126 -80 142q-23 4 -48 4
q-49 0 -97 -16.5t-72 -48.5l-165 117q57 78 149 114t185 36q45 0 86 -8q128 -25 194 -135q50 -87 50 -204q1 -175 1 -261q-1 -36 -1 -84q0 -25 4 -38t8 -16q9 -5 24 -5t25 3zM575 245q-1 10 -1 20q0 49 1 86v56h-232q-3 -1 -7 -1q-3 0 -6 -1q-34 -8 -56.5 -35.5t-22.5 -63.5
q0 -42 35 -76.5t105 -34.5l69 4q51 8 75 18.5t40 27.5z" />
    <glyph glyph-name="u0431" unicode="&#x431;" horiz-adv-x="1091" 
d="M548 968q128 0 233.5 -65.5t168 -175.5t62.5 -244q0 -133 -62.5 -243t-168 -175.5t-233.5 -65.5t-233.5 65.5t-167.5 174t-64 243.5v1q0 20 -1 376q0 240 152 384q146 130 369 130q33 0 67 -3q6 -1 12 -1q23 0 42.5 6.5t34 15t22.5 14.5t8 7l149 -144q-6 -7 -38 -32.5
t-87.5 -49.5t-129.5 -24q-15 0 -30 1q-26 2 -50 2q-144 0 -229 -75q-76 -71 -84 -203q114 81 258 81zM548 206q106 0 181.5 81.5t75.5 195.5q0 115 -75.5 196.5t-181.5 81.5q-107 0 -181 -79.5t-77 -197.5v-1q0 -114 75.5 -195.5t182.5 -81.5z" />
    <glyph glyph-name="u0432" unicode="&#x432;" horiz-adv-x="969" 
d="M744 589q71 -41 113.5 -112.5t42.5 -157.5q0 -99 -54.5 -177t-142.5 -114q-11 -4 -23 -8q-44 -14 -93 -14h-516v952h427q108 0 185 -75q13 -12 23 -26q59 -72 59 -166q0 -54 -21 -102zM278 751v-119h220q24 0 41.5 17.5t17.5 41.5q0 25 -17.5 42.5t-41.5 17.5h-220z
M278 213h309q44 0 75 31t31 75q0 43 -30 73.5t-74 31.5h-311v-211z" />
    <glyph glyph-name="u0433" unicode="&#x433;" horiz-adv-x="809" 
d="M798 838q-48 -12 -88 -23q-88 -24 -170.5 -40.5t-199.5 -22.5l-69 -3v-745h-203v952h161q53 0 102 3q100 5 170.5 19t154.5 37q41 12 90 24zM105 956z" />
    <glyph glyph-name="u0434" unicode="&#x434;" horiz-adv-x="1012" 
d="M894 211h77v-238l-8 -15.5t-25 -33t-44 -26.5q-27 -7 -55 -9.5t-48 -2.5q-13 0 -20.5 0.5l-7.5 0.5v116h-522v-116h-209v324q1 1 12.5 14t27.5 40t32 70t27 103.5t11 140.5v383h752v-751zM686 211v542h-336v-174q0 -123 -21 -214t-51 -154h408z" />
    <glyph glyph-name="u0435" unicode="&#x435;" horiz-adv-x="1030" 
d="M936 660q34 -84 34 -180q0 -12 -1 -23l-22 -6q-98 -28 -192 -45q-73 -13 -173 -18q-79 -3 -159 -3q-45 0 -91 1h-61q28 -80 92.5 -130t146.5 -50q59 0 110 26.5t86 72.5l206 -78q-73 -104 -182.5 -165t-219.5 -61q-126 0 -230.5 64.5t-166.5 173.5t-62 241t62 241
t166.5 173.5t230.5 64.5q145 0 259 -82.5t167 -216.5zM572 593q95 3 162 17q-33 66 -92 105.5t-132 39.5q-77 0 -139.5 -45.5t-92.5 -118.5q27 0 54 -1q41 -1 82 -1q81 0 158 4z" />
    <glyph glyph-name="u0451" unicode="&#x451;" horiz-adv-x="1019" 
d="M934 662q34 -84 34 -180q0 -12 -1 -24l-22 -6q-98 -28 -193 -45q-73 -13 -174 -18q-79 -3 -159 -3h-92q-30 1 -61 1q28 -80 93 -130.5t147 -50.5q119 0 197 100l207 -79q-74 -105 -184 -166t-220 -61q-127 0 -231.5 65t-167 174.5t-62.5 242.5q0 132 62.5 241.5
t167 174.5t231.5 65q145 0 259.5 -83t168.5 -218zM569 594q95 5 162 18q-33 66 -92 105.5t-133 39.5q-78 0 -140.5 -45t-92.5 -119q27 0 54 -1q45 -1 90 -1q78 0 152 3zM376 1148q0 -42 -30.5 -72.5t-72.5 -30.5q-43 0 -73 30.5t-30 72.5q0 43 30 73t73 30q42 0 72.5 -30
t30.5 -73zM762 1191q0 -43 -30 -73t-73 -30t-73 30t-30 73q0 42 30 72.5t73 30.5t73 -30.5t30 -72.5z" />
    <glyph glyph-name="u0436" unicode="&#x436;" horiz-adv-x="1214" 
d="M1158 6h-234l-115 192q-44 73 -100 137q-4 5 -7 9v-338h-207v324q-42 -50 -76 -106l-134 -218h-239l202 329q44 70 97 133q-68 75 -121 163l-201 329h237l133 -219q43 -70 97 -130q2 -3 5 -6v355h207v-356l10 10q65 71 115 154l117 192h237l-184 -302q-61 -100 -139 -186
q66 -76 119 -164z" />
    <glyph glyph-name="u0437" unicode="&#x437;" horiz-adv-x="889" 
d="M470 1q-91 0 -179 22t-154 54q-54 26 -102 59l117 169q34 -24 73 -43q125 -55 242 -55q53 0 95 13.5t63 41.5q13 20 13 31q0 7 -2 10q-24 53 -105 80q-42 13 -86 14h-63q-15 0 -31 1l3 205h34q29 0 59 -1q46 0 88 17q49 22 66 43q7 12 7 19v4q-4 21 -26 35
q-64 38 -145 38q-10 0 -20 -1q-101 -5 -230 -71l-93 183q168 86 310 93q17 1 34 1q139 0 254 -70q98 -64 119 -173q3 -19 3 -39q0 -78 -51 -145q-13 -17 -30 -32q66 -52 97 -134q13 -39 13 -78q0 -77 -50 -149q-57 -78 -142.5 -110t-180.5 -32z" />
    <glyph glyph-name="u0438" unicode="&#x438;" 
d="M916 958v-956h-208v589h-1q-58 -65 -129 -131l-5 -5q-50 -48 -97 -95q-94 -96 -128 -153q-50 -84 -61 -189l-3 -16h-208v956h208v-531q44 49 85 90q38 37 76 73l20 20l8 7q64 62 100 103q108 126 133 225l2 9l1 4h207z" />
    <glyph glyph-name="u0439" unicode="&#x439;" horiz-adv-x="1009" 
d="M919 962v-959h-209v591q-1 0 -1 -1q-59 -64 -129 -131l-5 -5q-50 -48 -98 -96q-94 -95 -128 -153q-50 -84 -61 -189l-3 -16h-209v959h209v-533q44 49 85 90q38 38 76 74l5 5q8 7 16 15l7 7q64 61 101 103q107 126 133 226l2 8l1 5h208zM275 1035v198q77 0 168 4
q105 6 174.5 25.5t94.5 28.5l52 -193q-26 -8 -110.5 -31t-207.5 -31q-42 -1 -87 -1h-84z" />
    <glyph glyph-name="u043A" unicode="&#x43a;" horiz-adv-x="960" 
d="M913 2h-260l-264 358q-54 -29 -111 -54v-304h-209v960h209v-414q235 144 381 373l76 124l178 -110l-76 -124q-116 -186 -280 -328z" />
    <glyph glyph-name="u043B" unicode="&#x43b;" horiz-adv-x="1057" 
d="M960 958v-952h-207v745h-352v-204q0 -126 -26 -216t-64.5 -149.5t-77.5 -94.5q-45 -40 -86.5 -61t-69.5 -28.5t-34 -7.5l-29 204h-1q6 0 31 11.5t57 41.5q93 98 93 300v411h766z" />
    <glyph glyph-name="u043C" unicode="&#x43c;" horiz-adv-x="1107" 
d="M1002 958v-956h-208v579l-126 -189l-33 -49h-184l-163 242v-583h-208v956h208l255 -379l251 377l1 2h207z" />
    <glyph glyph-name="u043D" unicode="&#x43d;" horiz-adv-x="1019" 
d="M916 958v-956h-208v398q-104 -26 -258 -34q-80 -4 -161 -4h-1v-360h-208v956h208v-388q81 1 152 4q155 7 268 41v343h208z" />
    <glyph glyph-name="u043E" unicode="&#x43e;" horiz-adv-x="1019" 
d="M501 966q127 0 231.5 -65t166.5 -174t62 -242t-62 -242t-166.5 -174t-231.5 -65t-232 65t-167 174t-62 242t62 242t167 174t232 65zM501 210q105 0 180 80.5t75 194.5t-75 194.5t-180 80.5q-106 0 -181 -80.5t-75 -194.5t75 -194.5t181 -80.5z" />
    <glyph glyph-name="u043F" unicode="&#x43f;" 
d="M909 958v-957h-208v749h-420v-749h-208v957h836z" />
    <glyph glyph-name="u0440" unicode="&#x440;" horiz-adv-x="971" 
d="M144 958h329q118 0 214.5 -60t153.5 -160.5t57 -223.5q0 -122 -57 -222.5t-153.5 -160.5t-214.5 -60h-186v-352h-198v1238h55v1zM287 269h186q94 0 160.5 72t66.5 173q0 102 -66.5 174t-160.5 72q-6 0 -12 -1h-174v-490z" />
    <glyph glyph-name="u0441" unicode="&#x441;" horiz-adv-x="900" 
d="M714 357l154 -140q-62 -97 -161.5 -154t-217.5 -57q-126 0 -230 64.5t-166 173t-62 240.5q0 131 62 239.5t166 173.5t230 65q87 0 164 -31.5t137 -87.5l-147 -142q-67 56 -154 56q-105 0 -179.5 -80t-74.5 -193t74.5 -193.5t179.5 -80.5q73 0 132.5 40.5t92.5 106.5z" />
    <glyph glyph-name="u0442" unicode="&#x442;" horiz-adv-x="836" 
d="M807 843q-49 -13 -89 -24q-97 -27 -190 -45v-769h-208v749q-65 -2 -133 -2q-46 0 -92 1q-36 0 -69 1v207h69q55 -1 110 -1q68 0 133 3q101 5 171.5 19t154.5 38q42 11 91 24z" />
    <glyph glyph-name="u0443" unicode="&#x443;" horiz-adv-x="971" 
d="M899 958v-848q0 -55 -11 -106q-46 -198 -203 -310q-118 -84 -265 -84q-132 0 -241 68l120 178q55 -32 121 -32q83 0 149 50t97 130h-137l-20 -1q-12 0 -23 1h-1l-24 2q-174 23 -288.5 151.5t-121.5 314.5q-1 4 -1 9v477h214v-477q0 -109 71.5 -186.5t173.5 -77.5h176v741
h214z" />
    <glyph glyph-name="u0444" unicode="&#x444;" horiz-adv-x="1187" 
d="M893 910q112 -61 179.5 -173t67.5 -250q0 -137 -67 -248.5t-177 -172.5q-12 -7 -24 -13q-78 -38 -170 -42h-6v-379h-213v378q-95 3 -176 43q-12 5 -24 12q-110 62 -176.5 173t-66.5 248q0 138 67.5 250t179.5 173q11 6 23 12q87 42 187 42h186q100 0 187 -42
q12 -5 23 -11zM483 223v526h-1q-100 -9 -164 -84q-65 -76 -65 -179t65 -178q63 -75 162 -85h3zM862 308q65 76 65 179t-65 178q-61 73 -157 84q-3 1 -7 1h-2v-526q101 8 166 84z" />
    <glyph glyph-name="u0445" unicode="&#x445;" horiz-adv-x="933" 
d="M889 2h-247l-191 301l-22 35l-8 13l-4 -4q-31 -37 -52 -71q-80 -131 -124 -274h-218q52 197 166 385q45 71 113 144l-271 427h247l151 -238l51 -80l9 -14q1 1 2 3q54 59 91 117q67 109 92 202q1 5 3 10h213q-19 -101 -76.5 -224.5t-173.5 -250.5q-15 -17 -34 -35z" />
    <glyph glyph-name="u0446" unicode="&#x446;" horiz-adv-x="987" 
d="M948 212v-237l-8 -15.5t-25 -33t-44 -26.5q-27 -7 -55 -9.5t-48 -2.5q-13 0 -20.5 0.5l-7.5 0.5v116h-480v-1h-22q-22 0 -46 -1h-117v960h208v-750h376v748h208v-749h81zM283 5v-1h-23v1h23z" />
    <glyph glyph-name="u0447" unicode="&#x447;" horiz-adv-x="976" 
d="M888 957v-954h-207v251h-198q-181 10 -301.5 132t-126.5 304v267h208v-267q4 -96 68.5 -160.5t161.5 -67.5h188v495h207z" />
    <glyph glyph-name="u0448" unicode="&#x448;" horiz-adv-x="1149" 
d="M1058 963v-959h-978v959h209v-750h180v750h209v-750h171v750h209z" />
    <glyph glyph-name="u0449" unicode="&#x449;" horiz-adv-x="1159" 
d="M1128 210v-237l-8 -15.5t-25 -33t-44 -26.5q-26 -7 -54 -9.5t-49 -2.5q-13 0 -20.5 0.5l-7.5 0.5v116h-843v955h208v-747h179v747h208v-747h171v747h208v-748h77z" />
    <glyph glyph-name="u044A" unicode="&#x44a;" horiz-adv-x="1035" 
d="M719 694q123 -26 202.5 -120.5t79.5 -220.5q0 -128 -80.5 -223t-204.5 -119q-31 -6 -63 -6h-500v745h-14q-38 0 -76 11l-34 11v208l34 -11q38 -12 76 -12h221v-257h293q34 0 66 -6zM360 212h293q58 0 99 41t41 100q0 57 -41 98.5t-99 41.5h-293v-281zM360 957z" />
    <glyph glyph-name="u044B" unicode="&#x44b;" horiz-adv-x="1296" 
d="M659 697q124 -25 203.5 -120t79.5 -223t-80.5 -223.5t-205.5 -120.5q-31 -6 -63 -6h-504v958h209v-258h295q34 0 66 -7zM298 213h295q58 0 99.5 41.5t41.5 99.5t-41.5 99.5t-99.5 41.5h-295v-282zM1191 962v-958h-209v958h209z" />
    <glyph glyph-name="u044C" unicode="&#x44c;" horiz-adv-x="998" 
d="M631 697q124 -26 204 -120.5t80 -222.5t-81 -223.5t-206 -120.5q-30 -6 -63 -6h-503v958h208v-258h295q34 0 66 -7zM270 213h295q58 0 99.5 41.5t41.5 99.5t-41.5 99.5t-99.5 41.5h-295v-282z" />
    <glyph glyph-name="u044D" unicode="&#x44d;" horiz-adv-x="933" 
d="M881 484q0 -72 -20 -139q-45 -153 -166 -249.5t-279 -96.5q-120 0 -220.5 58t-164.5 156l157 143q33 -68 93.5 -109t134.5 -41t134.5 41t93.5 108q-110 5 -220 34q-40 11 -88 24l51 200q50 -13 91 -24q99 -26 186 -29q-25 89 -92.5 145.5t-155.5 56.5t-156 -57l-149 143
q61 57 139.5 89t165.5 32q117 0 216 -55.5t163 -149t81 -212.5q5 -33 5 -68z" />
    <glyph glyph-name="u044E" unicode="&#x44e;" horiz-adv-x="1279" 
d="M774 957q128 0 233 -65.5t168 -175t63 -243.5q0 -133 -63 -243t-168 -175.5t-233 -65.5q-111 0 -205.5 50t-159 135.5t-88.5 195.5h-54v-361h-207v949h207v-381h54q24 109 88.5 194.5t159 135.5t205.5 50zM774 196q106 0 181.5 81.5t75.5 195.5q0 115 -75.5 196
t-181.5 81t-181 -81t-75 -196q0 -114 75 -195.5t181 -81.5z" />
    <glyph glyph-name="u044F" unicode="&#x44f;" horiz-adv-x="992" 
d="M396 958h499v-949h-206v256h-222q-52 -107 -119.5 -168t-136 -86t-117.5 -25h-4l4 207q11 -3 57.5 15.5t98.5 88.5q-90 43 -145 126.5t-55 187.5q0 128 80 222t204 119q30 6 62 6zM689 472v279h-294q-59 -2 -98.5 -42t-39.5 -98q0 -74 66 -118q33 -21 73 -21h293z" />
    <glyph glyph-name="underscore" unicode="_" horiz-adv-x="1024" 
d="M1017 -271h-1014v212h1014v-212z" />
    <glyph glyph-name="hyphen" unicode="-" horiz-adv-x="931" 
d="M75 672h769v-219h-769v219z" />
    <glyph glyph-name="hyphen" unicode="&#xad;" horiz-adv-x="931" 
d="M75 672h769v-219h-769v219z" />
    <glyph glyph-name="endash" unicode="&#x2013;" horiz-adv-x="1276" 
d="M59 650h1137v-219h-1137v219z" />
    <glyph glyph-name="emdash" unicode="&#x2014;" horiz-adv-x="1945" 
d="M92 660h1759v-219h-1759v219z" />
    <glyph glyph-name="parenleft" unicode="(" horiz-adv-x="785" 
d="M271 640h1l1 -65q0 -22 3 -44l2 -25q3 -42 10 -85q11 -94 47 -213q31 -98 80 -193q52 -92 116 -157q69 -66 145 -97l18 -6l20 -8l64 -10l1 -12v-125h-76q-25 3 -51 8l-10 2q-116 27 -216 103q-91 72 -169 182l-7 10q-33 48 -60 101q-30 61 -53 118q-8 20 -14 41l-7 21
q-4 9 -6 17q-8 22 -14 46q-17 63 -28 129q-2 10 -4 22q-5 22 -8 43l-5 66q-3 27 -5 56l-2 80l2 72q1 25 4 54l6 68q4 23 7 44q2 11 5 22q19 119 68 253l25 61q9 20 19 38l10 20q25 49 55 94l10 16q80 111 170 183q100 76 216 103q44 11 90 11q19 0 37 -2l11 -1v-138h-11
q-50 -4 -90 -21q-76 -30 -147 -98q-63 -65 -115 -157q-49 -90 -81 -193q-28 -88 -47 -212q-7 -45 -10 -87l-1 -20q-3 -22 -4 -47z" />
    <glyph glyph-name="bracketleft" unicode="[" horiz-adv-x="758" 
d="M351 1206v-970h272v-229h-500v1427h500v-228h-272z" />
    <glyph glyph-name="parenright" unicode=")" horiz-adv-x="769" 
d="M492 708q0 24 -2 47l-2 20q-2 42 -10 87q-18 124 -46 212q-31 103 -77 193q-51 92 -112 157q-70 68 -143 98q-40 17 -87 21h-12v138l11 1q18 2 36 2q46 0 87 -11q113 -27 210 -103q89 -72 166 -183l10 -16q28 -45 53 -94q4 -10 9 -20q10 -18 19 -38l24 -61
q48 -134 67 -253l4 -22q5 -21 6 -44l7 -68q3 -28 3 -54l2 -72l-2 -80q-1 -29 -3 -56l-7 -66q-2 -21 -6 -43q-3 -12 -5 -22q-10 -66 -27 -129q-6 -24 -13 -46q-4 -8 -6 -17l-6 -21q-6 -21 -15 -41q-21 -57 -52 -118q-26 -53 -57 -101l-6 -10q-76 -110 -165 -182
q-97 -76 -211 -103l-10 -2q-24 -5 -49 -8h-74v125l1 12l62 10l20 8q10 3 17 6q74 31 142 97q62 65 112 157q47 95 78 193q34 119 46 213q6 43 9 85l2 25q2 22 2 44l3 65h1z" />
    <glyph glyph-name="bracketright" unicode="]" horiz-adv-x="758" 
d="M381 1209h-273v231h504v-1439h-504v230h273v978z" />
    <glyph glyph-name="guillemotleft" unicode="&#xab;" horiz-adv-x="1015" 
d="M296 720v0l340 776h-211l-235 -536l-105 -240l105 -241l235 -536h211zM625 720v0l300 683h-186l-207 -472l-92 -211l92 -212l207 -471h186z" />
    <glyph glyph-name="quotedblleft" unicode="&#x201c;" horiz-adv-x="910" 
d="M409 208q8 -26 8 -52q0 -11 -1 -22q-9 -66 -37 -123q-30 -63 -79 -111t-116 -67l-15 22q27 20 47 45q19 23 25 52q3 11 3 28q0 13 -6 17q-62 10 -100.5 54.5t-38.5 103.5q0 11 2 22q10 61 54.5 99.5t102.5 38.5q11 0 22 -2q95 -16 129 -105zM839 208q8 -26 8 -52
q0 -11 -1 -22q-8 -66 -38 -123q-29 -63 -78 -111t-116 -67l-15 22q27 20 47 45q19 23 25 52q3 12 3 29q0 13 -6 16q-62 10 -100.5 54.5t-38.5 103.5q0 11 2 22q10 61 54.5 99.5t102.5 38.5q11 0 22 -2q95 -16 129 -105z" />
    <glyph glyph-name="guillemotright" unicode="&#xbb;" horiz-adv-x="1015" 
d="M714 720v0l-341 -777h211l235 536l106 241l-106 240l-235 536h-211zM384 720v0l-299 -683h185l207 471l93 212l-93 211l-207 472h-185z" />
    <glyph glyph-name="quotedblright" unicode="&#x201d;" horiz-adv-x="910" 
d="M527 1243q-7 22 -7 45q0 10 1 19q7 57 32 107q26 54 68.5 95.5t100.5 58.5l13 -19q-23 -17 -41 -39q-15 -20 -22 -45q-3 -10 -3 -25q0 -11 6 -14q53 -9 86.5 -47.5t33.5 -90.5q0 -9 -1 -18q-9 -53 -47.5 -86t-90.5 -33q-9 0 -18 1q-82 14 -111 91zM154 1243q-7 23 -7 45
q0 10 1 19q8 57 33 107q26 54 68 95.5t101 58.5l12 -19q-23 -17 -41 -39q-16 -20 -21 -45q-3 -10 -3 -25q0 -11 6 -14q53 -9 86 -47.5t33 -90.5q0 -9 -1 -18q-8 -53 -47 -86t-90 -33q-9 0 -18 1q-82 14 -112 91z" />
    <glyph glyph-name="exclam" unicode="!" horiz-adv-x="672" 
d="M467 1435l-19 -1096h-190l-14 1096h223zM467 115q0 -46 -32.5 -78.5t-78.5 -32.5t-79 32.5t-33 78.5t33 79t79 33t78.5 -33t32.5 -79z" />
    <glyph glyph-name="quotedbl" unicode="&#x22;" horiz-adv-x="826" 
d="M318 1485q8 -27 8 -56q0 -9 -1 -18q-8 -66 -38 -123q-30 -63 -79 -111t-116 -67l-15 22q27 20 48 45q17 23 24 52q4 12 4 29q0 13 -7 16q-61 10 -99.5 55t-38.5 104q0 11 1 21q10 61 54.5 99.5t103.5 38.5q11 0 22 -2q95 -16 129 -105zM748 1485q8 -27 8 -56q0 -9 -1 -18
q-9 -66 -38 -123q-30 -63 -79 -111t-116 -67l-15 22q27 20 48 45q17 23 24 52q4 12 4 29q0 13 -7 16q-61 10 -99.5 55t-38.5 104q0 11 1 21q10 61 54.5 99.5t103.5 38.5q11 0 22 -2q95 -16 129 -105z" />
    <glyph glyph-name="numbersign" unicode="#" horiz-adv-x="1555" 
d="M1107 492q-3 -3 -5 -6q-34 -39 -68 -79h186v-155h-306q-22 -33 -36 -62q-42 -91 -62 -187h-158q22 125 78 249h-264q-22 -33 -36 -62q-42 -91 -62 -187h-158q22 125 78 249h-137v155h235q34 44 71 88q40 47 80 93l14 16h-174v154h299q20 31 36 60q42 84 54 155h157
q-9 -71 -41 -155q-12 -29 -27 -60h263q21 31 36 60q42 84 54 155h157q-9 -71 -41 -155q-12 -29 -27 -60h135v-154h-236q-43 -53 -95 -112zM985 588l14 16h-239q-43 -53 -95 -112q-3 -3 -5 -6q-34 -39 -68 -79h242q34 44 71 88q41 47 80 93z" />
    <glyph glyph-name="percent" unicode="%" horiz-adv-x="1610" 
d="M1191 661q117 0 200.5 -97t83.5 -233q0 -137 -83.5 -233.5t-200.5 -96.5t-200.5 96.5t-83.5 233.5q0 136 83.5 233t200.5 97zM1191 178q43 0 74.5 45.5t31.5 107.5t-31.5 107t-74.5 45t-74.5 -45t-31.5 -107t31.5 -107.5t74.5 -45.5zM470 1445q117 0 200 -97t83 -233
q0 -137 -83 -233.5t-200 -96.5q-118 0 -201 96.5t-83 233.5q0 136 83 233t201 97zM470 962q43 0 74.5 45.5t31.5 107.5t-31.5 107t-74.5 45q-44 0 -75.5 -45t-31.5 -107t31.5 -107.5t75.5 -45.5zM1463 1427q-21 -111 -84 -246t-190 -274q-88 -92 -212 -202q-4 -4 -9 -8
q-81 -73 -161 -149q-140 -130 -217 -244q-88 -143 -136 -300h-238q56 215 181 422q50 78 125 158.5t160 160.5q67 62 133 121q20 18 38 35q101 90 169 161q89 97 138 191t69 174h234z" />
    <glyph glyph-name="ampersand" unicode="&#x26;" horiz-adv-x="1376" 
d="M645 236h10q129 0 211 54l-324 308q-15 -6 -31 -12q-2 -1 -4 -1q-49 -19 -93.5 -58.5t-55.5 -96.5q-1 -6 -1 -12q0 -30 16 -63q10 -20 24 -37q79 -82 248 -82zM426 1102q-10 -17 -10 -35q0 -17 9 -35q4 -9 9 -17h1l159 -152q27 11 54 23q37 16 72 33q54 27 93.5 53
t56.5 60q9 18 9 36q0 17 -9 34q-23 41 -73 70q-74 31 -151 31q-29 0 -58 -4q-47 -8 -92.5 -30.5t-69.5 -66.5zM1276 348l-66 -72l66 -63l-166 -156l-78 74q-150 -123 -371 -123h-27q-127 0 -234.5 42.5t-175.5 118.5q-19 22 -34 47l-31 58q-30 70 -30 140q0 25 4 50
q34 194 230 305l-37 34v1q-30 23 -56 53q-17 19 -32 43q-10 16 -19 34q-31 67 -31 133q0 70 35 140l1 1v1q57 104 169 167h1q66 37 142 50q45 8 93 8h38q47 0 92 -8q76 -13 142 -50h1q112 -63 169 -167v-1l1 -1q35 -70 35 -140q0 -66 -31 -133q-27 -55 -67 -94.5t-84 -67.5
q-56 -34 -102 -56q-1 0 -1 -1q-24 -12 -48 -23l271 -259l63 69z" />
    <glyph glyph-name="asterisk" unicode="*" horiz-adv-x="850" 
d="M585 1116l155 -91l-82 -139l-154 90v-175h-161v176l-154 -89l-80 140l155 89l-153 91l81 139l151 -89v178h161v-181l156 89l80 -139z" />
    <glyph glyph-name="comma" unicode="," horiz-adv-x="509" 
d="M385 161q6 -21 6 -43q0 -9 -1 -19q-6 -54 -31 -102q-76 -166 -183 -193l-12 18q22 16 39 38q15 19 21 43q2 6 11 35t9 42q0 5 -2 6q-51 8 -83 45t-32 86q0 9 1 18q8 50 45 82t86 32q9 0 18 -1q80 -13 108 -87z" />
    <glyph glyph-name="period" unicode="." horiz-adv-x="508" 
d="M394 129q0 -58 -41.5 -100t-100.5 -42t-100.5 42t-41.5 100q0 59 41.5 100.5t100.5 41.5t100.5 -41.5t41.5 -100.5z" />
    <glyph glyph-name="slash" unicode="/" horiz-adv-x="975" 
d="M678 1434h249l-627 -1430h-249z" />
    <glyph glyph-name="colon" unicode=":" horiz-adv-x="519" 
d="M384 955q0 -55 -39.5 -94.5t-94.5 -39.5q-56 0 -95 39.5t-39 94.5q0 56 39 95t95 39q55 0 94.5 -39t39.5 -95zM384 134q0 -56 -39.5 -95t-94.5 -39q-56 0 -95 39t-39 95q0 55 39 94.5t95 39.5q55 0 94.5 -39.5t39.5 -94.5z" />
    <glyph glyph-name="semicolon" unicode=";" horiz-adv-x="530" 
d="M392 956q0 -55 -38.5 -93.5t-93.5 -38.5t-93.5 38.5t-38.5 93.5t38.5 93.5t93.5 38.5t93.5 -38.5t38.5 -93.5zM385 175q7 -21 7 -43q0 -9 -1 -18q-8 -55 -31 -102q-71 -166 -179 -193l-12 18q22 16 39 38q15 19 21 43q2 6 9.5 33.5t7.5 42.5q0 6 -3 7q-51 8 -83 45
t-32 86q0 9 1 17q8 51 45.5 83t86.5 32q9 0 17 -1q78 -13 107 -88z" />
    <glyph glyph-name="question" unicode="?" horiz-adv-x="1161" 
d="M1068 994q-26 -140 -134 -234q-53 -45 -115 -76q-39 -17 -77.5 -33.5t-70.5 -48.5q-30 -32 -38 -64.5t-8 -73.5l-2 -72v-51h-192v37l-1 40q0 95 -2 189q0 27 -2 56q0 21 5 40q13 38 45 62.5t67 39.5l88 40q36 17 71 31q47 18 91 56.5t55 94.5q1 6 1 13q0 46 -40 96
q-54 61 -172 77q-36 4 -74 4q-74 -3 -142 -31q-15 -6 -31 -14q-81 -47 -149 -130l-166 149q45 51 95.5 97t117.5 82q62 32 130 50l160 20q32 0 63 -3q218 -22 337 -155q93 -115 93 -242q0 -23 -3 -46zM578 1440l-160 -20q68 17 138 20h22zM641 1440v-3q-31 3 -63 3h63z
M641 117q0 -47 -32.5 -79.5t-78.5 -32.5t-79 32.5t-33 79.5q0 46 33 78.5t79 32.5t78.5 -32.5t32.5 -78.5z" />
    <glyph glyph-name="at" unicode="@" horiz-adv-x="1737" 
d="M864 1434q190 0 345.5 -96.5t248 -258.5t92.5 -359q0 -83 -19 -175t-70.5 -161.5t-146.5 -92.5q-27 -6 -54 -6q-53 0 -103.5 19t-93.5 50q-8 7 -17 16q-36 -36 -102.5 -46.5t-112.5 -10.5q-19 0 -31 0.5l-12 0.5h-7q-30 1 -57 8q-21 5 -41 14q-65 28 -108 85
q-52 70 -52 158q0 108 74 183.5t184 81.5h201q0 110 -70 124q-20 4 -42 4q-43 0 -84.5 -14.5t-63.5 -42.5l-144 102q50 68 130.5 99.5t161.5 31.5q39 0 76 -7q100 -20 155.5 -97.5t57.5 -198.5v-228q0 -31 -2 -64q0 -11 1 -23q3 -26 21 -43q16 -12 34 -12q25 0 46 17
q33 31 40 76q9 37 15.5 75t6.5 77q0 134 -61.5 244t-165.5 175.5t-230 65.5t-229.5 -65.5t-165.5 -175.5t-62 -244t62 -244.5t165.5 -176t229.5 -65.5q119 0 218 59l178 -157q-174 -131 -396 -131q-189 0 -344.5 96.5t-248.5 259t-93 359.5t93 359t248.5 258.5t344.5 96.5z
M983 527q-1 7 -1 16q0 43 1 75v49h-199q-5 0 -10 -1q-2 0 -5 -1q-30 -7 -49.5 -30.5t-19.5 -55.5q0 -37 26 -63t62 -26h94q63 4 101 37z" />
    <glyph glyph-name="backslash" unicode="\" horiz-adv-x="883" 
d="M260 1434l627 -1429h-249l-627 1429h249z" />
    <glyph glyph-name="ellipsis" unicode="&#x2026;" horiz-adv-x="1675" 
d="M498 138q0 -57 -40 -97t-97 -40t-97 40t-40 97t40 97t97 40t97 -40t40 -97zM976 138q0 -57 -40 -97t-97 -40t-97 40t-40 97t40 97t97 40t97 -40t40 -97zM1449 138q0 -57 -40 -97t-97 -40q-56 0 -96.5 40t-40.5 97t40.5 97t96.5 40q57 0 97 -40t40 -97z" />
    <glyph glyph-name="plus" unicode="+" horiz-adv-x="1057" 
d="M966 788v-214h-336v-336h-214v336h-337v214h337v337h214v-337h336z" />
    <glyph glyph-name="less" unicode="&#x3c;" 
d="M128 762l687 397l81 -141l-444 -256l444 -256l-81 -140z" />
    <glyph glyph-name="equal" unicode="=" horiz-adv-x="1101" 
d="M132 969h853v-205h-853v205zM132 583h853v-205h-853v205z" />
    <glyph glyph-name="greater" unicode="&#x3e;" 
d="M943 751l-733 -423l-86 150l473 273l-473 274l86 149z" />
    <glyph glyph-name="bar" unicode="|" 
d="M446 1440v-1514h-231v1514h231z" />
    <glyph glyph-name="asciitilde" unicode="~" 
d="M703 558q-87 0 -173 27l-28 10l-12 4q-11 5 -22 8q-64 20 -130 20q-100 0 -198 -44l-24 -11l-82 182l24 11q139 61 280 61q97 0 190 -29q16 -5 32 -11l11 -4q10 -4 20 -7q55 -17 112 -17q91 0 180 42l15 8l88 -179l-16 -8q-132 -63 -267 -63z" />
    <glyph glyph-name="minus" unicode="&#x2212;" 
d="M118 749h769v-219h-769v219z" />
    <glyph glyph-name="dollar" unicode="$" horiz-adv-x="1165" 
d="M1042 486q3 -21 3 -43q0 -118 -87 -226q-91 -102 -251 -135v-75h-230v73q-86 15 -164 56q-63 33 -110 76t-89 91l152 136q64 -79 140 -122q35 -18 71 -29v401q-32 14 -64 30q-59 27 -124.5 73t-107.5 126q-28 60 -28 121q0 65 31 128q91 159 286 200q3 0 7 1v69h230v-83
q163 -42 282 -154l-142 -147q-59 56 -140 87v-324q6 -3 14 -6q28 -10 55 -21q226 -96 266 -303zM482 915v244q-78 -28 -112 -86q-9 -17 -9 -34q0 -16 9 -33q29 -52 112 -91zM809 350q37 48 37 92q0 7 -1 13q-10 52 -49.5 88.5t-83.5 53.5v-305q59 18 97 58z" />
    <glyph glyph-name="u2116" unicode="&#x2116;" horiz-adv-x="2059" 
d="M1667 1434q123 0 210.5 -101.5t87.5 -244.5t-87.5 -244.5t-210.5 -101.5t-210 101.5t-87 244.5t87 244.5t210 101.5zM1667 928q46 0 79 47.5t33 112.5t-33 112.5t-79 47.5q-45 0 -78 -47.5t-33 -112.5t33 -112.5t78 -47.5zM1296 1434v-1434h-230q-43 157 -124 302
q-73 115 -205 246q-76 77 -153 150l-8 8q-117 111 -201 203l-27 33v-942h-230v1434h230q18 -81 60 -175.5t125 -192.5q64 -72 160 -163q18 -17 36 -35q62 -59 125 -122q120 -117 212 -235v923h230zM118 1434v-5q0 2 -1 5h1zM1968 694v-239h-578v239h578z" />
    <glyph glyph-name="quotesingle" unicode="'" horiz-adv-x="526" 
d="M65 1553l317 2l60 -432l-129 -84z" />
    <glyph glyph-name="acute" unicode="&#xb4;" horiz-adv-x="531" 
d="M456 1553l-248 -514l-129 84l61 432z" />
    </font>
</defs>
</svg>
